 0
SECTION
 2
HEADER
 9
$ACADVER
 1
AC1009
 0
ENDSEC
 0
SECTION
 2
TABLES
 0
TABLE
 2
LTYPE
 70
1
 0
LTYPE
 2
CONTINUOUS
 70
64
 3
solid line
 72
65
 73
0
 40
0.0
 0
ENDTAB
 0
TABLE
 2
LAYER
 70
6
 0
LAYER
 2
0
 70
0
 62
7
 6
CONTINUOUS
 0
LAYER
 2
CYLINDER
 70
64
 62
254
 6
CONTINUOUS
 0
ENDTAB
 0
ENDSEC
 0
SECTION
 2
BLOCKS
 0
ENDSEC
 0
SECTION
 2
ENTITIES
 0
POLYLINE
 8
CYLINDER
 66
1
 10
0.0
 20
0.0
 30
0.0
 70
64
 71
1384
 72
940
 0
VERTEX
 8
CYLINDER
 10
1.8
 20
0
 30
-0.2
 70
192
 0
VERTEX
 8
CYLINDER
 10
1.8
 20
0
 30
0.2
 70
192
 0
VERTEX
 8
CYLINDER
 10
1.7727
 20
0.3126
 30
-0.2
 70
192
 0
VERTEX
 8
CYLINDER
 10
1.7727
 20
0.3126
 30
0.2
 70
192
 0
VERTEX
 8
CYLINDER
 10
1.6914
 20
0.6156
 30
-0.2
 70
192
 0
VERTEX
 8
CYLINDER
 10
1.6914
 20
0.6156
 30
0.2
 70
192
 0
VERTEX
 8
CYLINDER
 10
1.5588
 20
0.9
 30
-0.2
 70
192
 0
VERTEX
 8
CYLINDER
 10
1.5588
 20
0.9
 30
0.2
 70
192
 0
VERTEX
 8
CYLINDER
 10
1.3789
 20
1.157
 30
-0.2
 70
192
 0
VERTEX
 8
CYLINDER
 10
1.3789
 20
1.157
 30
0.2
 70
192
 0
VERTEX
 8
CYLINDER
 10
1.157
 20
1.3789
 30
-0.2
 70
192
 0
VERTEX
 8
CYLINDER
 10
1.157
 20
1.3789
 30
0.2
 70
192
 0
VERTEX
 8
CYLINDER
 10
0.9
 20
1.5588
 30
-0.2
 70
192
 0
VERTEX
 8
CYLINDER
 10
0.9
 20
1.5588
 30
0.2
 70
192
 0
VERTEX
 8
CYLINDER
 10
0.6156
 20
1.6914
 30
-0.2
 70
192
 0
VERTEX
 8
CYLINDER
 10
0.6156
 20
1.6914
 30
0.2
 70
192
 0
VERTEX
 8
CYLINDER
 10
0.3126
 20
1.7727
 30
-0.2
 70
192
 0
VERTEX
 8
CYLINDER
 10
0.3126
 20
1.7727
 30
0.2
 70
192
 0
VERTEX
 8
CYLINDER
 10
0
 20
1.8
 30
-0.2
 70
192
 0
VERTEX
 8
CYLINDER
 10
0
 20
1.8
 30
0.2
 70
192
 0
VERTEX
 8
CYLINDER
 10
-0.3126
 20
1.7727
 30
-0.2
 70
192
 0
VERTEX
 8
CYLINDER
 10
-0.3126
 20
1.7727
 30
0.2
 70
192
 0
VERTEX
 8
CYLINDER
 10
-0.6156
 20
1.6914
 30
-0.2
 70
192
 0
VERTEX
 8
CYLINDER
 10
-0.6156
 20
1.6914
 30
0.2
 70
192
 0
VERTEX
 8
CYLINDER
 10
-0.9
 20
1.5588
 30
-0.2
 70
192
 0
VERTEX
 8
CYLINDER
 10
-0.9
 20
1.5588
 30
0.2
 70
192
 0
VERTEX
 8
CYLINDER
 10
-1.157
 20
1.3789
 30
-0.2
 70
192
 0
VERTEX
 8
CYLINDER
 10
-1.157
 20
1.3789
 30
0.2
 70
192
 0
VERTEX
 8
CYLINDER
 10
-1.3789
 20
1.157
 30
-0.2
 70
192
 0
VERTEX
 8
CYLINDER
 10
-1.3789
 20
1.157
 30
0.2
 70
192
 0
VERTEX
 8
CYLINDER
 10
-1.5588
 20
0.9
 30
-0.2
 70
192
 0
VERTEX
 8
CYLINDER
 10
-1.5588
 20
0.9
 30
0.2
 70
192
 0
VERTEX
 8
CYLINDER
 10
-1.6914
 20
0.6156
 30
-0.2
 70
192
 0
VERTEX
 8
CYLINDER
 10
-1.6914
 20
0.6156
 30
0.2
 70
192
 0
VERTEX
 8
CYLINDER
 10
-1.7727
 20
0.3126
 30
-0.2
 70
192
 0
VERTEX
 8
CYLINDER
 10
-1.7727
 20
0.3126
 30
0.2
 70
192
 0
VERTEX
 8
CYLINDER
 10
-1.8
 20
0
 30
-0.2
 70
192
 0
VERTEX
 8
CYLINDER
 10
-1.8
 20
0
 30
0.2
 70
192
 0
VERTEX
 8
CYLINDER
 10
-1.7727
 20
-0.3126
 30
-0.2
 70
192
 0
VERTEX
 8
CYLINDER
 10
-1.7727
 20
-0.3126
 30
0.2
 70
192
 0
VERTEX
 8
CYLINDER
 10
-1.6914
 20
-0.6156
 30
-0.2
 70
192
 0
VERTEX
 8
CYLINDER
 10
-1.6914
 20
-0.6156
 30
0.2
 70
192
 0
VERTEX
 8
CYLINDER
 10
-1.5588
 20
-0.9
 30
-0.2
 70
192
 0
VERTEX
 8
CYLINDER
 10
-1.5588
 20
-0.9
 30
0.2
 70
192
 0
VERTEX
 8
CYLINDER
 10
-1.3789
 20
-1.157
 30
-0.2
 70
192
 0
VERTEX
 8
CYLINDER
 10
-1.3789
 20
-1.157
 30
0.2
 70
192
 0
VERTEX
 8
CYLINDER
 10
-1.157
 20
-1.3789
 30
-0.2
 70
192
 0
VERTEX
 8
CYLINDER
 10
-1.157
 20
-1.3789
 30
0.2
 70
192
 0
VERTEX
 8
CYLINDER
 10
-0.9
 20
-1.5588
 30
-0.2
 70
192
 0
VERTEX
 8
CYLINDER
 10
-0.9
 20
-1.5588
 30
0.2
 70
192
 0
VERTEX
 8
CYLINDER
 10
-0.6156
 20
-1.6914
 30
-0.2
 70
192
 0
VERTEX
 8
CYLINDER
 10
-0.6156
 20
-1.6914
 30
0.2
 70
192
 0
VERTEX
 8
CYLINDER
 10
-0.3126
 20
-1.7727
 30
-0.2
 70
192
 0
VERTEX
 8
CYLINDER
 10
-0.3126
 20
-1.7727
 30
0.2
 70
192
 0
VERTEX
 8
CYLINDER
 10
0
 20
-1.8
 30
-0.2
 70
192
 0
VERTEX
 8
CYLINDER
 10
0
 20
-1.8
 30
0.2
 70
192
 0
VERTEX
 8
CYLINDER
 10
0.3126
 20
-1.7727
 30
-0.2
 70
192
 0
VERTEX
 8
CYLINDER
 10
0.3126
 20
-1.7727
 30
0.2
 70
192
 0
VERTEX
 8
CYLINDER
 10
0.6156
 20
-1.6914
 30
-0.2
 70
192
 0
VERTEX
 8
CYLINDER
 10
0.6156
 20
-1.6914
 30
0.2
 70
192
 0
VERTEX
 8
CYLINDER
 10
0.9
 20
-1.5588
 30
-0.2
 70
192
 0
VERTEX
 8
CYLINDER
 10
0.9
 20
-1.5588
 30
0.2
 70
192
 0
VERTEX
 8
CYLINDER
 10
1.157
 20
-1.3789
 30
-0.2
 70
192
 0
VERTEX
 8
CYLINDER
 10
1.157
 20
-1.3789
 30
0.2
 70
192
 0
VERTEX
 8
CYLINDER
 10
1.3789
 20
-1.157
 30
-0.2
 70
192
 0
VERTEX
 8
CYLINDER
 10
1.3789
 20
-1.157
 30
0.2
 70
192
 0
VERTEX
 8
CYLINDER
 10
1.5588
 20
-0.9
 30
-0.2
 70
192
 0
VERTEX
 8
CYLINDER
 10
1.5588
 20
-0.9
 30
0.2
 70
192
 0
VERTEX
 8
CYLINDER
 10
1.6914
 20
-0.6156
 30
-0.2
 70
192
 0
VERTEX
 8
CYLINDER
 10
1.6914
 20
-0.6156
 30
0.2
 70
192
 0
VERTEX
 8
CYLINDER
 10
1.7727
 20
-0.3126
 30
-0.2
 70
192
 0
VERTEX
 8
CYLINDER
 10
1.7727
 20
-0.3126
 30
0.2
 70
192
 0
VERTEX
 8
CYLINDER
 10
-0.6668
 20
0.7946
 30
-0.2
 70
192
 0
VERTEX
 8
CYLINDER
 10
0.5249
 20
0.0925
 30
-0.2
 70
192
 0
VERTEX
 8
CYLINDER
 10
1.048
 20
0.1848
 30
-0.2
 70
192
 0
VERTEX
 8
CYLINDER
 10
1.0968
 20
-0.6332
 30
-0.2
 70
192
 0
VERTEX
 8
CYLINDER
 10
-0.6238
 20
0.7434
 30
-0.2
 70
192
 0
VERTEX
 8
CYLINDER
 10
-0.6075
 20
-1.0522
 30
-0.2
 70
192
 0
VERTEX
 8
CYLINDER
 10
1.0763
 20
0
 30
-0.2
 70
192
 0
VERTEX
 8
CYLINDER
 10
-0.4061
 20
-1.1157
 30
-0.2
 70
192
 0
VERTEX
 8
CYLINDER
 10
-0.384
 20
1.055
 30
0.2
 70
192
 0
VERTEX
 8
CYLINDER
 10
0.5191
 20
0.0915
 30
-0.2
 70
192
 0
VERTEX
 8
CYLINDER
 10
-0.4184
 20
0.2416
 30
-0.2
 70
192
 0
VERTEX
 8
CYLINDER
 10
0.5249
 20
0.0925
 30
0.2
 70
192
 0
VERTEX
 8
CYLINDER
 10
-0.366
 20
-0.634
 30
0.2
 70
192
 0
VERTEX
 8
CYLINDER
 10
1.048
 20
0.1848
 30
0.2
 70
192
 0
VERTEX
 8
CYLINDER
 10
-0.6668
 20
0.7946
 30
0.2
 70
192
 0
VERTEX
 8
CYLINDER
 10
0.6039
 20
-1.046
 30
0.2
 70
192
 0
VERTEX
 8
CYLINDER
 10
1.0763
 20
0
 30
0.2
 70
192
 0
VERTEX
 8
CYLINDER
 10
-0.4634
 20
-0.5523
 30
0.2
 70
192
 0
VERTEX
 8
CYLINDER
 10
0.3586
 20
-0.9853
 30
0.2
 70
192
 0
VERTEX
 8
CYLINDER
 10
0.5191
 20
0.0915
 30
0.2
 70
192
 0
VERTEX
 8
CYLINDER
 10
-0.1962
 20
1.1129
 30
0.2
 70
192
 0
VERTEX
 8
CYLINDER
 10
-0.2417
 20
-0.664
 30
0.2
 70
192
 0
VERTEX
 8
CYLINDER
 10
0.5461
 20
0.1988
 30
-0.2
 70
192
 0
VERTEX
 8
CYLINDER
 10
0.3553
 20
-0.6154
 30
0.2
 70
192
 0
VERTEX
 8
CYLINDER
 10
1.0632
 20
0.387
 30
-0.2
 70
192
 0
VERTEX
 8
CYLINDER
 10
-0.6075
 20
-1.0522
 30
0.2
 70
192
 0
VERTEX
 8
CYLINDER
 10
-0.294
 20
0.5092
 30
0.2
 70
192
 0
VERTEX
 8
CYLINDER
 10
-0.8208
 20
0.6888
 30
-0.2
 70
192
 0
VERTEX
 8
CYLINDER
 10
0.5035
 20
0.4225
 30
-0.2
 70
192
 0
VERTEX
 8
CYLINDER
 10
-0.1916
 20
-1.0867
 30
0.2
 70
192
 0
VERTEX
 8
CYLINDER
 10
-0.2417
 20
-0.664
 30
-0.2
 70
192
 0
VERTEX
 8
CYLINDER
 10
0.2287
 20
-0.6283
 30
0.2
 70
192
 0
VERTEX
 8
CYLINDER
 10
0.5171
 20
0.1882
 30
-0.2
 70
192
 0
VERTEX
 8
CYLINDER
 10
0.4834
 20
0.5761
 30
-0.2
 70
192
 0
VERTEX
 8
CYLINDER
 10
0.6039
 20
-1.046
 30
-0.2
 70
192
 0
VERTEX
 8
CYLINDER
 10
0.5461
 20
0.1988
 30
0.2
 70
192
 0
VERTEX
 8
CYLINDER
 10
-0.3674
 20
0.3082
 30
-0.2
 70
192
 0
VERTEX
 8
CYLINDER
 10
1.0632
 20
0.387
 30
0.2
 70
192
 0
VERTEX
 8
CYLINDER
 10
-0.366
 20
-0.634
 30
-0.2
 70
192
 0
VERTEX
 8
CYLINDER
 10
-0.4636
 20
-0.803
 30
-0.2
 70
192
 0
VERTEX
 8
CYLINDER
 10
-0.3267
 20
0.3893
 30
-0.2
 70
192
 0
VERTEX
 8
CYLINDER
 10
-0.8208
 20
0.6888
 30
0.2
 70
192
 0
VERTEX
 8
CYLINDER
 10
0.6038
 20
-0.7195
 30
-0.2
 70
192
 0
VERTEX
 8
CYLINDER
 10
0.4635
 20
-0.5524
 30
-0.2
 70
192
 0
VERTEX
 8
CYLINDER
 10
0.0429
 20
-0.2431
 30
-0.2
 70
192
 0
VERTEX
 8
CYLINDER
 10
0.5171
 20
0.1882
 30
0.2
 70
192
 0
VERTEX
 8
CYLINDER
 10
-0.1916
 20
-1.0867
 30
-0.2
 70
192
 0
VERTEX
 8
CYLINDER
 10
0.3553
 20
-0.6154
 30
-0.2
 70
192
 0
VERTEX
 8
CYLINDER
 10
0.8004
 20
-0.9538
 30
0.2
 70
192
 0
VERTEX
 8
CYLINDER
 10
0.1924
 20
-1.091
 30
0.2
 70
192
 0
VERTEX
 8
CYLINDER
 10
0.596
 20
0.3441
 30
-0.2
 70
192
 0
VERTEX
 8
CYLINDER
 10
1.1734
 20
0.6775
 30
-0.2
 70
192
 0
VERTEX
 8
CYLINDER
 10
-1.127
 20
-0.4102
 30
-0.2
 70
192
 0
VERTEX
 8
CYLINDER
 10
1.1464
 20
-0.4173
 30
0.2
 70
192
 0
VERTEX
 8
CYLINDER
 10
-0.3267
 20
0.3893
 30
0.2
 70
192
 0
VERTEX
 8
CYLINDER
 10
-0.962
 20
0.5554
 30
-0.2
 70
192
 0
VERTEX
 8
CYLINDER
 10
-0.9239
 20
-0.7752
 30
-0.2
 70
192
 0
VERTEX
 8
CYLINDER
 10
0.5144
 20
0.297
 30
-0.2
 70
192
 0
VERTEX
 8
CYLINDER
 10
-0.6552
 20
0.5498
 30
-0.2
 70
192
 0
VERTEX
 8
CYLINDER
 10
-0.9239
 20
-0.7752
 30
0.2
 70
192
 0
VERTEX
 8
CYLINDER
 10
-0.7174
 20
0.4142
 30
-0.2
 70
192
 0
VERTEX
 8
CYLINDER
 10
0.596
 20
0.3441
 30
0.2
 70
192
 0
VERTEX
 8
CYLINDER
 10
1.1734
 20
0.6775
 30
0.2
 70
192
 0
VERTEX
 8
CYLINDER
 10
-0.4636
 20
-0.803
 30
0.2
 70
192
 0
VERTEX
 8
CYLINDER
 10
-0.4634
 20
-0.5523
 30
-0.2
 70
192
 0
VERTEX
 8
CYLINDER
 10
0.1962
 20
-1.1125
 30
-0.2
 70
192
 0
VERTEX
 8
CYLINDER
 10
1.1183
 20
-0.1972
 30
0.2
 70
192
 0
VERTEX
 8
CYLINDER
 10
0.1924
 20
-1.091
 30
-0.2
 70
192
 0
VERTEX
 8
CYLINDER
 10
-0.962
 20
0.5554
 30
0.2
 70
192
 0
VERTEX
 8
CYLINDER
 10
0.8004
 20
-0.9538
 30
-0.2
 70
192
 0
VERTEX
 8
CYLINDER
 10
0.5144
 20
0.297
 30
0.2
 70
192
 0
VERTEX
 8
CYLINDER
 10
-0.6552
 20
0.5498
 30
0.2
 70
192
 0
VERTEX
 8
CYLINDER
 10
0.19
 20
1.0776
 30
-0.2
 70
192
 0
VERTEX
 8
CYLINDER
 10
0.6684
 20
-0.5609
 30
-0.2
 70
192
 0
VERTEX
 8
CYLINDER
 10
0.564
 20
-0.4732
 30
-0.2
 70
192
 0
VERTEX
 8
CYLINDER
 10
-0.7174
 20
0.4142
 30
0.2
 70
192
 0
VERTEX
 8
CYLINDER
 10
-0.4184
 20
0.2416
 30
0.2
 70
192
 0
VERTEX
 8
CYLINDER
 10
0
 20
-0.4378
 30
-0.2
 70
192
 0
VERTEX
 8
CYLINDER
 10
-0.1105
 20
-0.6268
 30
-0.2
 70
192
 0
VERTEX
 8
CYLINDER
 10
-0.5196
 20
-0.6193
 30
0.2
 70
192
 0
VERTEX
 8
CYLINDER
 10
0.19
 20
1.0776
 30
0.2
 70
192
 0
VERTEX
 8
CYLINDER
 10
-0.3674
 20
0.3082
 30
0.2
 70
192
 0
VERTEX
 8
CYLINDER
 10
-1.0802
 20
0.3932
 30
-0.2
 70
192
 0
VERTEX
 8
CYLINDER
 10
0.0429
 20
-0.2431
 30
0.2
 70
192
 0
VERTEX
 8
CYLINDER
 10
0.5035
 20
0.4225
 30
0.2
 70
192
 0
VERTEX
 8
CYLINDER
 10
0
 20
1.1205
 30
-0.2
 70
192
 0
VERTEX
 8
CYLINDER
 10
0.6038
 20
-0.7195
 30
0.2
 70
192
 0
VERTEX
 8
CYLINDER
 10
-0.3509
 20
-0.964
 30
-0.2
 70
192
 0
VERTEX
 8
CYLINDER
 10
-0.384
 20
1.055
 30
-0.2
 70
192
 0
VERTEX
 8
CYLINDER
 10
0.4386
 20
0.7597
 30
-0.2
 70
192
 0
VERTEX
 8
CYLINDER
 10
-0.4962
 20
0.1806
 30
-0.2
 70
192
 0
VERTEX
 8
CYLINDER
 10
0.4635
 20
-0.5524
 30
0.2
 70
192
 0
VERTEX
 8
CYLINDER
 10
0.4834
 20
0.5761
 30
0.2
 70
192
 0
VERTEX
 8
CYLINDER
 10
-0.1962
 20
1.1129
 30
-0.2
 70
192
 0
VERTEX
 8
CYLINDER
 10
0.3586
 20
-0.9853
 30
-0.2
 70
192
 0
VERTEX
 8
CYLINDER
 10
0.2287
 20
-0.6283
 30
-0.2
 70
192
 0
VERTEX
 8
CYLINDER
 10
-0.7807
 20
-0.9304
 30
-0.2
 70
192
 0
VERTEX
 8
CYLINDER
 10
-1.0802
 20
0.3932
 30
0.2
 70
192
 0
VERTEX
 8
CYLINDER
 10
-0.294
 20
0.5092
 30
-0.2
 70
192
 0
VERTEX
 8
CYLINDER
 10
-0.4962
 20
0.1806
 30
0.2
 70
192
 0
VERTEX
 8
CYLINDER
 10
-0.1946
 20
-1.1034
 30
0.2
 70
192
 0
VERTEX
 8
CYLINDER
 10
-0.1946
 20
-1.1034
 30
-0.2
 70
192
 0
VERTEX
 8
CYLINDER
 10
-0.6238
 20
0.7434
 30
0.2
 70
192
 0
VERTEX
 8
CYLINDER
 10
-0.3509
 20
-0.964
 30
0.2
 70
192
 0
VERTEX
 8
CYLINDER
 10
-1.039
 20
-0.5999
 30
0.2
 70
192
 0
VERTEX
 8
CYLINDER
 10
-0.7579
 20
0.2758
 30
0.2
 70
192
 0
VERTEX
 8
CYLINDER
 10
-1.1601
 20
0.2046
 30
0.2
 70
192
 0
VERTEX
 8
CYLINDER
 10
-1.1831
 20
-0.2086
 30
-0.2
 70
192
 0
VERTEX
 8
CYLINDER
 10
0.3446
 20
0.9467
 30
-0.2
 70
192
 0
VERTEX
 8
CYLINDER
 10
1.1183
 20
-0.1972
 30
-0.2
 70
192
 0
VERTEX
 8
CYLINDER
 10
0.6684
 20
-0.5609
 30
0.2
 70
192
 0
VERTEX
 8
CYLINDER
 10
-1.1953
 20
0
 30
-0.2
 70
192
 0
VERTEX
 8
CYLINDER
 10
-1.1831
 20
-0.2086
 30
0.2
 70
192
 0
VERTEX
 8
CYLINDER
 10
0.4386
 20
0.7597
 30
0.2
 70
192
 0
VERTEX
 8
CYLINDER
 10
0.4987
 20
-0.8637
 30
-0.2
 70
192
 0
VERTEX
 8
CYLINDER
 10
0.3446
 20
0.9467
 30
0.2
 70
192
 0
VERTEX
 8
CYLINDER
 10
-0.7579
 20
0.2758
 30
-0.2
 70
192
 0
VERTEX
 8
CYLINDER
 10
-1.1953
 20
0
 30
0.2
 70
192
 0
VERTEX
 8
CYLINDER
 10
0
 20
1.1205
 30
0.2
 70
192
 0
VERTEX
 8
CYLINDER
 10
0.1962
 20
-1.1125
 30
0.2
 70
192
 0
VERTEX
 8
CYLINDER
 10
0.4987
 20
-0.8637
 30
0.2
 70
192
 0
VERTEX
 8
CYLINDER
 10
-1.127
 20
-0.4102
 30
0.2
 70
192
 0
VERTEX
 8
CYLINDER
 10
-0.7807
 20
-0.9304
 30
0.2
 70
192
 0
VERTEX
 8
CYLINDER
 10
1.0968
 20
-0.6332
 30
0.2
 70
192
 0
VERTEX
 8
CYLINDER
 10
0.3992
 20
-1.0968
 30
-0.2
 70
192
 0
VERTEX
 8
CYLINDER
 10
-1.039
 20
-0.5999
 30
-0.2
 70
192
 0
VERTEX
 8
CYLINDER
 10
-0.1105
 20
-0.6268
 30
0.2
 70
192
 0
VERTEX
 8
CYLINDER
 10
0.9732
 20
-0.8166
 30
-0.2
 70
192
 0
VERTEX
 8
CYLINDER
 10
-0.4061
 20
-1.1157
 30
0.2
 70
192
 0
VERTEX
 8
CYLINDER
 10
0.3992
 20
-1.0968
 30
0.2
 70
192
 0
VERTEX
 8
CYLINDER
 10
-1.1601
 20
0.2046
 30
-0.2
 70
192
 0
VERTEX
 8
CYLINDER
 10
0
 20
-0.4378
 30
0.2
 70
192
 0
VERTEX
 8
CYLINDER
 10
0.564
 20
-0.4732
 30
0.2
 70
192
 0
VERTEX
 8
CYLINDER
 10
1.1464
 20
-0.4173
 30
-0.2
 70
192
 0
VERTEX
 8
CYLINDER
 10
-0.5196
 20
-0.6193
 30
-0.2
 70
192
 0
VERTEX
 8
CYLINDER
 10
0.9732
 20
-0.8166
 30
0.2
 70
192
 0
VERTEX
 8
CYLINDER
 10
0.3832
 20
0.8875
 30
-0.2
 70
192
 0
VERTEX
 8
CYLINDER
 10
0.4443
 20
0.7446
 30
-0.2
 70
192
 0
VERTEX
 8
CYLINDER
 10
1.0522
 20
0.3384
 30
0.2
 70
192
 0
VERTEX
 8
CYLINDER
 10
0.4711
 20
0.6458
 30
0.2
 70
192
 0
VERTEX
 8
CYLINDER
 10
0.5922
 20
0.3365
 30
0.2
 70
192
 0
VERTEX
 8
CYLINDER
 10
0.1908
 20
1.0773
 30
0.2
 70
192
 0
VERTEX
 8
CYLINDER
 10
0.4967
 20
0.5001
 30
0.2
 70
192
 0
VERTEX
 8
CYLINDER
 10
1.0583
 20
0.6702
 30
0.2
 70
192
 0
VERTEX
 8
CYLINDER
 10
1.0717
 20
0.0206
 30
-0.2
 70
192
 0
VERTEX
 8
CYLINDER
 10
0.863
 20
0.6173
 30
-0.2
 70
192
 0
VERTEX
 8
CYLINDER
 10
-0.3194
 20
0.7908
 30
-0.2
 70
192
 0
VERTEX
 8
CYLINDER
 10
0.7436
 20
0.5432
 30
-0.2
 70
192
 0
VERTEX
 8
CYLINDER
 10
0.71
 20
0.5126
 30
0.2
 70
192
 0
VERTEX
 8
CYLINDER
 10
1.0717
 20
0.0206
 30
0.2
 70
192
 0
VERTEX
 8
CYLINDER
 10
-0.4076
 20
0.9685
 30
-0.2
 70
192
 0
VERTEX
 8
CYLINDER
 10
-0.2029
 20
1.1123
 30
-0.2
 70
192
 0
VERTEX
 8
CYLINDER
 10
1.1185
 20
0.6759
 30
-0.2
 70
192
 0
VERTEX
 8
CYLINDER
 10
0.7436
 20
0.5432
 30
0.2
 70
192
 0
VERTEX
 8
CYLINDER
 10
1.0455
 20
0.2118
 30
0.2
 70
192
 0
VERTEX
 8
CYLINDER
 10
0.4143
 20
0.8246
 30
-0.2
 70
192
 0
VERTEX
 8
CYLINDER
 10
0.6221
 20
0.396
 30
-0.2
 70
192
 0
VERTEX
 8
CYLINDER
 10
-0.2873
 20
0.6228
 30
-0.2
 70
192
 0
VERTEX
 8
CYLINDER
 10
0.4967
 20
0.5001
 30
-0.2
 70
192
 0
VERTEX
 8
CYLINDER
 10
0.3263
 20
0.9705
 30
0.2
 70
192
 0
VERTEX
 8
CYLINDER
 10
0.6795
 20
0.4791
 30
0.2
 70
192
 0
VERTEX
 8
CYLINDER
 10
0.9803
 20
0.6563
 30
0.2
 70
192
 0
VERTEX
 8
CYLINDER
 10
0.5922
 20
0.3365
 30
-0.2
 70
192
 0
VERTEX
 8
CYLINDER
 10
0.4143
 20
0.8246
 30
0.2
 70
192
 0
VERTEX
 8
CYLINDER
 10
0.5197
 20
0.0645
 30
-0.2
 70
192
 0
VERTEX
 8
CYLINDER
 10
0.5416
 20
0.1831
 30
-0.2
 70
192
 0
VERTEX
 8
CYLINDER
 10
0.5197
 20
0.0645
 30
0.2
 70
192
 0
VERTEX
 8
CYLINDER
 10
0.2291
 20
1.056
 30
-0.2
 70
192
 0
VERTEX
 8
CYLINDER
 10
0.82
 20
0.5957
 30
0.2
 70
192
 0
VERTEX
 8
CYLINDER
 10
0.863
 20
0.6173
 30
0.2
 70
192
 0
VERTEX
 8
CYLINDER
 10
1.0999
 20
0.4846
 30
0.2
 70
192
 0
VERTEX
 8
CYLINDER
 10
0.4443
 20
0.7446
 30
0.2
 70
192
 0
VERTEX
 8
CYLINDER
 10
-0.0131
 20
1.1215
 30
0.2
 70
192
 0
VERTEX
 8
CYLINDER
 10
0.2968
 20
1.0024
 30
-0.2
 70
192
 0
VERTEX
 8
CYLINDER
 10
-0.3087
 20
0.7568
 30
-0.2
 70
192
 0
VERTEX
 8
CYLINDER
 10
0.5672
 20
0.2723
 30
0.2
 70
192
 0
VERTEX
 8
CYLINDER
 10
-0.4133
 20
1.0016
 30
-0.2
 70
192
 0
VERTEX
 8
CYLINDER
 10
-0.0131
 20
1.1215
 30
-0.2
 70
192
 0
VERTEX
 8
CYLINDER
 10
-0.3937
 20
1.0466
 30
-0.2
 70
192
 0
VERTEX
 8
CYLINDER
 10
0.2644
 20
1.031
 30
-0.2
 70
192
 0
VERTEX
 8
CYLINDER
 10
0.5149
 20
0.2906
 30
-0.2
 70
192
 0
VERTEX
 8
CYLINDER
 10
-0.4005
 20
0.9495
 30
-0.2
 70
192
 0
VERTEX
 8
CYLINDER
 10
-0.3087
 20
0.7568
 30
0.2
 70
192
 0
VERTEX
 8
CYLINDER
 10
-0.3194
 20
0.7908
 30
0.2
 70
192
 0
VERTEX
 8
CYLINDER
 10
0.3532
 20
0.9354
 30
-0.2
 70
192
 0
VERTEX
 8
CYLINDER
 10
-0.2873
 20
0.6228
 30
0.2
 70
192
 0
VERTEX
 8
CYLINDER
 10
0.82
 20
0.5957
 30
-0.2
 70
192
 0
VERTEX
 8
CYLINDER
 10
0.1493
 20
1.0946
 30
-0.2
 70
192
 0
VERTEX
 8
CYLINDER
 10
0.2644
 20
1.031
 30
0.2
 70
192
 0
VERTEX
 8
CYLINDER
 10
-0.4005
 20
0.9495
 30
0.2
 70
192
 0
VERTEX
 8
CYLINDER
 10
0.5672
 20
0.2723
 30
-0.2
 70
192
 0
VERTEX
 8
CYLINDER
 10
0.9192
 20
0.6391
 30
0.2
 70
192
 0
VERTEX
 8
CYLINDER
 10
0.3832
 20
0.8875
 30
0.2
 70
192
 0
VERTEX
 8
CYLINDER
 10
0.1493
 20
1.0946
 30
0.2
 70
192
 0
VERTEX
 8
CYLINDER
 10
-0.4129
 20
0.9931
 30
0.2
 70
192
 0
VERTEX
 8
CYLINDER
 10
-0.4133
 20
1.0016
 30
0.2
 70
192
 0
VERTEX
 8
CYLINDER
 10
-0.385
 20
0.9173
 30
0.2
 70
192
 0
VERTEX
 8
CYLINDER
 10
-0.2874
 20
0.5709
 30
-0.2
 70
192
 0
VERTEX
 8
CYLINDER
 10
-0.413
 20
1.0078
 30
-0.2
 70
192
 0
VERTEX
 8
CYLINDER
 10
-0.4107
 20
1.0195
 30
0.2
 70
192
 0
VERTEX
 8
CYLINDER
 10
-0.0992
 20
1.121
 30
0.2
 70
192
 0
VERTEX
 8
CYLINDER
 10
-0.407
 20
1.0288
 30
0.2
 70
192
 0
VERTEX
 8
CYLINDER
 10
-0.4039
 20
1.0341
 30
0.2
 70
192
 0
VERTEX
 8
CYLINDER
 10
-0.2919
 20
0.5206
 30
0.2
 70
192
 0
VERTEX
 8
CYLINDER
 10
-0.4003
 20
1.0392
 30
0.2
 70
192
 0
VERTEX
 8
CYLINDER
 10
-0.374
 20
1.0623
 30
-0.2
 70
192
 0
VERTEX
 8
CYLINDER
 10
-0.3282
 20
0.8127
 30
-0.2
 70
192
 0
VERTEX
 8
CYLINDER
 10
-0.4122
 20
1.0137
 30
0.2
 70
192
 0
VERTEX
 8
CYLINDER
 10
-0.3404
 20
1.0794
 30
-0.2
 70
192
 0
VERTEX
 8
CYLINDER
 10
0.6517
 20
0.4429
 30
0.2
 70
192
 0
VERTEX
 8
CYLINDER
 10
1.0536
 20
0.1236
 30
-0.2
 70
192
 0
VERTEX
 8
CYLINDER
 10
-0.6252
 20
0.7672
 30
-0.2
 70
192
 0
VERTEX
 8
CYLINDER
 10
-0.3187
 20
0.4089
 30
-0.2
 70
192
 0
VERTEX
 8
CYLINDER
 10
-0.374
 20
1.0623
 30
0.2
 70
192
 0
VERTEX
 8
CYLINDER
 10
-0.3601
 20
1.0703
 30
0.2
 70
192
 0
VERTEX
 8
CYLINDER
 10
1.0536
 20
0.1236
 30
0.2
 70
192
 0
VERTEX
 8
CYLINDER
 10
-0.3404
 20
1.0794
 30
0.2
 70
192
 0
VERTEX
 8
CYLINDER
 10
-0.3091
 20
1.0905
 30
0.2
 70
192
 0
VERTEX
 8
CYLINDER
 10
-0.4112
 20
0.9821
 30
0.2
 70
192
 0
VERTEX
 8
CYLINDER
 10
-0.2029
 20
1.1123
 30
0.2
 70
192
 0
VERTEX
 8
CYLINDER
 10
-0.0992
 20
1.121
 30
-0.2
 70
192
 0
VERTEX
 8
CYLINDER
 10
1.0999
 20
0.4846
 30
-0.2
 70
192
 0
VERTEX
 8
CYLINDER
 10
1.0614
 20
0.3811
 30
-0.2
 70
192
 0
VERTEX
 8
CYLINDER
 10
1.0484
 20
0.3111
 30
-0.2
 70
192
 0
VERTEX
 8
CYLINDER
 10
-0.3018
 20
0.7296
 30
-0.2
 70
192
 0
VERTEX
 8
CYLINDER
 10
1.0457
 20
0.2774
 30
-0.2
 70
192
 0
VERTEX
 8
CYLINDER
 10
1.0455
 20
0.2118
 30
-0.2
 70
192
 0
VERTEX
 8
CYLINDER
 10
-0.6226
 20
0.7221
 30
-0.2
 70
192
 0
VERTEX
 8
CYLINDER
 10
-0.386
 20
1.0536
 30
0.2
 70
192
 0
VERTEX
 8
CYLINDER
 10
0.5416
 20
0.1831
 30
0.2
 70
192
 0
VERTEX
 8
CYLINDER
 10
0.4711
 20
0.6458
 30
-0.2
 70
192
 0
VERTEX
 8
CYLINDER
 10
-0.385
 20
0.9173
 30
-0.2
 70
192
 0
VERTEX
 8
CYLINDER
 10
-0.3589
 20
0.3213
 30
-0.2
 70
192
 0
VERTEX
 8
CYLINDER
 10
1.0614
 20
0.3811
 30
0.2
 70
192
 0
VERTEX
 8
CYLINDER
 10
-0.3383
 20
0.3608
 30
-0.2
 70
192
 0
VERTEX
 8
CYLINDER
 10
-0.4112
 20
0.9821
 30
-0.2
 70
192
 0
VERTEX
 8
CYLINDER
 10
1.0484
 20
0.3111
 30
0.2
 70
192
 0
VERTEX
 8
CYLINDER
 10
1.0457
 20
0.2774
 30
0.2
 70
192
 0
VERTEX
 8
CYLINDER
 10
-0.6226
 20
0.7221
 30
0.2
 70
192
 0
VERTEX
 8
CYLINDER
 10
-0.6324
 20
0.8159
 30
0.2
 70
192
 0
VERTEX
 8
CYLINDER
 10
0.71
 20
0.5126
 30
-0.2
 70
192
 0
VERTEX
 8
CYLINDER
 10
-0.6291
 20
0.6411
 30
0.2
 70
192
 0
VERTEX
 8
CYLINDER
 10
-0.6387
 20
0.5988
 30
0.2
 70
192
 0
VERTEX
 8
CYLINDER
 10
-0.3187
 20
0.4089
 30
0.2
 70
192
 0
VERTEX
 8
CYLINDER
 10
0.1908
 20
1.0773
 30
-0.2
 70
192
 0
VERTEX
 8
CYLINDER
 10
-0.3383
 20
0.3608
 30
0.2
 70
192
 0
VERTEX
 8
CYLINDER
 10
1.075
 20
0.4248
 30
-0.2
 70
192
 0
VERTEX
 8
CYLINDER
 10
-0.9199
 20
0.6016
 30
-0.2
 70
192
 0
VERTEX
 8
CYLINDER
 10
0.3263
 20
0.9705
 30
-0.2
 70
192
 0
VERTEX
 8
CYLINDER
 10
-0.6555
 20
0.5489
 30
-0.2
 70
192
 0
VERTEX
 8
CYLINDER
 10
-0.6291
 20
0.6411
 30
-0.2
 70
192
 0
VERTEX
 8
CYLINDER
 10
-0.292
 20
0.6758
 30
0.2
 70
192
 0
VERTEX
 8
CYLINDER
 10
1.1959
 20
0.6781
 30
0.2
 70
192
 0
VERTEX
 8
CYLINDER
 10
-0.4079
 20
0.2525
 30
-0.2
 70
192
 0
VERTEX
 8
CYLINDER
 10
-0.3822
 20
0.2851
 30
-0.2
 70
192
 0
VERTEX
 8
CYLINDER
 10
1.075
 20
0.4248
 30
0.2
 70
192
 0
VERTEX
 8
CYLINDER
 10
-0.3282
 20
0.8127
 30
0.2
 70
192
 0
VERTEX
 8
CYLINDER
 10
0.5149
 20
0.2906
 30
0.2
 70
192
 0
VERTEX
 8
CYLINDER
 10
-0.3547
 20
0.8635
 30
0.2
 70
192
 0
VERTEX
 8
CYLINDER
 10
-0.6555
 20
0.5489
 30
0.2
 70
192
 0
VERTEX
 8
CYLINDER
 10
-0.4076
 20
0.9685
 30
0.2
 70
192
 0
VERTEX
 8
CYLINDER
 10
-0.4107
 20
1.0195
 30
-0.2
 70
192
 0
VERTEX
 8
CYLINDER
 10
-0.4079
 20
0.2525
 30
0.2
 70
192
 0
VERTEX
 8
CYLINDER
 10
-0.3822
 20
0.2851
 30
0.2
 70
192
 0
VERTEX
 8
CYLINDER
 10
-0.4039
 20
1.0341
 30
-0.2
 70
192
 0
VERTEX
 8
CYLINDER
 10
0.7802
 20
0.5709
 30
-0.2
 70
192
 0
VERTEX
 8
CYLINDER
 10
-1.0393
 20
0.459
 30
-0.2
 70
192
 0
VERTEX
 8
CYLINDER
 10
-0.9863
 20
0.5289
 30
-0.2
 70
192
 0
VERTEX
 8
CYLINDER
 10
0.9803
 20
0.6563
 30
-0.2
 70
192
 0
VERTEX
 8
CYLINDER
 10
1.0583
 20
0.6702
 30
-0.2
 70
192
 0
VERTEX
 8
CYLINDER
 10
-0.7547
 20
0.3135
 30
-0.2
 70
192
 0
VERTEX
 8
CYLINDER
 10
-0.3937
 20
1.0466
 30
0.2
 70
192
 0
VERTEX
 8
CYLINDER
 10
-0.6778
 20
0.4979
 30
-0.2
 70
192
 0
VERTEX
 8
CYLINDER
 10
-0.7575
 20
0.2896
 30
-0.2
 70
192
 0
VERTEX
 8
CYLINDER
 10
-0.3091
 20
1.0905
 30
-0.2
 70
192
 0
VERTEX
 8
CYLINDER
 10
-0.6324
 20
0.8159
 30
-0.2
 70
192
 0
VERTEX
 8
CYLINDER
 10
-0.2584
 20
1.1031
 30
-0.2
 70
192
 0
VERTEX
 8
CYLINDER
 10
-0.4606
 20
0.2035
 30
-0.2
 70
192
 0
VERTEX
 8
CYLINDER
 10
-0.4473
 20
0.2139
 30
-0.2
 70
192
 0
VERTEX
 8
CYLINDER
 10
-0.4321
 20
0.2273
 30
-0.2
 70
192
 0
VERTEX
 8
CYLINDER
 10
-0.3096
 20
0.437
 30
-0.2
 70
192
 0
VERTEX
 8
CYLINDER
 10
-0.302
 20
0.4661
 30
-0.2
 70
192
 0
VERTEX
 8
CYLINDER
 10
-1.0393
 20
0.459
 30
0.2
 70
192
 0
VERTEX
 8
CYLINDER
 10
0.6517
 20
0.4429
 30
-0.2
 70
192
 0
VERTEX
 8
CYLINDER
 10
0.6795
 20
0.4791
 30
-0.2
 70
192
 0
VERTEX
 8
CYLINDER
 10
-0.741
 20
0.3642
 30
0.2
 70
192
 0
VERTEX
 8
CYLINDER
 10
-0.7497
 20
0.3368
 30
0.2
 70
192
 0
VERTEX
 8
CYLINDER
 10
-0.413
 20
1.0078
 30
0.2
 70
192
 0
VERTEX
 8
CYLINDER
 10
1.1185
 20
0.6759
 30
0.2
 70
192
 0
VERTEX
 8
CYLINDER
 10
-0.7575
 20
0.2896
 30
0.2
 70
192
 0
VERTEX
 8
CYLINDER
 10
-0.7579
 20
0.2798
 30
0.2
 70
192
 0
VERTEX
 8
CYLINDER
 10
1.0522
 20
0.3384
 30
-0.2
 70
192
 0
VERTEX
 8
CYLINDER
 10
-0.7431
 20
0.7472
 30
-0.2
 70
192
 0
VERTEX
 8
CYLINDER
 10
-0.4606
 20
0.2035
 30
0.2
 70
192
 0
VERTEX
 8
CYLINDER
 10
-0.4473
 20
0.2139
 30
0.2
 70
192
 0
VERTEX
 8
CYLINDER
 10
-0.6387
 20
0.5988
 30
-0.2
 70
192
 0
VERTEX
 8
CYLINDER
 10
-1.1499
 20
0.2399
 30
-0.2
 70
192
 0
VERTEX
 8
CYLINDER
 10
-1.121
 20
0.3139
 30
-0.2
 70
192
 0
VERTEX
 8
CYLINDER
 10
-1.086
 20
0.3839
 30
-0.2
 70
192
 0
VERTEX
 8
CYLINDER
 10
-0.7577
 20
0.2649
 30
-0.2
 70
192
 0
VERTEX
 8
CYLINDER
 10
-0.7555
 20
0.2423
 30
-0.2
 70
192
 0
VERTEX
 8
CYLINDER
 10
-0.7515
 20
0.2223
 30
-0.2
 70
192
 0
VERTEX
 8
CYLINDER
 10
-0.9863
 20
0.5289
 30
0.2
 70
192
 0
VERTEX
 8
CYLINDER
 10
-0.7361
 20
0.1857
 30
-0.2
 70
192
 0
VERTEX
 8
CYLINDER
 10
-0.7292
 20
0.1761
 30
-0.2
 70
192
 0
VERTEX
 8
CYLINDER
 10
1.1959
 20
0.6781
 30
-0.2
 70
192
 0
VERTEX
 8
CYLINDER
 10
-0.7132
 20
0.1602
 30
-0.2
 70
192
 0
VERTEX
 8
CYLINDER
 10
-0.7042
 20
0.154
 30
-0.2
 70
192
 0
VERTEX
 8
CYLINDER
 10
-0.6945
 20
0.1488
 30
-0.2
 70
192
 0
VERTEX
 8
CYLINDER
 10
-0.6843
 20
0.1446
 30
-0.2
 70
192
 0
VERTEX
 8
CYLINDER
 10
-0.6736
 20
0.1414
 30
-0.2
 70
192
 0
VERTEX
 8
CYLINDER
 10
-0.6431
 20
0.1374
 30
-0.2
 70
192
 0
VERTEX
 8
CYLINDER
 10
0.2291
 20
1.056
 30
0.2
 70
192
 0
VERTEX
 8
CYLINDER
 10
-0.6062
 20
0.1399
 30
-0.2
 70
192
 0
VERTEX
 8
CYLINDER
 10
0.2968
 20
1.0024
 30
0.2
 70
192
 0
VERTEX
 8
CYLINDER
 10
-0.5808
 20
0.1453
 30
-0.2
 70
192
 0
VERTEX
 8
CYLINDER
 10
-0.551
 20
0.1547
 30
-0.2
 70
192
 0
VERTEX
 8
CYLINDER
 10
-0.9199
 20
0.6016
 30
0.2
 70
192
 0
VERTEX
 8
CYLINDER
 10
0.0563
 20
1.1164
 30
-0.2
 70
192
 0
VERTEX
 8
CYLINDER
 10
0.1045
 20
1.1077
 30
-0.2
 70
192
 0
VERTEX
 8
CYLINDER
 10
-1.086
 20
0.3839
 30
0.2
 70
192
 0
VERTEX
 8
CYLINDER
 10
-0.7421
 20
0.1966
 30
-0.2
 70
192
 0
VERTEX
 8
CYLINDER
 10
0.0563
 20
1.1164
 30
0.2
 70
192
 0
VERTEX
 8
CYLINDER
 10
0.1045
 20
1.1077
 30
0.2
 70
192
 0
VERTEX
 8
CYLINDER
 10
-0.7555
 20
0.2423
 30
0.2
 70
192
 0
VERTEX
 8
CYLINDER
 10
-0.7515
 20
0.2223
 30
0.2
 70
192
 0
VERTEX
 8
CYLINDER
 10
-0.7473
 20
0.2088
 30
0.2
 70
192
 0
VERTEX
 8
CYLINDER
 10
-0.7421
 20
0.1966
 30
0.2
 70
192
 0
VERTEX
 8
CYLINDER
 10
-0.7361
 20
0.1857
 30
0.2
 70
192
 0
VERTEX
 8
CYLINDER
 10
0.9192
 20
0.6391
 30
-0.2
 70
192
 0
VERTEX
 8
CYLINDER
 10
-0.7292
 20
0.1761
 30
0.2
 70
192
 0
VERTEX
 8
CYLINDER
 10
-0.7216
 20
0.1676
 30
0.2
 70
192
 0
VERTEX
 8
CYLINDER
 10
-0.7132
 20
0.1602
 30
0.2
 70
192
 0
VERTEX
 8
CYLINDER
 10
-0.7042
 20
0.154
 30
0.2
 70
192
 0
VERTEX
 8
CYLINDER
 10
-0.3601
 20
1.0703
 30
-0.2
 70
192
 0
VERTEX
 8
CYLINDER
 10
-0.6843
 20
0.1446
 30
0.2
 70
192
 0
VERTEX
 8
CYLINDER
 10
0.6221
 20
0.396
 30
0.2
 70
192
 0
VERTEX
 8
CYLINDER
 10
-0.6736
 20
0.1414
 30
0.2
 70
192
 0
VERTEX
 8
CYLINDER
 10
-0.4899
 20
0.184
 30
-0.2
 70
192
 0
VERTEX
 8
CYLINDER
 10
-0.6587
 20
0.1386
 30
0.2
 70
192
 0
VERTEX
 8
CYLINDER
 10
-0.6431
 20
0.1374
 30
0.2
 70
192
 0
VERTEX
 8
CYLINDER
 10
-0.6269
 20
0.1376
 30
0.2
 70
192
 0
VERTEX
 8
CYLINDER
 10
-0.6062
 20
0.1399
 30
0.2
 70
192
 0
VERTEX
 8
CYLINDER
 10
-0.551
 20
0.1547
 30
0.2
 70
192
 0
VERTEX
 8
CYLINDER
 10
-0.5217
 20
0.167
 30
0.2
 70
192
 0
VERTEX
 8
CYLINDER
 10
-0.2584
 20
1.1031
 30
0.2
 70
192
 0
VERTEX
 8
CYLINDER
 10
-1.1879
 20
0.0793
 30
-0.2
 70
192
 0
VERTEX
 8
CYLINDER
 10
-1.1724
 20
0.1617
 30
-0.2
 70
192
 0
VERTEX
 8
CYLINDER
 10
-0.2919
 20
0.5206
 30
-0.2
 70
192
 0
VERTEX
 8
CYLINDER
 10
-1.1879
 20
0.0793
 30
0.2
 70
192
 0
VERTEX
 8
CYLINDER
 10
-1.1724
 20
0.1617
 30
0.2
 70
192
 0
VERTEX
 8
CYLINDER
 10
-0.292
 20
0.6758
 30
-0.2
 70
192
 0
VERTEX
 8
CYLINDER
 10
-1.1855
 20
-0.1973
 30
-0.2
 70
192
 0
VERTEX
 8
CYLINDER
 10
-1.1922
 20
-0.1472
 30
-0.2
 70
192
 0
VERTEX
 8
CYLINDER
 10
-1.1959
 20
-0.0983
 30
-0.2
 70
192
 0
VERTEX
 8
CYLINDER
 10
-1.1959
 20
-0.0073
 30
-0.2
 70
192
 0
VERTEX
 8
CYLINDER
 10
-0.3547
 20
0.8635
 30
-0.2
 70
192
 0
VERTEX
 8
CYLINDER
 10
-1.1855
 20
-0.1973
 30
0.2
 70
192
 0
VERTEX
 8
CYLINDER
 10
-1.1922
 20
-0.1472
 30
0.2
 70
192
 0
VERTEX
 8
CYLINDER
 10
-1.1959
 20
-0.0983
 30
0.2
 70
192
 0
VERTEX
 8
CYLINDER
 10
-1.1959
 20
-0.0073
 30
0.2
 70
192
 0
VERTEX
 8
CYLINDER
 10
-0.4129
 20
0.9931
 30
-0.2
 70
192
 0
VERTEX
 8
CYLINDER
 10
-1.1348
 20
-0.3911
 30
-0.2
 70
192
 0
VERTEX
 8
CYLINDER
 10
-1.1666
 20
-0.2869
 30
-0.2
 70
192
 0
VERTEX
 8
CYLINDER
 10
-0.4122
 20
1.0137
 30
-0.2
 70
192
 0
VERTEX
 8
CYLINDER
 10
0.3532
 20
0.9354
 30
0.2
 70
192
 0
VERTEX
 8
CYLINDER
 10
-1.1348
 20
-0.3911
 30
0.2
 70
192
 0
VERTEX
 8
CYLINDER
 10
-0.4095
 20
1.0233
 30
-0.2
 70
192
 0
VERTEX
 8
CYLINDER
 10
-0.407
 20
1.0288
 30
-0.2
 70
192
 0
VERTEX
 8
CYLINDER
 10
-1.0868
 20
-0.5083
 30
-0.2
 70
192
 0
VERTEX
 8
CYLINDER
 10
-0.4003
 20
1.0392
 30
-0.2
 70
192
 0
VERTEX
 8
CYLINDER
 10
-1.0868
 20
-0.5083
 30
0.2
 70
192
 0
VERTEX
 8
CYLINDER
 10
-0.386
 20
1.0536
 30
-0.2
 70
192
 0
VERTEX
 8
CYLINDER
 10
-0.957
 20
-0.7317
 30
-0.2
 70
192
 0
VERTEX
 8
CYLINDER
 10
-1.0271
 20
-0.6227
 30
-0.2
 70
192
 0
VERTEX
 8
CYLINDER
 10
-0.2874
 20
0.5709
 30
0.2
 70
192
 0
VERTEX
 8
CYLINDER
 10
-0.957
 20
-0.7317
 30
0.2
 70
192
 0
VERTEX
 8
CYLINDER
 10
-1.0271
 20
-0.6227
 30
0.2
 70
192
 0
VERTEX
 8
CYLINDER
 10
-0.3018
 20
0.7296
 30
0.2
 70
192
 0
VERTEX
 8
CYLINDER
 10
-0.5322
 20
-0.4865
 30
-0.2
 70
192
 0
VERTEX
 8
CYLINDER
 10
-0.5263
 20
-0.5783
 30
-0.2
 70
192
 0
VERTEX
 8
CYLINDER
 10
-0.7901
 20
-0.9225
 30
-0.2
 70
192
 0
VERTEX
 8
CYLINDER
 10
-0.8588
 20
-0.8536
 30
-0.2
 70
192
 0
VERTEX
 8
CYLINDER
 10
-1.121
 20
0.3139
 30
0.2
 70
192
 0
VERTEX
 8
CYLINDER
 10
-0.905
 20
-0.8001
 30
-0.2
 70
192
 0
VERTEX
 8
CYLINDER
 10
-0.5322
 20
-0.4865
 30
0.2
 70
192
 0
VERTEX
 8
CYLINDER
 10
-0.5263
 20
-0.5783
 30
0.2
 70
192
 0
VERTEX
 8
CYLINDER
 10
-0.7901
 20
-0.9225
 30
0.2
 70
192
 0
VERTEX
 8
CYLINDER
 10
-0.8588
 20
-0.8536
 30
0.2
 70
192
 0
VERTEX
 8
CYLINDER
 10
-0.905
 20
-0.8001
 30
0.2
 70
192
 0
VERTEX
 8
CYLINDER
 10
-0.3767
 20
-0.6278
 30
-0.2
 70
192
 0
VERTEX
 8
CYLINDER
 10
-0.3984
 20
-0.6122
 30
-0.2
 70
192
 0
VERTEX
 8
CYLINDER
 10
-0.4188
 20
-0.5949
 30
-0.2
 70
192
 0
VERTEX
 8
CYLINDER
 10
-0.514
 20
-0.6539
 30
-0.2
 70
192
 0
VERTEX
 8
CYLINDER
 10
-0.4773
 20
-0.7735
 30
-0.2
 70
192
 0
VERTEX
 8
CYLINDER
 10
-0.652
 20
-1.0275
 30
-0.2
 70
192
 0
VERTEX
 8
CYLINDER
 10
-0.7173
 20
-0.9831
 30
-0.2
 70
192
 0
VERTEX
 8
CYLINDER
 10
-0.5808
 20
0.1453
 30
0.2
 70
192
 0
VERTEX
 8
CYLINDER
 10
-0.3767
 20
-0.6278
 30
0.2
 70
192
 0
VERTEX
 8
CYLINDER
 10
-0.3984
 20
-0.6122
 30
0.2
 70
192
 0
VERTEX
 8
CYLINDER
 10
-0.4188
 20
-0.5949
 30
0.2
 70
192
 0
VERTEX
 8
CYLINDER
 10
-0.6252
 20
0.7672
 30
0.2
 70
192
 0
VERTEX
 8
CYLINDER
 10
-0.514
 20
-0.6539
 30
0.2
 70
192
 0
VERTEX
 8
CYLINDER
 10
-0.498
 20
-0.716
 30
0.2
 70
192
 0
VERTEX
 8
CYLINDER
 10
-0.3096
 20
0.437
 30
0.2
 70
192
 0
VERTEX
 8
CYLINDER
 10
-0.302
 20
0.4661
 30
0.2
 70
192
 0
VERTEX
 8
CYLINDER
 10
-0.652
 20
-1.0275
 30
0.2
 70
192
 0
VERTEX
 8
CYLINDER
 10
-0.7173
 20
-0.9831
 30
0.2
 70
192
 0
VERTEX
 8
CYLINDER
 10
-0.2479
 20
-0.6642
 30
-0.2
 70
192
 0
VERTEX
 8
CYLINDER
 10
-0.6241
 20
0.6801
 30
-0.2
 70
192
 0
VERTEX
 8
CYLINDER
 10
-0.3023
 20
-0.6585
 30
-0.2
 70
192
 0
VERTEX
 8
CYLINDER
 10
-0.3392
 20
-0.6474
 30
-0.2
 70
192
 0
VERTEX
 8
CYLINDER
 10
-0.3586
 20
-0.6384
 30
-0.2
 70
192
 0
VERTEX
 8
CYLINDER
 10
-0.4556
 20
-0.8201
 30
-0.2
 70
192
 0
VERTEX
 8
CYLINDER
 10
-0.7431
 20
0.7472
 30
0.2
 70
192
 0
VERTEX
 8
CYLINDER
 10
-0.3943
 20
-0.9151
 30
-0.2
 70
192
 0
VERTEX
 8
CYLINDER
 10
-0.3581
 20
-0.957
 30
-0.2
 70
192
 0
VERTEX
 8
CYLINDER
 10
-0.6241
 20
0.6801
 30
0.2
 70
192
 0
VERTEX
 8
CYLINDER
 10
-0.4321
 20
-1.1127
 30
-0.2
 70
192
 0
VERTEX
 8
CYLINDER
 10
-0.4797
 20
-1.1025
 30
-0.2
 70
192
 0
VERTEX
 8
CYLINDER
 10
-0.5384
 20
-1.0837
 30
-0.2
 70
192
 0
VERTEX
 8
CYLINDER
 10
-0.3589
 20
0.3213
 30
0.2
 70
192
 0
VERTEX
 8
CYLINDER
 10
-0.5959
 20
-1.0586
 30
-0.2
 70
192
 0
VERTEX
 8
CYLINDER
 10
-0.2479
 20
-0.6642
 30
0.2
 70
192
 0
VERTEX
 8
CYLINDER
 10
-0.2818
 20
-0.6619
 30
0.2
 70
192
 0
VERTEX
 8
CYLINDER
 10
-0.839
 20
0.6751
 30
-0.2
 70
192
 0
VERTEX
 8
CYLINDER
 10
-0.3214
 20
-0.6537
 30
0.2
 70
192
 0
VERTEX
 8
CYLINDER
 10
-0.3392
 20
-0.6474
 30
0.2
 70
192
 0
VERTEX
 8
CYLINDER
 10
-0.3586
 20
-0.6384
 30
0.2
 70
192
 0
VERTEX
 8
CYLINDER
 10
-0.4556
 20
-0.8201
 30
0.2
 70
192
 0
VERTEX
 8
CYLINDER
 10
-0.427
 20
-0.8696
 30
0.2
 70
192
 0
VERTEX
 8
CYLINDER
 10
-0.3943
 20
-0.9151
 30
0.2
 70
192
 0
VERTEX
 8
CYLINDER
 10
-0.3581
 20
-0.957
 30
0.2
 70
192
 0
VERTEX
 8
CYLINDER
 10
-0.839
 20
0.6751
 30
0.2
 70
192
 0
VERTEX
 8
CYLINDER
 10
-0.4321
 20
-1.1127
 30
0.2
 70
192
 0
VERTEX
 8
CYLINDER
 10
-0.4797
 20
-1.1025
 30
0.2
 70
192
 0
VERTEX
 8
CYLINDER
 10
-0.6778
 20
0.4979
 30
0.2
 70
192
 0
VERTEX
 8
CYLINDER
 10
-0.5959
 20
-1.0586
 30
0.2
 70
192
 0
VERTEX
 8
CYLINDER
 10
-0.1158
 20
-0.6305
 30
-0.2
 70
192
 0
VERTEX
 8
CYLINDER
 10
-0.1343
 20
-0.6408
 30
-0.2
 70
192
 0
VERTEX
 8
CYLINDER
 10
-0.1542
 20
-0.6494
 30
-0.2
 70
192
 0
VERTEX
 8
CYLINDER
 10
-0.1755
 20
-0.6561
 30
-0.2
 70
192
 0
VERTEX
 8
CYLINDER
 10
-0.1982
 20
-0.6608
 30
-0.2
 70
192
 0
VERTEX
 8
CYLINDER
 10
-0.741
 20
0.3642
 30
-0.2
 70
192
 0
VERTEX
 8
CYLINDER
 10
-0.7497
 20
0.3368
 30
-0.2
 70
192
 0
VERTEX
 8
CYLINDER
 10
-0.3132
 20
-1.0001
 30
-0.2
 70
192
 0
VERTEX
 8
CYLINDER
 10
-0.2588
 20
-1.0434
 30
-0.2
 70
192
 0
VERTEX
 8
CYLINDER
 10
-0.7579
 20
0.2798
 30
-0.2
 70
192
 0
VERTEX
 8
CYLINDER
 10
-0.2181
 20
-1.071
 30
-0.2
 70
192
 0
VERTEX
 8
CYLINDER
 10
-0.2952
 20
-1.1164
 30
-0.2
 70
192
 0
VERTEX
 8
CYLINDER
 10
-0.3504
 20
-1.1191
 30
-0.2
 70
192
 0
VERTEX
 8
CYLINDER
 10
-0.3889
 20
-1.1178
 30
-0.2
 70
192
 0
VERTEX
 8
CYLINDER
 10
-0.1158
 20
-0.6305
 30
0.2
 70
192
 0
VERTEX
 8
CYLINDER
 10
0.7802
 20
0.5709
 30
0.2
 70
192
 0
VERTEX
 8
CYLINDER
 10
-0.1343
 20
-0.6408
 30
0.2
 70
192
 0
VERTEX
 8
CYLINDER
 10
-0.1542
 20
-0.6494
 30
0.2
 70
192
 0
VERTEX
 8
CYLINDER
 10
-0.1755
 20
-0.6561
 30
0.2
 70
192
 0
VERTEX
 8
CYLINDER
 10
-0.1982
 20
-0.6608
 30
0.2
 70
192
 0
VERTEX
 8
CYLINDER
 10
-0.2223
 20
-0.6635
 30
0.2
 70
192
 0
VERTEX
 8
CYLINDER
 10
-0.7547
 20
0.3135
 30
0.2
 70
192
 0
VERTEX
 8
CYLINDER
 10
-0.3132
 20
-1.0001
 30
0.2
 70
192
 0
VERTEX
 8
CYLINDER
 10
-0.2588
 20
-1.0434
 30
0.2
 70
192
 0
VERTEX
 8
CYLINDER
 10
-0.2181
 20
-1.071
 30
0.2
 70
192
 0
VERTEX
 8
CYLINDER
 10
-0.4899
 20
0.184
 30
0.2
 70
192
 0
VERTEX
 8
CYLINDER
 10
-0.2952
 20
-1.1164
 30
0.2
 70
192
 0
VERTEX
 8
CYLINDER
 10
-0.3504
 20
-1.1191
 30
0.2
 70
192
 0
VERTEX
 8
CYLINDER
 10
-0.4321
 20
0.2273
 30
0.2
 70
192
 0
VERTEX
 8
CYLINDER
 10
-0.3214
 20
-0.6537
 30
-0.2
 70
192
 0
VERTEX
 8
CYLINDER
 10
-0.0055
 20
-0.4641
 30
-0.2
 70
192
 0
VERTEX
 8
CYLINDER
 10
-0.0162
 20
-0.4983
 30
-0.2
 70
192
 0
VERTEX
 8
CYLINDER
 10
-0.0271
 20
-0.525
 30
-0.2
 70
192
 0
VERTEX
 8
CYLINDER
 10
-0.04
 20
-0.5499
 30
-0.2
 70
192
 0
VERTEX
 8
CYLINDER
 10
-0.0548
 20
-0.5727
 30
-0.2
 70
192
 0
VERTEX
 8
CYLINDER
 10
-0.0681
 20
-0.5895
 30
-0.2
 70
192
 0
VERTEX
 8
CYLINDER
 10
-0.0827
 20
-0.6047
 30
-0.2
 70
192
 0
VERTEX
 8
CYLINDER
 10
-0.7473
 20
0.2088
 30
-0.2
 70
192
 0
VERTEX
 8
CYLINDER
 10
-0.0986
 20
-0.6184
 30
-0.2
 70
192
 0
VERTEX
 8
CYLINDER
 10
-0.1691
 20
-1.1002
 30
-0.2
 70
192
 0
VERTEX
 8
CYLINDER
 10
-0.0055
 20
-0.4641
 30
0.2
 70
192
 0
VERTEX
 8
CYLINDER
 10
-0.7216
 20
0.1676
 30
-0.2
 70
192
 0
VERTEX
 8
CYLINDER
 10
-0.0162
 20
-0.4983
 30
0.2
 70
192
 0
VERTEX
 8
CYLINDER
 10
-0.0271
 20
-0.525
 30
0.2
 70
192
 0
VERTEX
 8
CYLINDER
 10
-0.04
 20
-0.5499
 30
0.2
 70
192
 0
VERTEX
 8
CYLINDER
 10
-0.0548
 20
-0.5727
 30
0.2
 70
192
 0
VERTEX
 8
CYLINDER
 10
-0.0681
 20
-0.5895
 30
0.2
 70
192
 0
VERTEX
 8
CYLINDER
 10
-0.6587
 20
0.1386
 30
-0.2
 70
192
 0
VERTEX
 8
CYLINDER
 10
-0.0986
 20
-0.6184
 30
0.2
 70
192
 0
VERTEX
 8
CYLINDER
 10
-0.6269
 20
0.1376
 30
-0.2
 70
192
 0
VERTEX
 8
CYLINDER
 10
-0.1691
 20
-1.1002
 30
0.2
 70
192
 0
VERTEX
 8
CYLINDER
 10
0.1565
 20
-1.1127
 30
-0.2
 70
192
 0
VERTEX
 8
CYLINDER
 10
-0.5217
 20
0.167
 30
-0.2
 70
192
 0
VERTEX
 8
CYLINDER
 10
0.0367
 20
-0.2409
 30
-0.2
 70
192
 0
VERTEX
 8
CYLINDER
 10
-1.1499
 20
0.2399
 30
0.2
 70
192
 0
VERTEX
 8
CYLINDER
 10
0.0062
 20
-0.2361
 30
-0.2
 70
192
 0
VERTEX
 8
CYLINDER
 10
0.011
 20
-0.3076
 30
-0.2
 70
192
 0
VERTEX
 8
CYLINDER
 10
0.0095
 20
-0.3693
 30
-0.2
 70
192
 0
VERTEX
 8
CYLINDER
 10
-0.7577
 20
0.2649
 30
0.2
 70
192
 0
VERTEX
 8
CYLINDER
 10
0.0035
 20
-0.4213
 30
-0.2
 70
192
 0
VERTEX
 8
CYLINDER
 10
0.1565
 20
-1.1127
 30
0.2
 70
192
 0
VERTEX
 8
CYLINDER
 10
0.0367
 20
-0.2409
 30
0.2
 70
192
 0
VERTEX
 8
CYLINDER
 10
0.0222
 20
-0.2377
 30
0.2
 70
192
 0
VERTEX
 8
CYLINDER
 10
0.0062
 20
-0.2361
 30
0.2
 70
192
 0
VERTEX
 8
CYLINDER
 10
0.011
 20
-0.3076
 30
0.2
 70
192
 0
VERTEX
 8
CYLINDER
 10
0.0095
 20
-0.3693
 30
0.2
 70
192
 0
VERTEX
 8
CYLINDER
 10
0.0035
 20
-0.4213
 30
0.2
 70
192
 0
VERTEX
 8
CYLINDER
 10
-0.6945
 20
0.1488
 30
0.2
 70
192
 0
VERTEX
 8
CYLINDER
 10
0.3495
 20
-1.105
 30
-0.2
 70
192
 0
VERTEX
 8
CYLINDER
 10
0.2613
 20
-1.1122
 30
-0.2
 70
192
 0
VERTEX
 8
CYLINDER
 10
0.3189
 20
-1.0148
 30
-0.2
 70
192
 0
VERTEX
 8
CYLINDER
 10
0.2269
 20
-0.6281
 30
-0.2
 70
192
 0
VERTEX
 8
CYLINDER
 10
0.2066
 20
-0.6243
 30
-0.2
 70
192
 0
VERTEX
 8
CYLINDER
 10
0.1994
 20
-0.6197
 30
-0.2
 70
192
 0
VERTEX
 8
CYLINDER
 10
0.1928
 20
-0.6145
 30
-0.2
 70
192
 0
VERTEX
 8
CYLINDER
 10
0.1838
 20
-0.6059
 30
-0.2
 70
192
 0
VERTEX
 8
CYLINDER
 10
0.1759
 20
-0.5961
 30
-0.2
 70
192
 0
VERTEX
 8
CYLINDER
 10
0.1689
 20
-0.5854
 30
-0.2
 70
192
 0
VERTEX
 8
CYLINDER
 10
0.1629
 20
-0.5738
 30
-0.2
 70
192
 0
VERTEX
 8
CYLINDER
 10
0.156
 20
-0.5571
 30
-0.2
 70
192
 0
VERTEX
 8
CYLINDER
 10
0.1492
 20
-0.5345
 30
-0.2
 70
192
 0
VERTEX
 8
CYLINDER
 10
0.1382
 20
-0.4749
 30
-0.2
 70
192
 0
VERTEX
 8
CYLINDER
 10
0.1298
 20
-0.4068
 30
-0.2
 70
192
 0
VERTEX
 8
CYLINDER
 10
0.1205
 20
-0.3513
 30
-0.2
 70
192
 0
VERTEX
 8
CYLINDER
 10
0.1129
 20
-0.3235
 30
-0.2
 70
192
 0
VERTEX
 8
CYLINDER
 10
0.1065
 20
-0.3064
 30
-0.2
 70
192
 0
VERTEX
 8
CYLINDER
 10
0.0987
 20
-0.2907
 30
-0.2
 70
192
 0
VERTEX
 8
CYLINDER
 10
0.0918
 20
-0.2799
 30
-0.2
 70
192
 0
VERTEX
 8
CYLINDER
 10
0.084
 20
-0.2701
 30
-0.2
 70
192
 0
VERTEX
 8
CYLINDER
 10
0.0751
 20
-0.2614
 30
-0.2
 70
192
 0
VERTEX
 8
CYLINDER
 10
0.065
 20
-0.2537
 30
-0.2
 70
192
 0
VERTEX
 8
CYLINDER
 10
0.0577
 20
-0.2493
 30
-0.2
 70
192
 0
VERTEX
 8
CYLINDER
 10
0.0497
 20
-0.2455
 30
-0.2
 70
192
 0
VERTEX
 8
CYLINDER
 10
0.3495
 20
-1.105
 30
0.2
 70
192
 0
VERTEX
 8
CYLINDER
 10
0.2613
 20
-1.1122
 30
0.2
 70
192
 0
VERTEX
 8
CYLINDER
 10
-1.1666
 20
-0.2869
 30
0.2
 70
192
 0
VERTEX
 8
CYLINDER
 10
0.3189
 20
-1.0148
 30
0.2
 70
192
 0
VERTEX
 8
CYLINDER
 10
0.2269
 20
-0.6281
 30
0.2
 70
192
 0
VERTEX
 8
CYLINDER
 10
0.2066
 20
-0.6243
 30
0.2
 70
192
 0
VERTEX
 8
CYLINDER
 10
0.1994
 20
-0.6197
 30
0.2
 70
192
 0
VERTEX
 8
CYLINDER
 10
0.1928
 20
-0.6145
 30
0.2
 70
192
 0
VERTEX
 8
CYLINDER
 10
0.1838
 20
-0.6059
 30
0.2
 70
192
 0
VERTEX
 8
CYLINDER
 10
0.1759
 20
-0.5961
 30
0.2
 70
192
 0
VERTEX
 8
CYLINDER
 10
0.1689
 20
-0.5854
 30
0.2
 70
192
 0
VERTEX
 8
CYLINDER
 10
0.1629
 20
-0.5738
 30
0.2
 70
192
 0
VERTEX
 8
CYLINDER
 10
0.156
 20
-0.5571
 30
0.2
 70
192
 0
VERTEX
 8
CYLINDER
 10
0.1492
 20
-0.5345
 30
0.2
 70
192
 0
VERTEX
 8
CYLINDER
 10
0.1382
 20
-0.4749
 30
0.2
 70
192
 0
VERTEX
 8
CYLINDER
 10
0.1298
 20
-0.4068
 30
0.2
 70
192
 0
VERTEX
 8
CYLINDER
 10
0.1205
 20
-0.3513
 30
0.2
 70
192
 0
VERTEX
 8
CYLINDER
 10
0.1129
 20
-0.3235
 30
0.2
 70
192
 0
VERTEX
 8
CYLINDER
 10
0.1065
 20
-0.3064
 30
0.2
 70
192
 0
VERTEX
 8
CYLINDER
 10
0.0987
 20
-0.2907
 30
0.2
 70
192
 0
VERTEX
 8
CYLINDER
 10
0.0918
 20
-0.2799
 30
0.2
 70
192
 0
VERTEX
 8
CYLINDER
 10
0.084
 20
-0.2701
 30
0.2
 70
192
 0
VERTEX
 8
CYLINDER
 10
0.0751
 20
-0.2614
 30
0.2
 70
192
 0
VERTEX
 8
CYLINDER
 10
0.065
 20
-0.2537
 30
0.2
 70
192
 0
VERTEX
 8
CYLINDER
 10
0.0577
 20
-0.2493
 30
0.2
 70
192
 0
VERTEX
 8
CYLINDER
 10
0.0497
 20
-0.2455
 30
0.2
 70
192
 0
VERTEX
 8
CYLINDER
 10
-0.4095
 20
1.0233
 30
0.2
 70
192
 0
VERTEX
 8
CYLINDER
 10
0.5736
 20
-1.0571
 30
-0.2
 70
192
 0
VERTEX
 8
CYLINDER
 10
0.464
 20
-1.0861
 30
-0.2
 70
192
 0
VERTEX
 8
CYLINDER
 10
0.4114
 20
-0.9461
 30
-0.2
 70
192
 0
VERTEX
 8
CYLINDER
 10
0.4641
 20
-0.8995
 30
-0.2
 70
192
 0
VERTEX
 8
CYLINDER
 10
-0.498
 20
-0.716
 30
-0.2
 70
192
 0
VERTEX
 8
CYLINDER
 10
0.3358
 20
-0.622
 30
-0.2
 70
192
 0
VERTEX
 8
CYLINDER
 10
0.3134
 20
-0.6272
 30
-0.2
 70
192
 0
VERTEX
 8
CYLINDER
 10
0.29
 20
-0.6303
 30
-0.2
 70
192
 0
VERTEX
 8
CYLINDER
 10
0.2656
 20
-0.6313
 30
-0.2
 70
192
 0
VERTEX
 8
CYLINDER
 10
0.2401
 20
-0.6298
 30
-0.2
 70
192
 0
VERTEX
 8
CYLINDER
 10
0.5736
 20
-1.0571
 30
0.2
 70
192
 0
VERTEX
 8
CYLINDER
 10
0.464
 20
-1.0861
 30
0.2
 70
192
 0
VERTEX
 8
CYLINDER
 10
0.4114
 20
-0.9461
 30
0.2
 70
192
 0
VERTEX
 8
CYLINDER
 10
0.4641
 20
-0.8995
 30
0.2
 70
192
 0
VERTEX
 8
CYLINDER
 10
-0.4773
 20
-0.7735
 30
0.2
 70
192
 0
VERTEX
 8
CYLINDER
 10
0.3358
 20
-0.622
 30
0.2
 70
192
 0
VERTEX
 8
CYLINDER
 10
0.3134
 20
-0.6272
 30
0.2
 70
192
 0
VERTEX
 8
CYLINDER
 10
0.29
 20
-0.6303
 30
0.2
 70
192
 0
VERTEX
 8
CYLINDER
 10
0.2656
 20
-0.6313
 30
0.2
 70
192
 0
VERTEX
 8
CYLINDER
 10
0.2401
 20
-0.6298
 30
0.2
 70
192
 0
VERTEX
 8
CYLINDER
 10
-0.2818
 20
-0.6619
 30
-0.2
 70
192
 0
VERTEX
 8
CYLINDER
 10
0.7504
 20
-0.9834
 30
-0.2
 70
192
 0
VERTEX
 8
CYLINDER
 10
0.6647
 20
-1.0238
 30
-0.2
 70
192
 0
VERTEX
 8
CYLINDER
 10
0.5128
 20
-0.8491
 30
-0.2
 70
192
 0
VERTEX
 8
CYLINDER
 10
0.557
 20
-0.7941
 30
-0.2
 70
192
 0
VERTEX
 8
CYLINDER
 10
0.5916
 20
-0.7419
 30
-0.2
 70
192
 0
VERTEX
 8
CYLINDER
 10
-0.427
 20
-0.8696
 30
-0.2
 70
192
 0
VERTEX
 8
CYLINDER
 10
0.4266
 20
-0.5792
 30
-0.2
 70
192
 0
VERTEX
 8
CYLINDER
 10
0.393
 20
-0.599
 30
-0.2
 70
192
 0
VERTEX
 8
CYLINDER
 10
0.3625
 20
-0.613
 30
-0.2
 70
192
 0
VERTEX
 8
CYLINDER
 10
0.7504
 20
-0.9834
 30
0.2
 70
192
 0
VERTEX
 8
CYLINDER
 10
0.6647
 20
-1.0238
 30
0.2
 70
192
 0
VERTEX
 8
CYLINDER
 10
0.5128
 20
-0.8491
 30
0.2
 70
192
 0
VERTEX
 8
CYLINDER
 10
0.557
 20
-0.7941
 30
0.2
 70
192
 0
VERTEX
 8
CYLINDER
 10
0.5916
 20
-0.7419
 30
0.2
 70
192
 0
VERTEX
 8
CYLINDER
 10
-0.3023
 20
-0.6585
 30
0.2
 70
192
 0
VERTEX
 8
CYLINDER
 10
0.4266
 20
-0.5792
 30
0.2
 70
192
 0
VERTEX
 8
CYLINDER
 10
0.393
 20
-0.599
 30
0.2
 70
192
 0
VERTEX
 8
CYLINDER
 10
0.3625
 20
-0.613
 30
0.2
 70
192
 0
VERTEX
 8
CYLINDER
 10
0.9671
 20
-0.8236
 30
-0.2
 70
192
 0
VERTEX
 8
CYLINDER
 10
0.9121
 20
-0.8748
 30
-0.2
 70
192
 0
VERTEX
 8
CYLINDER
 10
0.8722
 20
-0.9066
 30
-0.2
 70
192
 0
VERTEX
 8
CYLINDER
 10
0.8299
 20
-0.9363
 30
-0.2
 70
192
 0
VERTEX
 8
CYLINDER
 10
0.6221
 20
-0.6856
 30
-0.2
 70
192
 0
VERTEX
 8
CYLINDER
 10
0.648
 20
-0.6247
 30
-0.2
 70
192
 0
VERTEX
 8
CYLINDER
 10
-0.5384
 20
-1.0837
 30
0.2
 70
192
 0
VERTEX
 8
CYLINDER
 10
0.5321
 20
-0.4976
 30
-0.2
 70
192
 0
VERTEX
 8
CYLINDER
 10
0.4764
 20
-0.5431
 30
-0.2
 70
192
 0
VERTEX
 8
CYLINDER
 10
0.9671
 20
-0.8236
 30
0.2
 70
192
 0
VERTEX
 8
CYLINDER
 10
0.9121
 20
-0.8748
 30
0.2
 70
192
 0
VERTEX
 8
CYLINDER
 10
0.8722
 20
-0.9066
 30
0.2
 70
192
 0
VERTEX
 8
CYLINDER
 10
0.8299
 20
-0.9363
 30
0.2
 70
192
 0
VERTEX
 8
CYLINDER
 10
-0.2223
 20
-0.6635
 30
-0.2
 70
192
 0
VERTEX
 8
CYLINDER
 10
0.6221
 20
-0.6856
 30
0.2
 70
192
 0
VERTEX
 8
CYLINDER
 10
0.648
 20
-0.6247
 30
0.2
 70
192
 0
VERTEX
 8
CYLINDER
 10
0.5321
 20
-0.4976
 30
0.2
 70
192
 0
VERTEX
 8
CYLINDER
 10
0.4764
 20
-0.5431
 30
0.2
 70
192
 0
VERTEX
 8
CYLINDER
 10
1.0812
 20
-0.6671
 30
-0.2
 70
192
 0
VERTEX
 8
CYLINDER
 10
1.051
 20
-0.7189
 30
-0.2
 70
192
 0
VERTEX
 8
CYLINDER
 10
1.0157
 20
-0.7681
 30
-0.2
 70
192
 0
VERTEX
 8
CYLINDER
 10
0.669
 20
-0.559
 30
-0.2
 70
192
 0
VERTEX
 8
CYLINDER
 10
0.6848
 20
-0.488
 30
-0.2
 70
192
 0
VERTEX
 8
CYLINDER
 10
0.695
 20
-0.4114
 30
-0.2
 70
192
 0
VERTEX
 8
CYLINDER
 10
0.6759
 20
-0.4144
 30
-0.2
 70
192
 0
VERTEX
 8
CYLINDER
 10
0.6573
 20
-0.4194
 30
-0.2
 70
192
 0
VERTEX
 8
CYLINDER
 10
0.6392
 20
-0.4262
 30
-0.2
 70
192
 0
VERTEX
 8
CYLINDER
 10
0.6171
 20
-0.437
 30
-0.2
 70
192
 0
VERTEX
 8
CYLINDER
 10
0.587
 20
-0.4556
 30
-0.2
 70
192
 0
VERTEX
 8
CYLINDER
 10
1.0812
 20
-0.6671
 30
0.2
 70
192
 0
VERTEX
 8
CYLINDER
 10
1.051
 20
-0.7189
 30
0.2
 70
192
 0
VERTEX
 8
CYLINDER
 10
1.0157
 20
-0.7681
 30
0.2
 70
192
 0
VERTEX
 8
CYLINDER
 10
-0.3889
 20
-1.1178
 30
0.2
 70
192
 0
VERTEX
 8
CYLINDER
 10
0.669
 20
-0.559
 30
0.2
 70
192
 0
VERTEX
 8
CYLINDER
 10
0.6848
 20
-0.488
 30
0.2
 70
192
 0
VERTEX
 8
CYLINDER
 10
0.695
 20
-0.4114
 30
0.2
 70
192
 0
VERTEX
 8
CYLINDER
 10
0.6759
 20
-0.4144
 30
0.2
 70
192
 0
VERTEX
 8
CYLINDER
 10
0.6573
 20
-0.4194
 30
0.2
 70
192
 0
VERTEX
 8
CYLINDER
 10
0.6392
 20
-0.4262
 30
0.2
 70
192
 0
VERTEX
 8
CYLINDER
 10
0.6171
 20
-0.437
 30
0.2
 70
192
 0
VERTEX
 8
CYLINDER
 10
0.587
 20
-0.4556
 30
0.2
 70
192
 0
VERTEX
 8
CYLINDER
 10
1.1458
 20
-0.4364
 30
-0.2
 70
192
 0
VERTEX
 8
CYLINDER
 10
1.1387
 20
-0.4974
 30
-0.2
 70
192
 0
VERTEX
 8
CYLINDER
 10
1.1254
 20
-0.5562
 30
-0.2
 70
192
 0
VERTEX
 8
CYLINDER
 10
1.1061
 20
-0.6129
 30
-0.2
 70
192
 0
VERTEX
 8
CYLINDER
 10
1.1458
 20
-0.4364
 30
0.2
 70
192
 0
VERTEX
 8
CYLINDER
 10
1.1387
 20
-0.4974
 30
0.2
 70
192
 0
VERTEX
 8
CYLINDER
 10
1.1254
 20
-0.5562
 30
0.2
 70
192
 0
VERTEX
 8
CYLINDER
 10
1.1061
 20
-0.6129
 30
0.2
 70
192
 0
VERTEX
 8
CYLINDER
 10
-0.0827
 20
-0.6047
 30
0.2
 70
192
 0
VERTEX
 8
CYLINDER
 10
1.1385
 20
-0.2955
 30
-0.2
 70
192
 0
VERTEX
 8
CYLINDER
 10
1.146
 20
-0.3705
 30
-0.2
 70
192
 0
VERTEX
 8
CYLINDER
 10
1.1468
 20
-0.4037
 30
-0.2
 70
192
 0
VERTEX
 8
CYLINDER
 10
1.1385
 20
-0.2955
 30
0.2
 70
192
 0
VERTEX
 8
CYLINDER
 10
1.146
 20
-0.3705
 30
0.2
 70
192
 0
VERTEX
 8
CYLINDER
 10
1.1468
 20
-0.4037
 30
0.2
 70
192
 0
VERTEX
 8
CYLINDER
 10
0.0222
 20
-0.2377
 30
-0.2
 70
192
 0
VERTEX
 8
CYLINDER
 10
1.0962
 20
-0.0892
 30
-0.2
 70
192
 0
VERTEX
 8
CYLINDER
 10
1.0962
 20
-0.0892
 30
0.2
 70
192
 0
VERTEX
 8
CYLINDER
 10
0.5197
 20
0.0645
 30
-0.2
 70
192
 0
VERTEX
 8
CYLINDER
 10
-0.6324
 20
0.8159
 30
-0.2
 70
192
 0
VERTEX
 8
CYLINDER
 10
1.0536
 20
0.1236
 30
-0.2
 70
192
 0
VERTEX
 8
CYLINDER
 10
1.0717
 20
0.0206
 30
-0.2
 70
192
 0
VERTEX
 8
CYLINDER
 10
-0.652
 20
-1.0275
 30
-0.2
 70
192
 0
VERTEX
 8
CYLINDER
 10
-0.3096
 20
0.437
 30
-0.2
 70
192
 0
VERTEX
 8
CYLINDER
 10
0.5197
 20
0.0645
 30
0.2
 70
192
 0
VERTEX
 8
CYLINDER
 10
-0.302
 20
0.4661
 30
-0.2
 70
192
 0
VERTEX
 8
CYLINDER
 10
1.0536
 20
0.1236
 30
0.2
 70
192
 0
VERTEX
 8
CYLINDER
 10
-0.3984
 20
-0.6122
 30
0.2
 70
192
 0
VERTEX
 8
CYLINDER
 10
1.0717
 20
0.0206
 30
0.2
 70
192
 0
VERTEX
 8
CYLINDER
 10
-0.6324
 20
0.8159
 30
0.2
 70
192
 0
VERTEX
 8
CYLINDER
 10
0.4114
 20
-0.9461
 30
0.2
 70
192
 0
VERTEX
 8
CYLINDER
 10
-0.514
 20
-0.6539
 30
0.2
 70
192
 0
VERTEX
 8
CYLINDER
 10
0.5416
 20
0.1831
 30
-0.2
 70
192
 0
VERTEX
 8
CYLINDER
 10
-0.3096
 20
0.437
 30
0.2
 70
192
 0
VERTEX
 8
CYLINDER
 10
1.0614
 20
0.3811
 30
-0.2
 70
192
 0
VERTEX
 8
CYLINDER
 10
-0.302
 20
0.4661
 30
0.2
 70
192
 0
VERTEX
 8
CYLINDER
 10
1.0522
 20
0.3384
 30
-0.2
 70
192
 0
VERTEX
 8
CYLINDER
 10
1.0484
 20
0.3111
 30
-0.2
 70
192
 0
VERTEX
 8
CYLINDER
 10
1.0457
 20
0.2774
 30
-0.2
 70
192
 0
VERTEX
 8
CYLINDER
 10
1.0455
 20
0.2118
 30
-0.2
 70
192
 0
VERTEX
 8
CYLINDER
 10
-0.6226
 20
0.7221
 30
-0.2
 70
192
 0
VERTEX
 8
CYLINDER
 10
-0.6241
 20
0.6801
 30
-0.2
 70
192
 0
VERTEX
 8
CYLINDER
 10
-0.6291
 20
0.6411
 30
-0.2
 70
192
 0
VERTEX
 8
CYLINDER
 10
0.5416
 20
0.1831
 30
0.2
 70
192
 0
VERTEX
 8
CYLINDER
 10
-0.3392
 20
-0.6474
 30
-0.2
 70
192
 0
VERTEX
 8
CYLINDER
 10
1.0614
 20
0.3811
 30
0.2
 70
192
 0
VERTEX
 8
CYLINDER
 10
-0.3589
 20
0.3213
 30
-0.2
 70
192
 0
VERTEX
 8
CYLINDER
 10
1.0522
 20
0.3384
 30
0.2
 70
192
 0
VERTEX
 8
CYLINDER
 10
1.0484
 20
0.3111
 30
0.2
 70
192
 0
VERTEX
 8
CYLINDER
 10
1.0457
 20
0.2774
 30
0.2
 70
192
 0
VERTEX
 8
CYLINDER
 10
1.0455
 20
0.2118
 30
0.2
 70
192
 0
VERTEX
 8
CYLINDER
 10
-0.3581
 20
-0.957
 30
-0.2
 70
192
 0
VERTEX
 8
CYLINDER
 10
-0.6226
 20
0.7221
 30
0.2
 70
192
 0
VERTEX
 8
CYLINDER
 10
-0.6241
 20
0.6801
 30
0.2
 70
192
 0
VERTEX
 8
CYLINDER
 10
0.5672
 20
0.2723
 30
-0.2
 70
192
 0
VERTEX
 8
CYLINDER
 10
0.5922
 20
0.3365
 30
-0.2
 70
192
 0
VERTEX
 8
CYLINDER
 10
-0.5384
 20
-1.0837
 30
-0.2
 70
192
 0
VERTEX
 8
CYLINDER
 10
1.1959
 20
0.6781
 30
-0.2
 70
192
 0
VERTEX
 8
CYLINDER
 10
1.0999
 20
0.4846
 30
-0.2
 70
192
 0
VERTEX
 8
CYLINDER
 10
1.075
 20
0.4248
 30
-0.2
 70
192
 0
VERTEX
 8
CYLINDER
 10
-0.9199
 20
0.6016
 30
-0.2
 70
192
 0
VERTEX
 8
CYLINDER
 10
0.5149
 20
0.2906
 30
-0.2
 70
192
 0
VERTEX
 8
CYLINDER
 10
-0.839
 20
0.6751
 30
-0.2
 70
192
 0
VERTEX
 8
CYLINDER
 10
-0.6555
 20
0.5489
 30
-0.2
 70
192
 0
VERTEX
 8
CYLINDER
 10
0.5672
 20
0.2723
 30
0.2
 70
192
 0
VERTEX
 8
CYLINDER
 10
0.5922
 20
0.3365
 30
0.2
 70
192
 0
VERTEX
 8
CYLINDER
 10
-0.6778
 20
0.4979
 30
-0.2
 70
192
 0
VERTEX
 8
CYLINDER
 10
-0.4556
 20
-0.8201
 30
0.2
 70
192
 0
VERTEX
 8
CYLINDER
 10
1.1959
 20
0.6781
 30
0.2
 70
192
 0
VERTEX
 8
CYLINDER
 10
1.0999
 20
0.4846
 30
0.2
 70
192
 0
VERTEX
 8
CYLINDER
 10
1.075
 20
0.4248
 30
0.2
 70
192
 0
VERTEX
 8
CYLINDER
 10
-0.9199
 20
0.6016
 30
0.2
 70
192
 0
VERTEX
 8
CYLINDER
 10
0.5149
 20
0.2906
 30
0.2
 70
192
 0
VERTEX
 8
CYLINDER
 10
-0.839
 20
0.6751
 30
0.2
 70
192
 0
VERTEX
 8
CYLINDER
 10
0.6221
 20
-0.6856
 30
-0.2
 70
192
 0
VERTEX
 8
CYLINDER
 10
-0.6555
 20
0.5489
 30
0.2
 70
192
 0
VERTEX
 8
CYLINDER
 10
0.6221
 20
0.396
 30
-0.2
 70
192
 0
VERTEX
 8
CYLINDER
 10
0.6517
 20
0.4429
 30
-0.2
 70
192
 0
VERTEX
 8
CYLINDER
 10
0.6795
 20
0.4791
 30
-0.2
 70
192
 0
VERTEX
 8
CYLINDER
 10
0.71
 20
0.5126
 30
-0.2
 70
192
 0
VERTEX
 8
CYLINDER
 10
0.7436
 20
0.5432
 30
-0.2
 70
192
 0
VERTEX
 8
CYLINDER
 10
0.7802
 20
0.5709
 30
-0.2
 70
192
 0
VERTEX
 8
CYLINDER
 10
0.82
 20
0.5957
 30
-0.2
 70
192
 0
VERTEX
 8
CYLINDER
 10
0.863
 20
0.6173
 30
-0.2
 70
192
 0
VERTEX
 8
CYLINDER
 10
0.9192
 20
0.6391
 30
-0.2
 70
192
 0
VERTEX
 8
CYLINDER
 10
0.9803
 20
0.6563
 30
-0.2
 70
192
 0
VERTEX
 8
CYLINDER
 10
1.0583
 20
0.6702
 30
-0.2
 70
192
 0
VERTEX
 8
CYLINDER
 10
1.1185
 20
0.6759
 30
-0.2
 70
192
 0
VERTEX
 8
CYLINDER
 10
-0.7575
 20
0.2896
 30
-0.2
 70
192
 0
VERTEX
 8
CYLINDER
 10
-0.7579
 20
0.2798
 30
-0.2
 70
192
 0
VERTEX
 8
CYLINDER
 10
-0.2181
 20
-1.071
 30
-0.2
 70
192
 0
VERTEX
 8
CYLINDER
 10
0.6221
 20
0.396
 30
0.2
 70
192
 0
VERTEX
 8
CYLINDER
 10
0.6517
 20
0.4429
 30
0.2
 70
192
 0
VERTEX
 8
CYLINDER
 10
0.6795
 20
0.4791
 30
0.2
 70
192
 0
VERTEX
 8
CYLINDER
 10
0.71
 20
0.5126
 30
0.2
 70
192
 0
VERTEX
 8
CYLINDER
 10
0.7436
 20
0.5432
 30
0.2
 70
192
 0
VERTEX
 8
CYLINDER
 10
0.7802
 20
0.5709
 30
0.2
 70
192
 0
VERTEX
 8
CYLINDER
 10
0.82
 20
0.5957
 30
0.2
 70
192
 0
VERTEX
 8
CYLINDER
 10
0.863
 20
0.6173
 30
0.2
 70
192
 0
VERTEX
 8
CYLINDER
 10
0.9192
 20
0.6391
 30
0.2
 70
192
 0
VERTEX
 8
CYLINDER
 10
0.9803
 20
0.6563
 30
0.2
 70
192
 0
VERTEX
 8
CYLINDER
 10
1.0583
 20
0.6702
 30
0.2
 70
192
 0
VERTEX
 8
CYLINDER
 10
1.1185
 20
0.6759
 30
0.2
 70
192
 0
VERTEX
 8
CYLINDER
 10
-0.7575
 20
0.2896
 30
0.2
 70
192
 0
VERTEX
 8
CYLINDER
 10
-0.7579
 20
0.2798
 30
0.2
 70
192
 0
VERTEX
 8
CYLINDER
 10
-0.2588
 20
-1.0434
 30
0.2
 70
192
 0
VERTEX
 8
CYLINDER
 10
0.4967
 20
0.5001
 30
-0.2
 70
192
 0
VERTEX
 8
CYLINDER
 10
-0.2181
 20
-1.071
 30
0.2
 70
192
 0
VERTEX
 8
CYLINDER
 10
0.4967
 20
0.5001
 30
0.2
 70
192
 0
VERTEX
 8
CYLINDER
 10
-0.4606
 20
0.2035
 30
0.2
 70
192
 0
VERTEX
 8
CYLINDER
 10
-0.4473
 20
0.2139
 30
0.2
 70
192
 0
VERTEX
 8
CYLINDER
 10
0.4443
 20
0.7446
 30
-0.2
 70
192
 0
VERTEX
 8
CYLINDER
 10
-0.4321
 20
0.2273
 30
0.2
 70
192
 0
VERTEX
 8
CYLINDER
 10
0.4711
 20
0.6458
 30
-0.2
 70
192
 0
VERTEX
 8
CYLINDER
 10
0.669
 20
-0.559
 30
0.2
 70
192
 0
VERTEX
 8
CYLINDER
 10
0.4443
 20
0.7446
 30
0.2
 70
192
 0
VERTEX
 8
CYLINDER
 10
-1.121
 20
0.3139
 30
-0.2
 70
192
 0
VERTEX
 8
CYLINDER
 10
0.4711
 20
0.6458
 30
0.2
 70
192
 0
VERTEX
 8
CYLINDER
 10
-0.04
 20
-0.5499
 30
-0.2
 70
192
 0
VERTEX
 8
CYLINDER
 10
0.3532
 20
0.9354
 30
-0.2
 70
192
 0
VERTEX
 8
CYLINDER
 10
0.3832
 20
0.8875
 30
-0.2
 70
192
 0
VERTEX
 8
CYLINDER
 10
0.4143
 20
0.8246
 30
-0.2
 70
192
 0
VERTEX
 8
CYLINDER
 10
-0.7473
 20
0.2088
 30
-0.2
 70
192
 0
VERTEX
 8
CYLINDER
 10
0.3532
 20
0.9354
 30
0.2
 70
192
 0
VERTEX
 8
CYLINDER
 10
-0.7421
 20
0.1966
 30
-0.2
 70
192
 0
VERTEX
 8
CYLINDER
 10
0.3832
 20
0.8875
 30
0.2
 70
192
 0
VERTEX
 8
CYLINDER
 10
0.4143
 20
0.8246
 30
0.2
 70
192
 0
VERTEX
 8
CYLINDER
 10
-0.7216
 20
0.1676
 30
-0.2
 70
192
 0
VERTEX
 8
CYLINDER
 10
0.1908
 20
1.0773
 30
-0.2
 70
192
 0
VERTEX
 8
CYLINDER
 10
0.2291
 20
1.056
 30
-0.2
 70
192
 0
VERTEX
 8
CYLINDER
 10
0.2644
 20
1.031
 30
-0.2
 70
192
 0
VERTEX
 8
CYLINDER
 10
0.2968
 20
1.0024
 30
-0.2
 70
192
 0
VERTEX
 8
CYLINDER
 10
0.3263
 20
0.9705
 30
-0.2
 70
192
 0
VERTEX
 8
CYLINDER
 10
-0.6736
 20
0.1414
 30
-0.2
 70
192
 0
VERTEX
 8
CYLINDER
 10
-0.6587
 20
0.1386
 30
-0.2
 70
192
 0
VERTEX
 8
CYLINDER
 10
0.1908
 20
1.0773
 30
0.2
 70
192
 0
VERTEX
 8
CYLINDER
 10
0.2291
 20
1.056
 30
0.2
 70
192
 0
VERTEX
 8
CYLINDER
 10
0.2644
 20
1.031
 30
0.2
 70
192
 0
VERTEX
 8
CYLINDER
 10
0.2968
 20
1.0024
 30
0.2
 70
192
 0
VERTEX
 8
CYLINDER
 10
0.3263
 20
0.9705
 30
0.2
 70
192
 0
VERTEX
 8
CYLINDER
 10
-0.5217
 20
0.167
 30
-0.2
 70
192
 0
VERTEX
 8
CYLINDER
 10
0.0563
 20
1.1164
 30
-0.2
 70
192
 0
VERTEX
 8
CYLINDER
 10
0.1045
 20
1.1077
 30
-0.2
 70
192
 0
VERTEX
 8
CYLINDER
 10
0.1493
 20
1.0946
 30
-0.2
 70
192
 0
VERTEX
 8
CYLINDER
 10
-1.086
 20
0.3839
 30
0.2
 70
192
 0
VERTEX
 8
CYLINDER
 10
0.0563
 20
1.1164
 30
0.2
 70
192
 0
VERTEX
 8
CYLINDER
 10
0.1045
 20
1.1077
 30
0.2
 70
192
 0
VERTEX
 8
CYLINDER
 10
0.1493
 20
1.0946
 30
0.2
 70
192
 0
VERTEX
 8
CYLINDER
 10
-0.7515
 20
0.2223
 30
0.2
 70
192
 0
VERTEX
 8
CYLINDER
 10
-0.0992
 20
1.121
 30
-0.2
 70
192
 0
VERTEX
 8
CYLINDER
 10
-0.0131
 20
1.1215
 30
-0.2
 70
192
 0
VERTEX
 8
CYLINDER
 10
-0.7361
 20
0.1857
 30
0.2
 70
192
 0
VERTEX
 8
CYLINDER
 10
-0.0992
 20
1.121
 30
0.2
 70
192
 0
VERTEX
 8
CYLINDER
 10
-0.0131
 20
1.1215
 30
0.2
 70
192
 0
VERTEX
 8
CYLINDER
 10
-0.7132
 20
0.1602
 30
0.2
 70
192
 0
VERTEX
 8
CYLINDER
 10
-0.374
 20
1.0623
 30
-0.2
 70
192
 0
VERTEX
 8
CYLINDER
 10
-0.3601
 20
1.0703
 30
-0.2
 70
192
 0
VERTEX
 8
CYLINDER
 10
-0.3404
 20
1.0794
 30
-0.2
 70
192
 0
VERTEX
 8
CYLINDER
 10
-0.3091
 20
1.0905
 30
-0.2
 70
192
 0
VERTEX
 8
CYLINDER
 10
-0.2584
 20
1.1031
 30
-0.2
 70
192
 0
VERTEX
 8
CYLINDER
 10
-0.2029
 20
1.1123
 30
-0.2
 70
192
 0
VERTEX
 8
CYLINDER
 10
-0.6269
 20
0.1376
 30
0.2
 70
192
 0
VERTEX
 8
CYLINDER
 10
-0.374
 20
1.0623
 30
0.2
 70
192
 0
VERTEX
 8
CYLINDER
 10
-0.3601
 20
1.0703
 30
0.2
 70
192
 0
VERTEX
 8
CYLINDER
 10
-0.3404
 20
1.0794
 30
0.2
 70
192
 0
VERTEX
 8
CYLINDER
 10
-0.3091
 20
1.0905
 30
0.2
 70
192
 0
VERTEX
 8
CYLINDER
 10
-0.2584
 20
1.1031
 30
0.2
 70
192
 0
VERTEX
 8
CYLINDER
 10
-0.2029
 20
1.1123
 30
0.2
 70
192
 0
VERTEX
 8
CYLINDER
 10
-1.1724
 20
0.1617
 30
-0.2
 70
192
 0
VERTEX
 8
CYLINDER
 10
-0.2919
 20
0.5206
 30
-0.2
 70
192
 0
VERTEX
 8
CYLINDER
 10
-0.2874
 20
0.5709
 30
-0.2
 70
192
 0
VERTEX
 8
CYLINDER
 10
-0.2873
 20
0.6228
 30
-0.2
 70
192
 0
VERTEX
 8
CYLINDER
 10
-0.292
 20
0.6758
 30
-0.2
 70
192
 0
VERTEX
 8
CYLINDER
 10
-0.3018
 20
0.7296
 30
-0.2
 70
192
 0
VERTEX
 8
CYLINDER
 10
-0.3087
 20
0.7568
 30
-0.2
 70
192
 0
VERTEX
 8
CYLINDER
 10
-0.3194
 20
0.7908
 30
-0.2
 70
192
 0
VERTEX
 8
CYLINDER
 10
-0.3282
 20
0.8127
 30
-0.2
 70
192
 0
VERTEX
 8
CYLINDER
 10
-0.3547
 20
0.8635
 30
-0.2
 70
192
 0
VERTEX
 8
CYLINDER
 10
-0.385
 20
0.9173
 30
-0.2
 70
192
 0
VERTEX
 8
CYLINDER
 10
-0.4005
 20
0.9495
 30
-0.2
 70
192
 0
VERTEX
 8
CYLINDER
 10
-0.4076
 20
0.9685
 30
-0.2
 70
192
 0
VERTEX
 8
CYLINDER
 10
-0.4112
 20
0.9821
 30
-0.2
 70
192
 0
VERTEX
 8
CYLINDER
 10
-0.4129
 20
0.9931
 30
-0.2
 70
192
 0
VERTEX
 8
CYLINDER
 10
-0.4133
 20
1.0016
 30
-0.2
 70
192
 0
VERTEX
 8
CYLINDER
 10
-0.413
 20
1.0078
 30
-0.2
 70
192
 0
VERTEX
 8
CYLINDER
 10
-0.4122
 20
1.0137
 30
-0.2
 70
192
 0
VERTEX
 8
CYLINDER
 10
-0.4107
 20
1.0195
 30
-0.2
 70
192
 0
VERTEX
 8
CYLINDER
 10
-0.4095
 20
1.0233
 30
-0.2
 70
192
 0
VERTEX
 8
CYLINDER
 10
-0.407
 20
1.0288
 30
-0.2
 70
192
 0
VERTEX
 8
CYLINDER
 10
-0.4039
 20
1.0341
 30
-0.2
 70
192
 0
VERTEX
 8
CYLINDER
 10
-0.4003
 20
1.0392
 30
-0.2
 70
192
 0
VERTEX
 8
CYLINDER
 10
-0.3937
 20
1.0466
 30
-0.2
 70
192
 0
VERTEX
 8
CYLINDER
 10
-0.386
 20
1.0536
 30
-0.2
 70
192
 0
VERTEX
 8
CYLINDER
 10
-0.957
 20
-0.7317
 30
-0.2
 70
192
 0
VERTEX
 8
CYLINDER
 10
-0.2919
 20
0.5206
 30
0.2
 70
192
 0
VERTEX
 8
CYLINDER
 10
-0.2874
 20
0.5709
 30
0.2
 70
192
 0
VERTEX
 8
CYLINDER
 10
-0.2873
 20
0.6228
 30
0.2
 70
192
 0
VERTEX
 8
CYLINDER
 10
-0.292
 20
0.6758
 30
0.2
 70
192
 0
VERTEX
 8
CYLINDER
 10
-0.3018
 20
0.7296
 30
0.2
 70
192
 0
VERTEX
 8
CYLINDER
 10
-0.3087
 20
0.7568
 30
0.2
 70
192
 0
VERTEX
 8
CYLINDER
 10
-0.3194
 20
0.7908
 30
0.2
 70
192
 0
VERTEX
 8
CYLINDER
 10
-0.3282
 20
0.8127
 30
0.2
 70
192
 0
VERTEX
 8
CYLINDER
 10
-0.3547
 20
0.8635
 30
0.2
 70
192
 0
VERTEX
 8
CYLINDER
 10
-0.385
 20
0.9173
 30
0.2
 70
192
 0
VERTEX
 8
CYLINDER
 10
-0.4005
 20
0.9495
 30
0.2
 70
192
 0
VERTEX
 8
CYLINDER
 10
-0.4076
 20
0.9685
 30
0.2
 70
192
 0
VERTEX
 8
CYLINDER
 10
-0.4112
 20
0.9821
 30
0.2
 70
192
 0
VERTEX
 8
CYLINDER
 10
-0.4129
 20
0.9931
 30
0.2
 70
192
 0
VERTEX
 8
CYLINDER
 10
-0.4133
 20
1.0016
 30
0.2
 70
192
 0
VERTEX
 8
CYLINDER
 10
-0.413
 20
1.0078
 30
0.2
 70
192
 0
VERTEX
 8
CYLINDER
 10
-0.4122
 20
1.0137
 30
0.2
 70
192
 0
VERTEX
 8
CYLINDER
 10
-0.4107
 20
1.0195
 30
0.2
 70
192
 0
VERTEX
 8
CYLINDER
 10
-0.4095
 20
1.0233
 30
0.2
 70
192
 0
VERTEX
 8
CYLINDER
 10
-0.407
 20
1.0288
 30
0.2
 70
192
 0
VERTEX
 8
CYLINDER
 10
-0.4039
 20
1.0341
 30
0.2
 70
192
 0
VERTEX
 8
CYLINDER
 10
-0.4003
 20
1.0392
 30
0.2
 70
192
 0
VERTEX
 8
CYLINDER
 10
-0.3937
 20
1.0466
 30
0.2
 70
192
 0
VERTEX
 8
CYLINDER
 10
-0.386
 20
1.0536
 30
0.2
 70
192
 0
VERTEX
 8
CYLINDER
 10
-0.498
 20
-0.716
 30
-0.2
 70
192
 0
VERTEX
 8
CYLINDER
 10
-0.4773
 20
-0.7735
 30
-0.2
 70
192
 0
VERTEX
 8
CYLINDER
 10
0.3358
 20
-0.622
 30
-0.2
 70
192
 0
VERTEX
 8
CYLINDER
 10
-0.6252
 20
0.7672
 30
-0.2
 70
192
 0
VERTEX
 8
CYLINDER
 10
0.3134
 20
-0.6272
 30
-0.2
 70
192
 0
VERTEX
 8
CYLINDER
 10
0.29
 20
-0.6303
 30
-0.2
 70
192
 0
VERTEX
 8
CYLINDER
 10
-0.3187
 20
0.4089
 30
-0.2
 70
192
 0
VERTEX
 8
CYLINDER
 10
0.2401
 20
-0.6298
 30
-0.2
 70
192
 0
VERTEX
 8
CYLINDER
 10
-0.1158
 20
-0.6305
 30
0.2
 70
192
 0
VERTEX
 8
CYLINDER
 10
-1.0393
 20
0.459
 30
0.2
 70
192
 0
VERTEX
 8
CYLINDER
 10
-0.4188
 20
-0.5949
 30
0.2
 70
192
 0
VERTEX
 8
CYLINDER
 10
-0.6252
 20
0.7672
 30
0.2
 70
192
 0
VERTEX
 8
CYLINDER
 10
-0.741
 20
0.3642
 30
0.2
 70
192
 0
VERTEX
 8
CYLINDER
 10
-0.3187
 20
0.4089
 30
0.2
 70
192
 0
VERTEX
 8
CYLINDER
 10
-0.4773
 20
-0.7735
 30
0.2
 70
192
 0
VERTEX
 8
CYLINDER
 10
0.3358
 20
-0.622
 30
0.2
 70
192
 0
VERTEX
 8
CYLINDER
 10
-0.652
 20
-1.0275
 30
0.2
 70
192
 0
VERTEX
 8
CYLINDER
 10
-0.7431
 20
0.7472
 30
-0.2
 70
192
 0
VERTEX
 8
CYLINDER
 10
0.2656
 20
-0.6313
 30
0.2
 70
192
 0
VERTEX
 8
CYLINDER
 10
-0.2479
 20
-0.6642
 30
-0.2
 70
192
 0
VERTEX
 8
CYLINDER
 10
-0.2818
 20
-0.6619
 30
-0.2
 70
192
 0
VERTEX
 8
CYLINDER
 10
-0.3023
 20
-0.6585
 30
-0.2
 70
192
 0
VERTEX
 8
CYLINDER
 10
-0.6387
 20
0.5988
 30
-0.2
 70
192
 0
VERTEX
 8
CYLINDER
 10
0.6647
 20
-1.0238
 30
-0.2
 70
192
 0
VERTEX
 8
CYLINDER
 10
-0.3586
 20
-0.6384
 30
-0.2
 70
192
 0
VERTEX
 8
CYLINDER
 10
-0.3383
 20
0.3608
 30
-0.2
 70
192
 0
VERTEX
 8
CYLINDER
 10
-0.4556
 20
-0.8201
 30
-0.2
 70
192
 0
VERTEX
 8
CYLINDER
 10
-0.7431
 20
0.7472
 30
0.2
 70
192
 0
VERTEX
 8
CYLINDER
 10
-0.3943
 20
-0.9151
 30
-0.2
 70
192
 0
VERTEX
 8
CYLINDER
 10
0.393
 20
-0.599
 30
-0.2
 70
192
 0
VERTEX
 8
CYLINDER
 10
0.3625
 20
-0.613
 30
-0.2
 70
192
 0
VERTEX
 8
CYLINDER
 10
-0.0986
 20
-0.6184
 30
-0.2
 70
192
 0
VERTEX
 8
CYLINDER
 10
-0.6291
 20
0.6411
 30
0.2
 70
192
 0
VERTEX
 8
CYLINDER
 10
-0.6387
 20
0.5988
 30
0.2
 70
192
 0
VERTEX
 8
CYLINDER
 10
0.6647
 20
-1.0238
 30
0.2
 70
192
 0
VERTEX
 8
CYLINDER
 10
-0.3589
 20
0.3213
 30
0.2
 70
192
 0
VERTEX
 8
CYLINDER
 10
-0.3383
 20
0.3608
 30
0.2
 70
192
 0
VERTEX
 8
CYLINDER
 10
0.557
 20
-0.7941
 30
0.2
 70
192
 0
VERTEX
 8
CYLINDER
 10
-0.2479
 20
-0.6642
 30
0.2
 70
192
 0
VERTEX
 8
CYLINDER
 10
-0.2818
 20
-0.6619
 30
0.2
 70
192
 0
VERTEX
 8
CYLINDER
 10
-0.3023
 20
-0.6585
 30
0.2
 70
192
 0
VERTEX
 8
CYLINDER
 10
-0.3214
 20
-0.6537
 30
0.2
 70
192
 0
VERTEX
 8
CYLINDER
 10
-0.3392
 20
-0.6474
 30
0.2
 70
192
 0
VERTEX
 8
CYLINDER
 10
-0.3586
 20
-0.6384
 30
0.2
 70
192
 0
VERTEX
 8
CYLINDER
 10
0.3625
 20
-0.613
 30
0.2
 70
192
 0
VERTEX
 8
CYLINDER
 10
0.9671
 20
-0.8236
 30
-0.2
 70
192
 0
VERTEX
 8
CYLINDER
 10
-0.4079
 20
0.2525
 30
-0.2
 70
192
 0
VERTEX
 8
CYLINDER
 10
-0.3822
 20
0.2851
 30
-0.2
 70
192
 0
VERTEX
 8
CYLINDER
 10
-0.3943
 20
-0.9151
 30
0.2
 70
192
 0
VERTEX
 8
CYLINDER
 10
-0.3581
 20
-0.957
 30
0.2
 70
192
 0
VERTEX
 8
CYLINDER
 10
0.8299
 20
-0.9363
 30
-0.2
 70
192
 0
VERTEX
 8
CYLINDER
 10
-1.1499
 20
0.2399
 30
0.2
 70
192
 0
VERTEX
 8
CYLINDER
 10
-0.4321
 20
-1.1127
 30
0.2
 70
192
 0
VERTEX
 8
CYLINDER
 10
-0.4797
 20
-1.1025
 30
0.2
 70
192
 0
VERTEX
 8
CYLINDER
 10
-0.6778
 20
0.4979
 30
0.2
 70
192
 0
VERTEX
 8
CYLINDER
 10
-0.5959
 20
-1.0586
 30
0.2
 70
192
 0
VERTEX
 8
CYLINDER
 10
0.5321
 20
-0.4976
 30
-0.2
 70
192
 0
VERTEX
 8
CYLINDER
 10
-0.4079
 20
0.2525
 30
0.2
 70
192
 0
VERTEX
 8
CYLINDER
 10
-0.3822
 20
0.2851
 30
0.2
 70
192
 0
VERTEX
 8
CYLINDER
 10
-0.1343
 20
-0.6408
 30
-0.2
 70
192
 0
VERTEX
 8
CYLINDER
 10
-1.0393
 20
0.459
 30
-0.2
 70
192
 0
VERTEX
 8
CYLINDER
 10
-0.9863
 20
0.5289
 30
-0.2
 70
192
 0
VERTEX
 8
CYLINDER
 10
-0.1982
 20
-0.6608
 30
-0.2
 70
192
 0
VERTEX
 8
CYLINDER
 10
-0.741
 20
0.3642
 30
-0.2
 70
192
 0
VERTEX
 8
CYLINDER
 10
-0.7497
 20
0.3368
 30
-0.2
 70
192
 0
VERTEX
 8
CYLINDER
 10
-0.7547
 20
0.3135
 30
-0.2
 70
192
 0
VERTEX
 8
CYLINDER
 10
-0.2588
 20
-1.0434
 30
-0.2
 70
192
 0
VERTEX
 8
CYLINDER
 10
0.5321
 20
-0.4976
 30
0.2
 70
192
 0
VERTEX
 8
CYLINDER
 10
-0.6736
 20
0.1414
 30
0.2
 70
192
 0
VERTEX
 8
CYLINDER
 10
-0.4899
 20
0.184
 30
-0.2
 70
192
 0
VERTEX
 8
CYLINDER
 10
-0.4606
 20
0.2035
 30
-0.2
 70
192
 0
VERTEX
 8
CYLINDER
 10
-0.4473
 20
0.2139
 30
-0.2
 70
192
 0
VERTEX
 8
CYLINDER
 10
-0.4321
 20
0.2273
 30
-0.2
 70
192
 0
VERTEX
 8
CYLINDER
 10
-0.6062
 20
0.1399
 30
0.2
 70
192
 0
VERTEX
 8
CYLINDER
 10
-0.5808
 20
0.1453
 30
0.2
 70
192
 0
VERTEX
 8
CYLINDER
 10
-0.551
 20
0.1547
 30
0.2
 70
192
 0
VERTEX
 8
CYLINDER
 10
-0.9863
 20
0.5289
 30
0.2
 70
192
 0
VERTEX
 8
CYLINDER
 10
-0.1755
 20
-0.6561
 30
0.2
 70
192
 0
VERTEX
 8
CYLINDER
 10
-0.1982
 20
-0.6608
 30
0.2
 70
192
 0
VERTEX
 8
CYLINDER
 10
-1.1879
 20
0.0793
 30
-0.2
 70
192
 0
VERTEX
 8
CYLINDER
 10
-0.7497
 20
0.3368
 30
0.2
 70
192
 0
VERTEX
 8
CYLINDER
 10
-0.7547
 20
0.3135
 30
0.2
 70
192
 0
VERTEX
 8
CYLINDER
 10
-0.3132
 20
-1.0001
 30
0.2
 70
192
 0
VERTEX
 8
CYLINDER
 10
-1.1724
 20
0.1617
 30
0.2
 70
192
 0
VERTEX
 8
CYLINDER
 10
1.0812
 20
-0.6671
 30
0.2
 70
192
 0
VERTEX
 8
CYLINDER
 10
-0.4899
 20
0.184
 30
0.2
 70
192
 0
VERTEX
 8
CYLINDER
 10
-0.2952
 20
-1.1164
 30
0.2
 70
192
 0
VERTEX
 8
CYLINDER
 10
-0.3504
 20
-1.1191
 30
0.2
 70
192
 0
VERTEX
 8
CYLINDER
 10
-0.3889
 20
-1.1178
 30
0.2
 70
192
 0
VERTEX
 8
CYLINDER
 10
0.0987
 20
-0.2907
 30
-0.2
 70
192
 0
VERTEX
 8
CYLINDER
 10
-1.1499
 20
0.2399
 30
-0.2
 70
192
 0
VERTEX
 8
CYLINDER
 10
-0.0162
 20
-0.4983
 30
-0.2
 70
192
 0
VERTEX
 8
CYLINDER
 10
-1.086
 20
0.3839
 30
-0.2
 70
192
 0
VERTEX
 8
CYLINDER
 10
0.6573
 20
-0.4194
 30
0.2
 70
192
 0
VERTEX
 8
CYLINDER
 10
-0.7577
 20
0.2649
 30
-0.2
 70
192
 0
VERTEX
 8
CYLINDER
 10
-0.7555
 20
0.2423
 30
-0.2
 70
192
 0
VERTEX
 8
CYLINDER
 10
-0.7515
 20
0.2223
 30
-0.2
 70
192
 0
VERTEX
 8
CYLINDER
 10
0.3495
 20
-1.105
 30
0.2
 70
192
 0
VERTEX
 8
CYLINDER
 10
-0.7361
 20
0.1857
 30
-0.2
 70
192
 0
VERTEX
 8
CYLINDER
 10
-0.7292
 20
0.1761
 30
-0.2
 70
192
 0
VERTEX
 8
CYLINDER
 10
1.1061
 20
-0.6129
 30
-0.2
 70
192
 0
VERTEX
 8
CYLINDER
 10
-0.0055
 20
-0.4641
 30
0.2
 70
192
 0
VERTEX
 8
CYLINDER
 10
-0.7132
 20
0.1602
 30
-0.2
 70
192
 0
VERTEX
 8
CYLINDER
 10
-0.7042
 20
0.154
 30
-0.2
 70
192
 0
VERTEX
 8
CYLINDER
 10
-0.6945
 20
0.1488
 30
-0.2
 70
192
 0
VERTEX
 8
CYLINDER
 10
-0.6843
 20
0.1446
 30
-0.2
 70
192
 0
VERTEX
 8
CYLINDER
 10
-0.0681
 20
-0.5895
 30
0.2
 70
192
 0
VERTEX
 8
CYLINDER
 10
-0.0827
 20
-0.6047
 30
0.2
 70
192
 0
VERTEX
 8
CYLINDER
 10
-0.6431
 20
0.1374
 30
-0.2
 70
192
 0
VERTEX
 8
CYLINDER
 10
-0.6269
 20
0.1376
 30
-0.2
 70
192
 0
VERTEX
 8
CYLINDER
 10
-0.6062
 20
0.1399
 30
-0.2
 70
192
 0
VERTEX
 8
CYLINDER
 10
-0.5808
 20
0.1453
 30
-0.2
 70
192
 0
VERTEX
 8
CYLINDER
 10
-0.551
 20
0.1547
 30
-0.2
 70
192
 0
VERTEX
 8
CYLINDER
 10
1.146
 20
-0.3705
 30
0.2
 70
192
 0
VERTEX
 8
CYLINDER
 10
0.0367
 20
-0.2409
 30
-0.2
 70
192
 0
VERTEX
 8
CYLINDER
 10
-0.8588
 20
-0.8536
 30
-0.2
 70
192
 0
VERTEX
 8
CYLINDER
 10
-1.121
 20
0.3139
 30
0.2
 70
192
 0
VERTEX
 8
CYLINDER
 10
0.011
 20
-0.3076
 30
-0.2
 70
192
 0
VERTEX
 8
CYLINDER
 10
0.0095
 20
-0.3693
 30
-0.2
 70
192
 0
VERTEX
 8
CYLINDER
 10
-0.7577
 20
0.2649
 30
0.2
 70
192
 0
VERTEX
 8
CYLINDER
 10
-0.7555
 20
0.2423
 30
0.2
 70
192
 0
VERTEX
 8
CYLINDER
 10
-0.7901
 20
-0.9225
 30
0.2
 70
192
 0
VERTEX
 8
CYLINDER
 10
0.1565
 20
-1.1127
 30
0.2
 70
192
 0
VERTEX
 8
CYLINDER
 10
-0.7473
 20
0.2088
 30
0.2
 70
192
 0
VERTEX
 8
CYLINDER
 10
-0.7421
 20
0.1966
 30
0.2
 70
192
 0
VERTEX
 8
CYLINDER
 10
0.0222
 20
-0.2377
 30
0.2
 70
192
 0
VERTEX
 8
CYLINDER
 10
-0.7292
 20
0.1761
 30
0.2
 70
192
 0
VERTEX
 8
CYLINDER
 10
-0.7216
 20
0.1676
 30
0.2
 70
192
 0
VERTEX
 8
CYLINDER
 10
0.0095
 20
-0.3693
 30
0.2
 70
192
 0
VERTEX
 8
CYLINDER
 10
-0.7042
 20
0.154
 30
0.2
 70
192
 0
VERTEX
 8
CYLINDER
 10
-0.6945
 20
0.1488
 30
0.2
 70
192
 0
VERTEX
 8
CYLINDER
 10
-0.6843
 20
0.1446
 30
0.2
 70
192
 0
VERTEX
 8
CYLINDER
 10
0.4764
 20
-0.5431
 30
0.2
 70
192
 0
VERTEX
 8
CYLINDER
 10
-0.6587
 20
0.1386
 30
0.2
 70
192
 0
VERTEX
 8
CYLINDER
 10
-0.6431
 20
0.1374
 30
0.2
 70
192
 0
VERTEX
 8
CYLINDER
 10
-0.3889
 20
-1.1178
 30
-0.2
 70
192
 0
VERTEX
 8
CYLINDER
 10
0.2269
 20
-0.6281
 30
-0.2
 70
192
 0
VERTEX
 8
CYLINDER
 10
-0.3767
 20
-0.6278
 30
0.2
 70
192
 0
VERTEX
 8
CYLINDER
 10
-0.5217
 20
0.167
 30
0.2
 70
192
 0
VERTEX
 8
CYLINDER
 10
0.1838
 20
-0.6059
 30
-0.2
 70
192
 0
VERTEX
 8
CYLINDER
 10
0.1689
 20
-0.5854
 30
-0.2
 70
192
 0
VERTEX
 8
CYLINDER
 10
0.1629
 20
-0.5738
 30
-0.2
 70
192
 0
VERTEX
 8
CYLINDER
 10
-1.1879
 20
0.0793
 30
0.2
 70
192
 0
VERTEX
 8
CYLINDER
 10
0.1382
 20
-0.4749
 30
-0.2
 70
192
 0
VERTEX
 8
CYLINDER
 10
-1.1855
 20
-0.1973
 30
-0.2
 70
192
 0
VERTEX
 8
CYLINDER
 10
-1.1922
 20
-0.1472
 30
-0.2
 70
192
 0
VERTEX
 8
CYLINDER
 10
-1.1959
 20
-0.0983
 30
-0.2
 70
192
 0
VERTEX
 8
CYLINDER
 10
-1.1959
 20
-0.0073
 30
-0.2
 70
192
 0
VERTEX
 8
CYLINDER
 10
0.7504
 20
-0.9834
 30
-0.2
 70
192
 0
VERTEX
 8
CYLINDER
 10
-1.1855
 20
-0.1973
 30
0.2
 70
192
 0
VERTEX
 8
CYLINDER
 10
-1.1922
 20
-0.1472
 30
0.2
 70
192
 0
VERTEX
 8
CYLINDER
 10
-1.1959
 20
-0.0983
 30
0.2
 70
192
 0
VERTEX
 8
CYLINDER
 10
-1.1959
 20
-0.0073
 30
0.2
 70
192
 0
VERTEX
 8
CYLINDER
 10
0.0577
 20
-0.2493
 30
-0.2
 70
192
 0
VERTEX
 8
CYLINDER
 10
-1.1348
 20
-0.3911
 30
-0.2
 70
192
 0
VERTEX
 8
CYLINDER
 10
-1.1666
 20
-0.2869
 30
-0.2
 70
192
 0
VERTEX
 8
CYLINDER
 10
-0.5322
 20
-0.4865
 30
0.2
 70
192
 0
VERTEX
 8
CYLINDER
 10
-1.1348
 20
-0.3911
 30
0.2
 70
192
 0
VERTEX
 8
CYLINDER
 10
-1.1666
 20
-0.2869
 30
0.2
 70
192
 0
VERTEX
 8
CYLINDER
 10
0.3189
 20
-1.0148
 30
0.2
 70
192
 0
VERTEX
 8
CYLINDER
 10
-1.0868
 20
-0.5083
 30
-0.2
 70
192
 0
VERTEX
 8
CYLINDER
 10
-0.0162
 20
-0.4983
 30
0.2
 70
192
 0
VERTEX
 8
CYLINDER
 10
0.2269
 20
-0.6281
 30
0.2
 70
192
 0
VERTEX
 8
CYLINDER
 10
-1.0868
 20
-0.5083
 30
0.2
 70
192
 0
VERTEX
 8
CYLINDER
 10
0.1994
 20
-0.6197
 30
0.2
 70
192
 0
VERTEX
 8
CYLINDER
 10
0.1928
 20
-0.6145
 30
0.2
 70
192
 0
VERTEX
 8
CYLINDER
 10
-1.0271
 20
-0.6227
 30
-0.2
 70
192
 0
VERTEX
 8
CYLINDER
 10
0.1759
 20
-0.5961
 30
0.2
 70
192
 0
VERTEX
 8
CYLINDER
 10
-0.957
 20
-0.7317
 30
0.2
 70
192
 0
VERTEX
 8
CYLINDER
 10
-1.0271
 20
-0.6227
 30
0.2
 70
192
 0
VERTEX
 8
CYLINDER
 10
0.156
 20
-0.5571
 30
0.2
 70
192
 0
VERTEX
 8
CYLINDER
 10
-0.5322
 20
-0.4865
 30
-0.2
 70
192
 0
VERTEX
 8
CYLINDER
 10
-0.5263
 20
-0.5783
 30
-0.2
 70
192
 0
VERTEX
 8
CYLINDER
 10
0.1382
 20
-0.4749
 30
0.2
 70
192
 0
VERTEX
 8
CYLINDER
 10
-0.7901
 20
-0.9225
 30
-0.2
 70
192
 0
VERTEX
 8
CYLINDER
 10
0.1205
 20
-0.3513
 30
0.2
 70
192
 0
VERTEX
 8
CYLINDER
 10
-0.905
 20
-0.8001
 30
-0.2
 70
192
 0
VERTEX
 8
CYLINDER
 10
0.0987
 20
-0.2907
 30
0.2
 70
192
 0
VERTEX
 8
CYLINDER
 10
0.5736
 20
-1.0571
 30
0.2
 70
192
 0
VERTEX
 8
CYLINDER
 10
0.0918
 20
-0.2799
 30
0.2
 70
192
 0
VERTEX
 8
CYLINDER
 10
-0.5263
 20
-0.5783
 30
0.2
 70
192
 0
VERTEX
 8
CYLINDER
 10
0.0751
 20
-0.2614
 30
0.2
 70
192
 0
VERTEX
 8
CYLINDER
 10
-0.1158
 20
-0.6305
 30
-0.2
 70
192
 0
VERTEX
 8
CYLINDER
 10
0.065
 20
-0.2537
 30
0.2
 70
192
 0
VERTEX
 8
CYLINDER
 10
-0.8588
 20
-0.8536
 30
0.2
 70
192
 0
VERTEX
 8
CYLINDER
 10
-0.905
 20
-0.8001
 30
0.2
 70
192
 0
VERTEX
 8
CYLINDER
 10
-0.1755
 20
-0.6561
 30
-0.2
 70
192
 0
VERTEX
 8
CYLINDER
 10
0.8299
 20
-0.9363
 30
0.2
 70
192
 0
VERTEX
 8
CYLINDER
 10
-0.3767
 20
-0.6278
 30
-0.2
 70
192
 0
VERTEX
 8
CYLINDER
 10
-0.3984
 20
-0.6122
 30
-0.2
 70
192
 0
VERTEX
 8
CYLINDER
 10
-0.4188
 20
-0.5949
 30
-0.2
 70
192
 0
VERTEX
 8
CYLINDER
 10
-0.3132
 20
-1.0001
 30
-0.2
 70
192
 0
VERTEX
 8
CYLINDER
 10
0.4114
 20
-0.9461
 30
-0.2
 70
192
 0
VERTEX
 8
CYLINDER
 10
-0.514
 20
-0.6539
 30
-0.2
 70
192
 0
VERTEX
 8
CYLINDER
 10
0.3495
 20
-1.105
 30
-0.2
 70
192
 0
VERTEX
 8
CYLINDER
 10
-0.2952
 20
-1.1164
 30
-0.2
 70
192
 0
VERTEX
 8
CYLINDER
 10
-0.3504
 20
-1.1191
 30
-0.2
 70
192
 0
VERTEX
 8
CYLINDER
 10
0.3189
 20
-1.0148
 30
-0.2
 70
192
 0
VERTEX
 8
CYLINDER
 10
-0.7173
 20
-0.9831
 30
-0.2
 70
192
 0
VERTEX
 8
CYLINDER
 10
0.2656
 20
-0.6313
 30
-0.2
 70
192
 0
VERTEX
 8
CYLINDER
 10
0.2066
 20
-0.6243
 30
-0.2
 70
192
 0
VERTEX
 8
CYLINDER
 10
-0.1343
 20
-0.6408
 30
0.2
 70
192
 0
VERTEX
 8
CYLINDER
 10
0.464
 20
-1.0861
 30
0.2
 70
192
 0
VERTEX
 8
CYLINDER
 10
0.6759
 20
-0.4144
 30
-0.2
 70
192
 0
VERTEX
 8
CYLINDER
 10
-0.2223
 20
-0.6635
 30
0.2
 70
192
 0
VERTEX
 8
CYLINDER
 10
-0.498
 20
-0.716
 30
0.2
 70
192
 0
VERTEX
 8
CYLINDER
 10
0.6392
 20
-0.4262
 30
-0.2
 70
192
 0
VERTEX
 8
CYLINDER
 10
0.6171
 20
-0.437
 30
-0.2
 70
192
 0
VERTEX
 8
CYLINDER
 10
0.587
 20
-0.4556
 30
-0.2
 70
192
 0
VERTEX
 8
CYLINDER
 10
0.3134
 20
-0.6272
 30
0.2
 70
192
 0
VERTEX
 8
CYLINDER
 10
-0.7173
 20
-0.9831
 30
0.2
 70
192
 0
VERTEX
 8
CYLINDER
 10
0.2401
 20
-0.6298
 30
0.2
 70
192
 0
VERTEX
 8
CYLINDER
 10
0.1129
 20
-0.3235
 30
-0.2
 70
192
 0
VERTEX
 8
CYLINDER
 10
0.1065
 20
-0.3064
 30
-0.2
 70
192
 0
VERTEX
 8
CYLINDER
 10
-0.3214
 20
-0.6537
 30
-0.2
 70
192
 0
VERTEX
 8
CYLINDER
 10
-0.0055
 20
-0.4641
 30
-0.2
 70
192
 0
VERTEX
 8
CYLINDER
 10
0.695
 20
-0.4114
 30
0.2
 70
192
 0
VERTEX
 8
CYLINDER
 10
0.5128
 20
-0.8491
 30
-0.2
 70
192
 0
VERTEX
 8
CYLINDER
 10
0.557
 20
-0.7941
 30
-0.2
 70
192
 0
VERTEX
 8
CYLINDER
 10
0.5916
 20
-0.7419
 30
-0.2
 70
192
 0
VERTEX
 8
CYLINDER
 10
-0.427
 20
-0.8696
 30
-0.2
 70
192
 0
VERTEX
 8
CYLINDER
 10
0.4266
 20
-0.5792
 30
-0.2
 70
192
 0
VERTEX
 8
CYLINDER
 10
-0.0827
 20
-0.6047
 30
-0.2
 70
192
 0
VERTEX
 8
CYLINDER
 10
-0.5384
 20
-1.0837
 30
0.2
 70
192
 0
VERTEX
 8
CYLINDER
 10
1.1458
 20
-0.4364
 30
-0.2
 70
192
 0
VERTEX
 8
CYLINDER
 10
-0.4321
 20
-1.1127
 30
-0.2
 70
192
 0
VERTEX
 8
CYLINDER
 10
-0.4797
 20
-1.1025
 30
-0.2
 70
192
 0
VERTEX
 8
CYLINDER
 10
1.1254
 20
-0.5562
 30
-0.2
 70
192
 0
VERTEX
 8
CYLINDER
 10
-0.5959
 20
-1.0586
 30
-0.2
 70
192
 0
VERTEX
 8
CYLINDER
 10
-0.0271
 20
-0.525
 30
0.2
 70
192
 0
VERTEX
 8
CYLINDER
 10
0.5916
 20
-0.7419
 30
0.2
 70
192
 0
VERTEX
 8
CYLINDER
 10
-0.0548
 20
-0.5727
 30
0.2
 70
192
 0
VERTEX
 8
CYLINDER
 10
0.4266
 20
-0.5792
 30
0.2
 70
192
 0
VERTEX
 8
CYLINDER
 10
0.393
 20
-0.599
 30
0.2
 70
192
 0
VERTEX
 8
CYLINDER
 10
1.146
 20
-0.3705
 30
-0.2
 70
192
 0
VERTEX
 8
CYLINDER
 10
-0.1691
 20
-1.1002
 30
0.2
 70
192
 0
VERTEX
 8
CYLINDER
 10
1.1468
 20
-0.4037
 30
-0.2
 70
192
 0
VERTEX
 8
CYLINDER
 10
-0.427
 20
-0.8696
 30
0.2
 70
192
 0
VERTEX
 8
CYLINDER
 10
0.8722
 20
-0.9066
 30
-0.2
 70
192
 0
VERTEX
 8
CYLINDER
 10
1.1468
 20
-0.4037
 30
0.2
 70
192
 0
VERTEX
 8
CYLINDER
 10
0.0222
 20
-0.2377
 30
-0.2
 70
192
 0
VERTEX
 8
CYLINDER
 10
0.648
 20
-0.6247
 30
-0.2
 70
192
 0
VERTEX
 8
CYLINDER
 10
0.1994
 20
-0.6197
 30
-0.2
 70
192
 0
VERTEX
 8
CYLINDER
 10
-0.1542
 20
-0.6494
 30
0.2
 70
192
 0
VERTEX
 8
CYLINDER
 10
0.0035
 20
-0.4213
 30
-0.2
 70
192
 0
VERTEX
 8
CYLINDER
 10
0.9671
 20
-0.8236
 30
0.2
 70
192
 0
VERTEX
 8
CYLINDER
 10
-0.1542
 20
-0.6494
 30
-0.2
 70
192
 0
VERTEX
 8
CYLINDER
 10
0.0497
 20
-0.2455
 30
0.2
 70
192
 0
VERTEX
 8
CYLINDER
 10
0.8722
 20
-0.9066
 30
0.2
 70
192
 0
VERTEX
 8
CYLINDER
 10
-0.2223
 20
-0.6635
 30
-0.2
 70
192
 0
VERTEX
 8
CYLINDER
 10
0.6221
 20
-0.6856
 30
0.2
 70
192
 0
VERTEX
 8
CYLINDER
 10
0.464
 20
-1.0861
 30
-0.2
 70
192
 0
VERTEX
 8
CYLINDER
 10
0.0035
 20
-0.4213
 30
0.2
 70
192
 0
VERTEX
 8
CYLINDER
 10
0.4641
 20
-0.8995
 30
-0.2
 70
192
 0
VERTEX
 8
CYLINDER
 10
0.2613
 20
-1.1122
 30
-0.2
 70
192
 0
VERTEX
 8
CYLINDER
 10
0.0918
 20
-0.2799
 30
-0.2
 70
192
 0
VERTEX
 8
CYLINDER
 10
1.051
 20
-0.7189
 30
-0.2
 70
192
 0
VERTEX
 8
CYLINDER
 10
1.0157
 20
-0.7681
 30
-0.2
 70
192
 0
VERTEX
 8
CYLINDER
 10
0.0497
 20
-0.2455
 30
-0.2
 70
192
 0
VERTEX
 8
CYLINDER
 10
0.587
 20
-0.4556
 30
0.2
 70
192
 0
VERTEX
 8
CYLINDER
 10
0.695
 20
-0.4114
 30
-0.2
 70
192
 0
VERTEX
 8
CYLINDER
 10
0.1759
 20
-0.5961
 30
-0.2
 70
192
 0
VERTEX
 8
CYLINDER
 10
0.4641
 20
-0.8995
 30
0.2
 70
192
 0
VERTEX
 8
CYLINDER
 10
0.156
 20
-0.5571
 30
-0.2
 70
192
 0
VERTEX
 8
CYLINDER
 10
0.1492
 20
-0.5345
 30
-0.2
 70
192
 0
VERTEX
 8
CYLINDER
 10
0.29
 20
-0.6303
 30
0.2
 70
192
 0
VERTEX
 8
CYLINDER
 10
0.1298
 20
-0.4068
 30
-0.2
 70
192
 0
VERTEX
 8
CYLINDER
 10
1.051
 20
-0.7189
 30
0.2
 70
192
 0
VERTEX
 8
CYLINDER
 10
1.0157
 20
-0.7681
 30
0.2
 70
192
 0
VERTEX
 8
CYLINDER
 10
0.1689
 20
-0.5854
 30
0.2
 70
192
 0
VERTEX
 8
CYLINDER
 10
0.1629
 20
-0.5738
 30
0.2
 70
192
 0
VERTEX
 8
CYLINDER
 10
-0.0271
 20
-0.525
 30
-0.2
 70
192
 0
VERTEX
 8
CYLINDER
 10
0.0751
 20
-0.2614
 30
-0.2
 70
192
 0
VERTEX
 8
CYLINDER
 10
0.065
 20
-0.2537
 30
-0.2
 70
192
 0
VERTEX
 8
CYLINDER
 10
-0.0548
 20
-0.5727
 30
-0.2
 70
192
 0
VERTEX
 8
CYLINDER
 10
-0.0681
 20
-0.5895
 30
-0.2
 70
192
 0
VERTEX
 8
CYLINDER
 10
0.0062
 20
-0.2361
 30
-0.2
 70
192
 0
VERTEX
 8
CYLINDER
 10
1.0962
 20
-0.0892
 30
-0.2
 70
192
 0
VERTEX
 8
CYLINDER
 10
1.0962
 20
-0.0892
 30
0.2
 70
192
 0
VERTEX
 8
CYLINDER
 10
-0.1691
 20
-1.1002
 30
-0.2
 70
192
 0
VERTEX
 8
CYLINDER
 10
1.1387
 20
-0.4974
 30
-0.2
 70
192
 0
VERTEX
 8
CYLINDER
 10
0.7504
 20
-0.9834
 30
0.2
 70
192
 0
VERTEX
 8
CYLINDER
 10
0.2066
 20
-0.6243
 30
0.2
 70
192
 0
VERTEX
 8
CYLINDER
 10
-0.04
 20
-0.5499
 30
0.2
 70
192
 0
VERTEX
 8
CYLINDER
 10
1.1254
 20
-0.5562
 30
0.2
 70
192
 0
VERTEX
 8
CYLINDER
 10
1.1061
 20
-0.6129
 30
0.2
 70
192
 0
VERTEX
 8
CYLINDER
 10
0.1205
 20
-0.3513
 30
-0.2
 70
192
 0
VERTEX
 8
CYLINDER
 10
-0.0986
 20
-0.6184
 30
0.2
 70
192
 0
VERTEX
 8
CYLINDER
 10
1.1385
 20
-0.2955
 30
-0.2
 70
192
 0
VERTEX
 8
CYLINDER
 10
0.6848
 20
-0.488
 30
0.2
 70
192
 0
VERTEX
 8
CYLINDER
 10
1.1385
 20
-0.2955
 30
0.2
 70
192
 0
VERTEX
 8
CYLINDER
 10
0.1565
 20
-1.1127
 30
-0.2
 70
192
 0
VERTEX
 8
CYLINDER
 10
0.1298
 20
-0.4068
 30
0.2
 70
192
 0
VERTEX
 8
CYLINDER
 10
0.1129
 20
-0.3235
 30
0.2
 70
192
 0
VERTEX
 8
CYLINDER
 10
0.6171
 20
-0.437
 30
0.2
 70
192
 0
VERTEX
 8
CYLINDER
 10
0.1928
 20
-0.6145
 30
-0.2
 70
192
 0
VERTEX
 8
CYLINDER
 10
0.084
 20
-0.2701
 30
0.2
 70
192
 0
VERTEX
 8
CYLINDER
 10
0.6573
 20
-0.4194
 30
-0.2
 70
192
 0
VERTEX
 8
CYLINDER
 10
0.4764
 20
-0.5431
 30
-0.2
 70
192
 0
VERTEX
 8
CYLINDER
 10
0.0367
 20
-0.2409
 30
0.2
 70
192
 0
VERTEX
 8
CYLINDER
 10
0.0577
 20
-0.2493
 30
0.2
 70
192
 0
VERTEX
 8
CYLINDER
 10
0.0062
 20
-0.2361
 30
0.2
 70
192
 0
VERTEX
 8
CYLINDER
 10
0.011
 20
-0.3076
 30
0.2
 70
192
 0
VERTEX
 8
CYLINDER
 10
0.1838
 20
-0.6059
 30
0.2
 70
192
 0
VERTEX
 8
CYLINDER
 10
0.1065
 20
-0.3064
 30
0.2
 70
192
 0
VERTEX
 8
CYLINDER
 10
0.084
 20
-0.2701
 30
-0.2
 70
192
 0
VERTEX
 8
CYLINDER
 10
1.0812
 20
-0.6671
 30
-0.2
 70
192
 0
VERTEX
 8
CYLINDER
 10
0.6392
 20
-0.4262
 30
0.2
 70
192
 0
VERTEX
 8
CYLINDER
 10
0.5128
 20
-0.8491
 30
0.2
 70
192
 0
VERTEX
 8
CYLINDER
 10
0.669
 20
-0.559
 30
-0.2
 70
192
 0
VERTEX
 8
CYLINDER
 10
0.2613
 20
-1.1122
 30
0.2
 70
192
 0
VERTEX
 8
CYLINDER
 10
0.648
 20
-0.6247
 30
0.2
 70
192
 0
VERTEX
 8
CYLINDER
 10
1.1387
 20
-0.4974
 30
0.2
 70
192
 0
VERTEX
 8
CYLINDER
 10
0.9121
 20
-0.8748
 30
0.2
 70
192
 0
VERTEX
 8
CYLINDER
 10
0.1492
 20
-0.5345
 30
0.2
 70
192
 0
VERTEX
 8
CYLINDER
 10
0.9121
 20
-0.8748
 30
-0.2
 70
192
 0
VERTEX
 8
CYLINDER
 10
0.6759
 20
-0.4144
 30
0.2
 70
192
 0
VERTEX
 8
CYLINDER
 10
0.6848
 20
-0.488
 30
-0.2
 70
192
 0
VERTEX
 8
CYLINDER
 10
1.1458
 20
-0.4364
 30
0.2
 70
192
 0
VERTEX
 8
CYLINDER
 10
0.5736
 20
-1.0571
 30
-0.2
 70
192
 0
VERTEX
 8
CYLINDER
 10
-1.1953
 20
0
 30
0.2
 70
192
 0
VERTEX
 8
CYLINDER
 10
-0.366
 20
-0.634
 30
0.2
 70
192
 0
VERTEX
 8
CYLINDER
 10
-0.4636
 20
-0.803
 30
0.2
 70
192
 0
VERTEX
 8
CYLINDER
 10
1.048
 20
0.1848
 30
-0.2
 70
192
 0
VERTEX
 8
CYLINDER
 10
-1.1601
 20
0.2046
 30
-0.2
 70
192
 0
VERTEX
 8
CYLINDER
 10
0.5461
 20
0.1988
 30
-0.2
 70
192
 0
VERTEX
 8
CYLINDER
 10
-0.6075
 20
-1.0522
 30
-0.2
 70
192
 0
VERTEX
 8
CYLINDER
 10
-0.4962
 20
0.1806
 30
-0.2
 70
192
 0
VERTEX
 8
CYLINDER
 10
0.5249
 20
0.0925
 30
0.2
 70
192
 0
VERTEX
 8
CYLINDER
 10
-0.1946
 20
-1.1034
 30
-0.2
 70
192
 0
VERTEX
 8
CYLINDER
 10
0.5171
 20
0.1882
 30
-0.2
 70
192
 0
VERTEX
 8
CYLINDER
 10
0.4834
 20
0.5761
 30
-0.2
 70
192
 0
VERTEX
 8
CYLINDER
 10
-0.6668
 20
0.7946
 30
-0.2
 70
192
 0
VERTEX
 8
CYLINDER
 10
-1.127
 20
-0.4102
 30
-0.2
 70
192
 0
VERTEX
 8
CYLINDER
 10
1.1734
 20
0.6775
 30
0.2
 70
192
 0
VERTEX
 8
CYLINDER
 10
0.1962
 20
-1.1125
 30
-0.2
 70
192
 0
VERTEX
 8
CYLINDER
 10
0.19
 20
1.0776
 30
-0.2
 70
192
 0
VERTEX
 8
CYLINDER
 10
-0.384
 20
1.055
 30
0.2
 70
192
 0
VERTEX
 8
CYLINDER
 10
-0.4184
 20
0.2416
 30
-0.2
 70
192
 0
VERTEX
 8
CYLINDER
 10
-0.7807
 20
-0.9304
 30
-0.2
 70
192
 0
VERTEX
 8
CYLINDER
 10
0.5144
 20
0.297
 30
-0.2
 70
192
 0
VERTEX
 8
CYLINDER
 10
-0.1916
 20
-1.0867
 30
0.2
 70
192
 0
VERTEX
 8
CYLINDER
 10
0.5171
 20
0.1882
 30
0.2
 70
192
 0
VERTEX
 8
CYLINDER
 10
1.1734
 20
0.6775
 30
-0.2
 70
192
 0
VERTEX
 8
CYLINDER
 10
-0.4634
 20
-0.5523
 30
0.2
 70
192
 0
VERTEX
 8
CYLINDER
 10
-0.4962
 20
0.1806
 30
0.2
 70
192
 0
VERTEX
 8
CYLINDER
 10
-0.4061
 20
-1.1157
 30
-0.2
 70
192
 0
VERTEX
 8
CYLINDER
 10
-0.8208
 20
0.6888
 30
0.2
 70
192
 0
VERTEX
 8
CYLINDER
 10
0.19
 20
1.0776
 30
0.2
 70
192
 0
VERTEX
 8
CYLINDER
 10
-0.3674
 20
0.3082
 30
0.2
 70
192
 0
VERTEX
 8
CYLINDER
 10
0.4386
 20
0.7597
 30
0.2
 70
192
 0
VERTEX
 8
CYLINDER
 10
-0.4634
 20
-0.5523
 30
-0.2
 70
192
 0
VERTEX
 8
CYLINDER
 10
0.1924
 20
-1.091
 30
0.2
 70
192
 0
VERTEX
 8
CYLINDER
 10
1.0632
 20
0.387
 30
-0.2
 70
192
 0
VERTEX
 8
CYLINDER
 10
0.3586
 20
-0.9853
 30
0.2
 70
192
 0
VERTEX
 8
CYLINDER
 10
0.3992
 20
-1.0968
 30
0.2
 70
192
 0
VERTEX
 8
CYLINDER
 10
0.5035
 20
0.4225
 30
-0.2
 70
192
 0
VERTEX
 8
CYLINDER
 10
0.6039
 20
-1.046
 30
-0.2
 70
192
 0
VERTEX
 8
CYLINDER
 10
-0.1946
 20
-1.1034
 30
0.2
 70
192
 0
VERTEX
 8
CYLINDER
 10
-0.6238
 20
0.7434
 30
0.2
 70
192
 0
VERTEX
 8
CYLINDER
 10
0.3446
 20
0.9467
 30
-0.2
 70
192
 0
VERTEX
 8
CYLINDER
 10
0.5144
 20
0.297
 30
0.2
 70
192
 0
VERTEX
 8
CYLINDER
 10
-1.039
 20
-0.5999
 30
-0.2
 70
192
 0
VERTEX
 8
CYLINDER
 10
-0.9239
 20
-0.7752
 30
0.2
 70
192
 0
VERTEX
 8
CYLINDER
 10
0
 20
-0.4378
 30
0.2
 70
192
 0
VERTEX
 8
CYLINDER
 10
-0.4184
 20
0.2416
 30
0.2
 70
192
 0
VERTEX
 8
CYLINDER
 10
-1.1953
 20
0
 30
-0.2
 70
192
 0
VERTEX
 8
CYLINDER
 10
0.596
 20
0.3441
 30
0.2
 70
192
 0
VERTEX
 8
CYLINDER
 10
-0.366
 20
-0.634
 30
-0.2
 70
192
 0
VERTEX
 8
CYLINDER
 10
0.3553
 20
-0.6154
 30
-0.2
 70
192
 0
VERTEX
 8
CYLINDER
 10
0.5249
 20
0.0925
 30
-0.2
 70
192
 0
VERTEX
 8
CYLINDER
 10
0.5191
 20
0.0915
 30
0.2
 70
192
 0
VERTEX
 8
CYLINDER
 10
-0.5196
 20
-0.6193
 30
0.2
 70
192
 0
VERTEX
 8
CYLINDER
 10
0.3586
 20
-0.9853
 30
-0.2
 70
192
 0
VERTEX
 8
CYLINDER
 10
0.5191
 20
0.0915
 30
-0.2
 70
192
 0
VERTEX
 8
CYLINDER
 10
-0.1105
 20
-0.6268
 30
0.2
 70
192
 0
VERTEX
 8
CYLINDER
 10
1.048
 20
0.1848
 30
0.2
 70
192
 0
VERTEX
 8
CYLINDER
 10
0.2287
 20
-0.6283
 30
-0.2
 70
192
 0
VERTEX
 8
CYLINDER
 10
0.4987
 20
-0.8637
 30
-0.2
 70
192
 0
VERTEX
 8
CYLINDER
 10
0
 20
1.1205
 30
0.2
 70
192
 0
VERTEX
 8
CYLINDER
 10
-1.127
 20
-0.4102
 30
0.2
 70
192
 0
VERTEX
 8
CYLINDER
 10
-0.1962
 20
1.1129
 30
0.2
 70
192
 0
VERTEX
 8
CYLINDER
 10
-0.1962
 20
1.1129
 30
-0.2
 70
192
 0
VERTEX
 8
CYLINDER
 10
0.4987
 20
-0.8637
 30
0.2
 70
192
 0
VERTEX
 8
CYLINDER
 10
0.3553
 20
-0.6154
 30
0.2
 70
192
 0
VERTEX
 8
CYLINDER
 10
-0.7579
 20
0.2758
 30
0.2
 70
192
 0
VERTEX
 8
CYLINDER
 10
-1.1601
 20
0.2046
 30
0.2
 70
192
 0
VERTEX
 8
CYLINDER
 10
-1.1831
 20
-0.2086
 30
-0.2
 70
192
 0
VERTEX
 8
CYLINDER
 10
0
 20
-0.4378
 30
-0.2
 70
192
 0
VERTEX
 8
CYLINDER
 10
0
 20
1.1205
 30
-0.2
 70
192
 0
VERTEX
 8
CYLINDER
 10
0.3992
 20
-1.0968
 30
-0.2
 70
192
 0
VERTEX
 8
CYLINDER
 10
-0.384
 20
1.055
 30
-0.2
 70
192
 0
VERTEX
 8
CYLINDER
 10
0.4386
 20
0.7597
 30
-0.2
 70
192
 0
VERTEX
 8
CYLINDER
 10
-0.5196
 20
-0.6193
 30
-0.2
 70
192
 0
VERTEX
 8
CYLINDER
 10
-1.1831
 20
-0.2086
 30
0.2
 70
192
 0
VERTEX
 8
CYLINDER
 10
0.5461
 20
0.1988
 30
0.2
 70
192
 0
VERTEX
 8
CYLINDER
 10
-0.3674
 20
0.3082
 30
-0.2
 70
192
 0
VERTEX
 8
CYLINDER
 10
-0.6238
 20
0.7434
 30
-0.2
 70
192
 0
VERTEX
 8
CYLINDER
 10
-0.4636
 20
-0.803
 30
-0.2
 70
192
 0
VERTEX
 8
CYLINDER
 10
-0.3267
 20
0.3893
 30
-0.2
 70
192
 0
VERTEX
 8
CYLINDER
 10
-1.0802
 20
0.3932
 30
0.2
 70
192
 0
VERTEX
 8
CYLINDER
 10
0.0429
 20
-0.2431
 30
-0.2
 70
192
 0
VERTEX
 8
CYLINDER
 10
-0.1105
 20
-0.6268
 30
-0.2
 70
192
 0
VERTEX
 8
CYLINDER
 10
-0.3509
 20
-0.964
 30
-0.2
 70
192
 0
VERTEX
 8
CYLINDER
 10
1.0763
 20
0
 30
0.2
 70
192
 0
VERTEX
 8
CYLINDER
 10
-0.7807
 20
-0.9304
 30
0.2
 70
192
 0
VERTEX
 8
CYLINDER
 10
0.8004
 20
-0.9538
 30
0.2
 70
192
 0
VERTEX
 8
CYLINDER
 10
0.596
 20
0.3441
 30
-0.2
 70
192
 0
VERTEX
 8
CYLINDER
 10
0.6039
 20
-1.046
 30
0.2
 70
192
 0
VERTEX
 8
CYLINDER
 10
0.2287
 20
-0.6283
 30
0.2
 70
192
 0
VERTEX
 8
CYLINDER
 10
-0.6075
 20
-1.0522
 30
0.2
 70
192
 0
VERTEX
 8
CYLINDER
 10
-0.294
 20
0.5092
 30
0.2
 70
192
 0
VERTEX
 8
CYLINDER
 10
-0.9239
 20
-0.7752
 30
-0.2
 70
192
 0
VERTEX
 8
CYLINDER
 10
-0.8208
 20
0.6888
 30
-0.2
 70
192
 0
VERTEX
 8
CYLINDER
 10
-0.6552
 20
0.5498
 30
-0.2
 70
192
 0
VERTEX
 8
CYLINDER
 10
0.8004
 20
-0.9538
 30
-0.2
 70
192
 0
VERTEX
 8
CYLINDER
 10
-1.039
 20
-0.5999
 30
0.2
 70
192
 0
VERTEX
 8
CYLINDER
 10
0.9732
 20
-0.8166
 30
-0.2
 70
192
 0
VERTEX
 8
CYLINDER
 10
0.3446
 20
0.9467
 30
0.2
 70
192
 0
VERTEX
 8
CYLINDER
 10
-0.962
 20
0.5554
 30
0.2
 70
192
 0
VERTEX
 8
CYLINDER
 10
1.0632
 20
0.387
 30
0.2
 70
192
 0
VERTEX
 8
CYLINDER
 10
-0.3509
 20
-0.964
 30
0.2
 70
192
 0
VERTEX
 8
CYLINDER
 10
0.6038
 20
-0.7195
 30
-0.2
 70
192
 0
VERTEX
 8
CYLINDER
 10
-0.4061
 20
-1.1157
 30
0.2
 70
192
 0
VERTEX
 8
CYLINDER
 10
-0.6552
 20
0.5498
 30
0.2
 70
192
 0
VERTEX
 8
CYLINDER
 10
0.6684
 20
-0.5609
 30
-0.2
 70
192
 0
VERTEX
 8
CYLINDER
 10
-0.7174
 20
0.4142
 30
0.2
 70
192
 0
VERTEX
 8
CYLINDER
 10
0.4635
 20
-0.5524
 30
-0.2
 70
192
 0
VERTEX
 8
CYLINDER
 10
0.1962
 20
-1.1125
 30
0.2
 70
192
 0
VERTEX
 8
CYLINDER
 10
0.9732
 20
-0.8166
 30
0.2
 70
192
 0
VERTEX
 8
CYLINDER
 10
-1.0802
 20
0.3932
 30
-0.2
 70
192
 0
VERTEX
 8
CYLINDER
 10
0.0429
 20
-0.2431
 30
0.2
 70
192
 0
VERTEX
 8
CYLINDER
 10
-0.3267
 20
0.3893
 30
0.2
 70
192
 0
VERTEX
 8
CYLINDER
 10
-0.962
 20
0.5554
 30
-0.2
 70
192
 0
VERTEX
 8
CYLINDER
 10
-0.7174
 20
0.4142
 30
-0.2
 70
192
 0
VERTEX
 8
CYLINDER
 10
0.6038
 20
-0.7195
 30
0.2
 70
192
 0
VERTEX
 8
CYLINDER
 10
-0.2417
 20
-0.664
 30
-0.2
 70
192
 0
VERTEX
 8
CYLINDER
 10
0.564
 20
-0.4732
 30
0.2
 70
192
 0
VERTEX
 8
CYLINDER
 10
-0.7579
 20
0.2758
 30
-0.2
 70
192
 0
VERTEX
 8
CYLINDER
 10
-0.1916
 20
-1.0867
 30
-0.2
 70
192
 0
VERTEX
 8
CYLINDER
 10
0.4635
 20
-0.5524
 30
0.2
 70
192
 0
VERTEX
 8
CYLINDER
 10
0.1924
 20
-1.091
 30
-0.2
 70
192
 0
VERTEX
 8
CYLINDER
 10
1.0968
 20
-0.6332
 30
-0.2
 70
192
 0
VERTEX
 8
CYLINDER
 10
1.0763
 20
0
 30
-0.2
 70
192
 0
VERTEX
 8
CYLINDER
 10
-0.294
 20
0.5092
 30
-0.2
 70
192
 0
VERTEX
 8
CYLINDER
 10
-0.6668
 20
0.7946
 30
0.2
 70
192
 0
VERTEX
 8
CYLINDER
 10
0.564
 20
-0.4732
 30
-0.2
 70
192
 0
VERTEX
 8
CYLINDER
 10
-0.2417
 20
-0.664
 30
0.2
 70
192
 0
VERTEX
 8
CYLINDER
 10
0.5035
 20
0.4225
 30
0.2
 70
192
 0
VERTEX
 8
CYLINDER
 10
1.0968
 20
-0.6332
 30
0.2
 70
192
 0
VERTEX
 8
CYLINDER
 10
0.4834
 20
0.5761
 30
0.2
 70
192
 0
VERTEX
 8
CYLINDER
 10
0.6684
 20
-0.5609
 30
0.2
 70
192
 0
VERTEX
 8
CYLINDER
 10
1.1464
 20
-0.4173
 30
-0.2
 70
192
 0
VERTEX
 8
CYLINDER
 10
1.1464
 20
-0.4173
 30
0.2
 70
192
 0
VERTEX
 8
CYLINDER
 10
1.1183
 20
-0.1972
 30
-0.2
 70
192
 0
VERTEX
 8
CYLINDER
 10
1.1183
 20
-0.1972
 30
0.2
 70
192
 0
VERTEX
 8
CYLINDER
 10
0
 20
0
 30
0
 70
128
 71
3
 72
75
 73
283
 74
283
 0
VERTEX
 8
CYLINDER
 10
0
 20
0
 30
0
 70
128
 71
79
 72
1
 73
3
 74
217
 0
VERTEX
 8
CYLINDER
 10
0
 20
0
 30
0
 70
128
 71
283
 72
217
 73
3
 74
3
 0
VERTEX
 8
CYLINDER
 10
0
 20
0
 30
0
 70
128
 71
74
 72
82
 73
237
 74
237
 0
VERTEX
 8
CYLINDER
 10
0
 20
0
 30
0
 70
128
 71
1
 72
2
 73
4
 74
3
 0
VERTEX
 8
CYLINDER
 10
0
 20
0
 30
0
 70
128
 71
288
 72
86
 73
4
 74
4
 0
VERTEX
 8
CYLINDER
 10
0
 20
0
 30
0
 70
128
 71
89
 72
222
 73
4
 74
2
 0
VERTEX
 8
CYLINDER
 10
0
 20
0
 30
0
 70
128
 71
288
 72
4
 73
222
 74
222
 0
VERTEX
 8
CYLINDER
 10
0
 20
0
 30
0
 70
128
 71
92
 72
84
 73
239
 74
239
 0
VERTEX
 8
CYLINDER
 10
0
 20
0
 30
0
 70
128
 71
105
 72
82
 73
74
 74
238
 0
VERTEX
 8
CYLINDER
 10
0
 20
0
 30
0
 70
128
 71
238
 72
95
 73
105
 74
105
 0
VERTEX
 8
CYLINDER
 10
0
 20
0
 30
0
 70
128
 71
299
 72
75
 73
3
 74
3
 0
VERTEX
 8
CYLINDER
 10
0
 20
0
 30
0
 70
128
 71
97
 72
295
 73
3
 74
5
 0
VERTEX
 8
CYLINDER
 10
0
 20
0
 30
0
 70
128
 71
296
 72
298
 73
3
 74
3
 0
VERTEX
 8
CYLINDER
 10
0
 20
0
 30
0
 70
128
 71
3
 72
295
 73
364
 74
364
 0
VERTEX
 8
CYLINDER
 10
0
 20
0
 30
0
 70
128
 71
298
 72
299
 73
3
 74
3
 0
VERTEX
 8
CYLINDER
 10
0
 20
0
 30
0
 70
128
 71
3
 72
364
 73
296
 74
296
 0
VERTEX
 8
CYLINDER
 10
0
 20
0
 30
0
 70
128
 71
3
 72
4
 73
6
 74
5
 0
VERTEX
 8
CYLINDER
 10
0
 20
0
 30
0
 70
128
 71
84
 72
92
 73
118
 74
302
 0
VERTEX
 8
CYLINDER
 10
0
 20
0
 30
0
 70
128
 71
118
 72
108
 73
302
 74
302
 0
VERTEX
 8
CYLINDER
 10
0
 20
0
 30
0
 70
128
 71
4
 72
86
 73
227
 74
227
 0
VERTEX
 8
CYLINDER
 10
0
 20
0
 30
0
 70
128
 71
110
 72
6
 73
4
 74
306
 0
VERTEX
 8
CYLINDER
 10
0
 20
0
 30
0
 70
128
 71
211
 72
306
 73
4
 74
4
 0
VERTEX
 8
CYLINDER
 10
0
 20
0
 30
0
 70
128
 71
227
 72
310
 73
4
 74
4
 0
VERTEX
 8
CYLINDER
 10
0
 20
0
 30
0
 70
128
 71
4
 72
310
 73
309
 74
309
 0
VERTEX
 8
CYLINDER
 10
0
 20
0
 30
0
 70
128
 71
309
 72
211
 73
4
 74
4
 0
VERTEX
 8
CYLINDER
 10
0
 20
0
 30
0
 70
128
 71
253
 72
105
 73
95
 74
263
 0
VERTEX
 8
CYLINDER
 10
0
 20
0
 30
0
 70
128
 71
235
 72
123
 73
130
 74
253
 0
VERTEX
 8
CYLINDER
 10
0
 20
0
 30
0
 70
128
 71
263
 72
235
 73
253
 74
253
 0
VERTEX
 8
CYLINDER
 10
0
 20
0
 30
0
 70
128
 71
97
 72
5
 73
319
 74
319
 0
VERTEX
 8
CYLINDER
 10
0
 20
0
 30
0
 70
128
 71
7
 72
124
 73
378
 74
378
 0
VERTEX
 8
CYLINDER
 10
0
 20
0
 30
0
 70
128
 71
7
 72
378
 73
294
 74
294
 0
VERTEX
 8
CYLINDER
 10
0
 20
0
 30
0
 70
128
 71
5
 72
7
 73
294
 74
319
 0
VERTEX
 8
CYLINDER
 10
0
 20
0
 30
0
 70
128
 71
5
 72
6
 73
8
 74
7
 0
VERTEX
 8
CYLINDER
 10
0
 20
0
 30
0
 70
128
 71
248
 72
108
 73
118
 74
330
 0
VERTEX
 8
CYLINDER
 10
0
 20
0
 30
0
 70
128
 71
143
 72
134
 73
213
 74
330
 0
VERTEX
 8
CYLINDER
 10
0
 20
0
 30
0
 70
128
 71
330
 72
213
 73
248
 74
248
 0
VERTEX
 8
CYLINDER
 10
0
 20
0
 30
0
 70
128
 71
325
 72
135
 73
8
 74
8
 0
VERTEX
 8
CYLINDER
 10
0
 20
0
 30
0
 70
128
 71
110
 72
328
 73
6
 74
6
 0
VERTEX
 8
CYLINDER
 10
0
 20
0
 30
0
 70
128
 71
243
 72
325
 73
8
 74
6
 0
VERTEX
 8
CYLINDER
 10
0
 20
0
 30
0
 70
128
 71
243
 72
6
 73
328
 74
328
 0
VERTEX
 8
CYLINDER
 10
0
 20
0
 30
0
 70
128
 71
101
 72
130
 73
123
 74
229
 0
VERTEX
 8
CYLINDER
 10
0
 20
0
 30
0
 70
128
 71
225
 72
124
 73
7
 74
9
 0
VERTEX
 8
CYLINDER
 10
0
 20
0
 30
0
 70
128
 71
101
 72
229
 73
356
 74
356
 0
VERTEX
 8
CYLINDER
 10
0
 20
0
 30
0
 70
128
 71
342
 72
225
 73
9
 74
9
 0
VERTEX
 8
CYLINDER
 10
0
 20
0
 30
0
 70
128
 71
341
 72
342
 73
9
 74
9
 0
VERTEX
 8
CYLINDER
 10
0
 20
0
 30
0
 70
128
 71
101
 72
356
 73
357
 74
357
 0
VERTEX
 8
CYLINDER
 10
0
 20
0
 30
0
 70
128
 71
402
 72
341
 73
9
 74
9
 0
VERTEX
 8
CYLINDER
 10
0
 20
0
 30
0
 70
128
 71
101
 72
357
 73
313
 74
313
 0
VERTEX
 8
CYLINDER
 10
0
 20
0
 30
0
 70
128
 71
218
 72
402
 73
9
 74
9
 0
VERTEX
 8
CYLINDER
 10
0
 20
0
 30
0
 70
128
 71
101
 72
313
 73
220
 74
9
 0
VERTEX
 8
CYLINDER
 10
0
 20
0
 30
0
 70
128
 71
259
 72
218
 73
9
 74
9
 0
VERTEX
 8
CYLINDER
 10
0
 20
0
 30
0
 70
128
 71
338
 72
259
 73
9
 74
9
 0
VERTEX
 8
CYLINDER
 10
0
 20
0
 30
0
 70
128
 71
220
 72
338
 73
9
 74
9
 0
VERTEX
 8
CYLINDER
 10
0
 20
0
 30
0
 70
128
 71
7
 72
8
 73
10
 74
9
 0
VERTEX
 8
CYLINDER
 10
0
 20
0
 30
0
 70
128
 71
134
 72
143
 73
157
 74
409
 0
VERTEX
 8
CYLINDER
 10
0
 20
0
 30
0
 70
128
 71
10
 72
8
 73
135
 74
361
 0
VERTEX
 8
CYLINDER
 10
0
 20
0
 30
0
 70
128
 71
282
 72
409
 73
157
 74
157
 0
VERTEX
 8
CYLINDER
 10
0
 20
0
 30
0
 70
128
 71
10
 72
361
 73
216
 74
216
 0
VERTEX
 8
CYLINDER
 10
0
 20
0
 30
0
 70
128
 71
10
 72
216
 73
234
 74
234
 0
VERTEX
 8
CYLINDER
 10
0
 20
0
 30
0
 70
128
 71
233
 72
282
 73
157
 74
157
 0
VERTEX
 8
CYLINDER
 10
0
 20
0
 30
0
 70
128
 71
10
 72
234
 73
264
 74
264
 0
VERTEX
 8
CYLINDER
 10
0
 20
0
 30
0
 70
128
 71
221
 72
233
 73
157
 74
157
 0
VERTEX
 8
CYLINDER
 10
0
 20
0
 30
0
 70
128
 71
10
 72
264
 73
242
 74
242
 0
VERTEX
 8
CYLINDER
 10
0
 20
0
 30
0
 70
128
 71
226
 72
221
 73
157
 74
10
 0
VERTEX
 8
CYLINDER
 10
0
 20
0
 30
0
 70
128
 71
10
 72
242
 73
241
 74
241
 0
VERTEX
 8
CYLINDER
 10
0
 20
0
 30
0
 70
128
 71
10
 72
241
 73
526
 74
526
 0
VERTEX
 8
CYLINDER
 10
0
 20
0
 30
0
 70
128
 71
10
 72
526
 73
226
 74
226
 0
VERTEX
 8
CYLINDER
 10
0
 20
0
 30
0
 70
128
 71
101
 72
9
 73
231
 74
231
 0
VERTEX
 8
CYLINDER
 10
0
 20
0
 30
0
 70
128
 71
11
 72
106
 73
231
 74
9
 0
VERTEX
 8
CYLINDER
 10
0
 20
0
 30
0
 70
128
 71
9
 72
10
 73
12
 74
11
 0
VERTEX
 8
CYLINDER
 10
0
 20
0
 30
0
 70
128
 71
165
 72
12
 73
10
 74
215
 0
VERTEX
 8
CYLINDER
 10
0
 20
0
 30
0
 70
128
 71
10
 72
157
 73
215
 74
215
 0
VERTEX
 8
CYLINDER
 10
0
 20
0
 30
0
 70
128
 71
106
 72
11
 73
13
 74
303
 0
VERTEX
 8
CYLINDER
 10
0
 20
0
 30
0
 70
128
 71
13
 72
162
 73
210
 74
210
 0
VERTEX
 8
CYLINDER
 10
0
 20
0
 30
0
 70
128
 71
13
 72
210
 73
303
 74
303
 0
VERTEX
 8
CYLINDER
 10
0
 20
0
 30
0
 70
128
 71
11
 72
12
 73
14
 74
13
 0
VERTEX
 8
CYLINDER
 10
0
 20
0
 30
0
 70
128
 71
186
 72
14
 73
12
 74
244
 0
VERTEX
 8
CYLINDER
 10
0
 20
0
 30
0
 70
128
 71
12
 72
165
 73
212
 74
212
 0
VERTEX
 8
CYLINDER
 10
0
 20
0
 30
0
 70
128
 71
212
 72
244
 73
12
 74
12
 0
VERTEX
 8
CYLINDER
 10
0
 20
0
 30
0
 70
128
 71
228
 72
162
 73
13
 74
13
 0
VERTEX
 8
CYLINDER
 10
0
 20
0
 30
0
 70
128
 71
13
 72
15
 73
181
 74
257
 0
VERTEX
 8
CYLINDER
 10
0
 20
0
 30
0
 70
128
 71
209
 72
228
 73
13
 74
13
 0
VERTEX
 8
CYLINDER
 10
0
 20
0
 30
0
 70
128
 71
13
 72
257
 73
209
 74
209
 0
VERTEX
 8
CYLINDER
 10
0
 20
0
 30
0
 70
128
 71
13
 72
14
 73
16
 74
15
 0
VERTEX
 8
CYLINDER
 10
0
 20
0
 30
0
 70
128
 71
188
 72
16
 73
14
 74
438
 0
VERTEX
 8
CYLINDER
 10
0
 20
0
 30
0
 70
128
 71
14
 72
186
 73
236
 74
236
 0
VERTEX
 8
CYLINDER
 10
0
 20
0
 30
0
 70
128
 71
14
 72
236
 73
265
 74
265
 0
VERTEX
 8
CYLINDER
 10
0
 20
0
 30
0
 70
128
 71
265
 72
438
 73
14
 74
14
 0
VERTEX
 8
CYLINDER
 10
0
 20
0
 30
0
 70
128
 71
181
 72
15
 73
17
 74
321
 0
VERTEX
 8
CYLINDER
 10
0
 20
0
 30
0
 70
128
 71
17
 72
145
 73
317
 74
317
 0
VERTEX
 8
CYLINDER
 10
0
 20
0
 30
0
 70
128
 71
17
 72
317
 73
240
 74
240
 0
VERTEX
 8
CYLINDER
 10
0
 20
0
 30
0
 70
128
 71
17
 72
240
 73
252
 74
252
 0
VERTEX
 8
CYLINDER
 10
0
 20
0
 30
0
 70
128
 71
246
 72
321
 73
17
 74
17
 0
VERTEX
 8
CYLINDER
 10
0
 20
0
 30
0
 70
128
 71
17
 72
252
 73
246
 74
246
 0
VERTEX
 8
CYLINDER
 10
0
 20
0
 30
0
 70
128
 71
15
 72
16
 73
18
 74
17
 0
VERTEX
 8
CYLINDER
 10
0
 20
0
 30
0
 70
128
 71
153
 72
18
 73
16
 74
16
 0
VERTEX
 8
CYLINDER
 10
0
 20
0
 30
0
 70
128
 71
16
 72
188
 73
232
 74
232
 0
VERTEX
 8
CYLINDER
 10
0
 20
0
 30
0
 70
128
 71
214
 72
153
 73
16
 74
16
 0
VERTEX
 8
CYLINDER
 10
0
 20
0
 30
0
 70
128
 71
16
 72
232
 73
387
 74
387
 0
VERTEX
 8
CYLINDER
 10
0
 20
0
 30
0
 70
128
 71
385
 72
214
 73
16
 74
16
 0
VERTEX
 8
CYLINDER
 10
0
 20
0
 30
0
 70
128
 71
16
 72
387
 73
261
 74
261
 0
VERTEX
 8
CYLINDER
 10
0
 20
0
 30
0
 70
128
 71
261
 72
385
 73
16
 74
16
 0
VERTEX
 8
CYLINDER
 10
0
 20
0
 30
0
 70
128
 71
145
 72
17
 73
260
 74
260
 0
VERTEX
 8
CYLINDER
 10
0
 20
0
 30
0
 70
128
 71
19
 72
158
 73
391
 74
17
 0
VERTEX
 8
CYLINDER
 10
0
 20
0
 30
0
 70
128
 71
260
 72
17
 73
392
 74
392
 0
VERTEX
 8
CYLINDER
 10
0
 20
0
 30
0
 70
128
 71
391
 72
392
 73
17
 74
17
 0
VERTEX
 8
CYLINDER
 10
0
 20
0
 30
0
 70
128
 71
17
 72
18
 73
20
 74
19
 0
VERTEX
 8
CYLINDER
 10
0
 20
0
 30
0
 70
128
 71
395
 72
191
 73
20
 74
20
 0
VERTEX
 8
CYLINDER
 10
0
 20
0
 30
0
 70
128
 71
396
 72
395
 73
20
 74
20
 0
VERTEX
 8
CYLINDER
 10
0
 20
0
 30
0
 70
128
 71
18
 72
153
 73
266
 74
20
 0
VERTEX
 8
CYLINDER
 10
0
 20
0
 30
0
 70
128
 71
266
 72
396
 73
20
 74
20
 0
VERTEX
 8
CYLINDER
 10
0
 20
0
 30
0
 70
128
 71
250
 72
158
 73
19
 74
19
 0
VERTEX
 8
CYLINDER
 10
0
 20
0
 30
0
 70
128
 71
19
 72
21
 73
166
 74
293
 0
VERTEX
 8
CYLINDER
 10
0
 20
0
 30
0
 70
128
 71
293
 72
250
 73
19
 74
19
 0
VERTEX
 8
CYLINDER
 10
0
 20
0
 30
0
 70
128
 71
19
 72
20
 73
22
 74
21
 0
VERTEX
 8
CYLINDER
 10
0
 20
0
 30
0
 70
128
 71
20
 72
191
 73
245
 74
245
 0
VERTEX
 8
CYLINDER
 10
0
 20
0
 30
0
 70
128
 71
20
 72
245
 73
273
 74
273
 0
VERTEX
 8
CYLINDER
 10
0
 20
0
 30
0
 70
128
 71
93
 72
22
 73
20
 74
273
 0
VERTEX
 8
CYLINDER
 10
0
 20
0
 30
0
 70
128
 71
166
 72
21
 73
224
 74
224
 0
VERTEX
 8
CYLINDER
 10
0
 20
0
 30
0
 70
128
 71
23
 72
161
 73
278
 74
278
 0
VERTEX
 8
CYLINDER
 10
0
 20
0
 30
0
 70
128
 71
23
 72
278
 73
407
 74
407
 0
VERTEX
 8
CYLINDER
 10
0
 20
0
 30
0
 70
128
 71
224
 72
21
 73
23
 74
349
 0
VERTEX
 8
CYLINDER
 10
0
 20
0
 30
0
 70
128
 71
23
 72
407
 73
281
 74
281
 0
VERTEX
 8
CYLINDER
 10
0
 20
0
 30
0
 70
128
 71
23
 72
281
 73
347
 74
347
 0
VERTEX
 8
CYLINDER
 10
0
 20
0
 30
0
 70
128
 71
347
 72
349
 73
23
 74
23
 0
VERTEX
 8
CYLINDER
 10
0
 20
0
 30
0
 70
128
 71
21
 72
22
 73
24
 74
23
 0
VERTEX
 8
CYLINDER
 10
0
 20
0
 30
0
 70
128
 71
81
 72
24
 73
286
 74
286
 0
VERTEX
 8
CYLINDER
 10
0
 20
0
 30
0
 70
128
 71
22
 72
93
 73
292
 74
292
 0
VERTEX
 8
CYLINDER
 10
0
 20
0
 30
0
 70
128
 71
22
 72
292
 73
418
 74
418
 0
VERTEX
 8
CYLINDER
 10
0
 20
0
 30
0
 70
128
 71
286
 72
24
 73
22
 74
287
 0
VERTEX
 8
CYLINDER
 10
0
 20
0
 30
0
 70
128
 71
22
 72
418
 73
290
 74
290
 0
VERTEX
 8
CYLINDER
 10
0
 20
0
 30
0
 70
128
 71
22
 72
290
 73
289
 74
289
 0
VERTEX
 8
CYLINDER
 10
0
 20
0
 30
0
 70
128
 71
22
 72
289
 73
287
 74
287
 0
VERTEX
 8
CYLINDER
 10
0
 20
0
 30
0
 70
128
 71
161
 72
23
 73
25
 74
25
 0
VERTEX
 8
CYLINDER
 10
0
 20
0
 30
0
 70
128
 71
25
 72
171
 73
421
 74
421
 0
VERTEX
 8
CYLINDER
 10
0
 20
0
 30
0
 70
128
 71
230
 72
424
 73
25
 74
25
 0
VERTEX
 8
CYLINDER
 10
0
 20
0
 30
0
 70
128
 71
421
 72
270
 73
25
 74
25
 0
VERTEX
 8
CYLINDER
 10
0
 20
0
 30
0
 70
128
 71
297
 72
247
 73
25
 74
25
 0
VERTEX
 8
CYLINDER
 10
0
 20
0
 30
0
 70
128
 71
445
 72
161
 73
25
 74
25
 0
VERTEX
 8
CYLINDER
 10
0
 20
0
 30
0
 70
128
 71
25
 72
270
 73
230
 74
230
 0
VERTEX
 8
CYLINDER
 10
0
 20
0
 30
0
 70
128
 71
247
 72
219
 73
279
 74
429
 0
VERTEX
 8
CYLINDER
 10
0
 20
0
 30
0
 70
128
 71
251
 72
445
 73
25
 74
25
 0
VERTEX
 8
CYLINDER
 10
0
 20
0
 30
0
 70
128
 71
25
 72
424
 73
297
 74
297
 0
VERTEX
 8
CYLINDER
 10
0
 20
0
 30
0
 70
128
 71
247
 72
429
 73
304
 74
25
 0
VERTEX
 8
CYLINDER
 10
0
 20
0
 30
0
 70
128
 71
443
 72
251
 73
25
 74
25
 0
VERTEX
 8
CYLINDER
 10
0
 20
0
 30
0
 70
128
 71
337
 72
443
 73
25
 74
25
 0
VERTEX
 8
CYLINDER
 10
0
 20
0
 30
0
 70
128
 71
25
 72
304
 73
254
 74
254
 0
VERTEX
 8
CYLINDER
 10
0
 20
0
 30
0
 70
128
 71
441
 72
337
 73
25
 74
25
 0
VERTEX
 8
CYLINDER
 10
0
 20
0
 30
0
 70
128
 71
25
 72
254
 73
223
 74
223
 0
VERTEX
 8
CYLINDER
 10
0
 20
0
 30
0
 70
128
 71
440
 72
441
 73
25
 74
25
 0
VERTEX
 8
CYLINDER
 10
0
 20
0
 30
0
 70
128
 71
25
 72
223
 73
308
 74
308
 0
VERTEX
 8
CYLINDER
 10
0
 20
0
 30
0
 70
128
 71
334
 72
440
 73
25
 74
25
 0
VERTEX
 8
CYLINDER
 10
0
 20
0
 30
0
 70
128
 71
25
 72
308
 73
434
 74
434
 0
VERTEX
 8
CYLINDER
 10
0
 20
0
 30
0
 70
128
 71
437
 72
334
 73
25
 74
25
 0
VERTEX
 8
CYLINDER
 10
0
 20
0
 30
0
 70
128
 71
25
 72
434
 73
249
 74
249
 0
VERTEX
 8
CYLINDER
 10
0
 20
0
 30
0
 70
128
 71
271
 72
437
 73
25
 74
25
 0
VERTEX
 8
CYLINDER
 10
0
 20
0
 30
0
 70
128
 71
249
 72
271
 73
25
 74
25
 0
VERTEX
 8
CYLINDER
 10
0
 20
0
 30
0
 70
128
 71
23
 72
24
 73
26
 74
25
 0
VERTEX
 8
CYLINDER
 10
0
 20
0
 30
0
 70
128
 71
99
 72
26
 73
262
 74
269
 0
VERTEX
 8
CYLINDER
 10
0
 20
0
 30
0
 70
128
 71
24
 72
81
 73
301
 74
301
 0
VERTEX
 8
CYLINDER
 10
0
 20
0
 30
0
 70
128
 71
331
 72
329
 73
256
 74
255
 0
VERTEX
 8
CYLINDER
 10
0
 20
0
 30
0
 70
128
 71
448
 72
276
 73
331
 74
331
 0
VERTEX
 8
CYLINDER
 10
0
 20
0
 30
0
 70
128
 71
24
 72
301
 73
344
 74
344
 0
VERTEX
 8
CYLINDER
 10
0
 20
0
 30
0
 70
128
 71
331
 72
255
 73
451
 74
324
 0
VERTEX
 8
CYLINDER
 10
0
 20
0
 30
0
 70
128
 71
24
 72
344
 73
277
 74
277
 0
VERTEX
 8
CYLINDER
 10
0
 20
0
 30
0
 70
128
 71
331
 72
324
 73
258
 74
448
 0
VERTEX
 8
CYLINDER
 10
0
 20
0
 30
0
 70
128
 71
24
 72
277
 73
275
 74
275
 0
VERTEX
 8
CYLINDER
 10
0
 20
0
 30
0
 70
128
 71
331
 72
276
 73
99
 74
269
 0
VERTEX
 8
CYLINDER
 10
0
 20
0
 30
0
 70
128
 71
24
 72
275
 73
274
 74
274
 0
VERTEX
 8
CYLINDER
 10
0
 20
0
 30
0
 70
128
 71
24
 72
274
 73
630
 74
630
 0
VERTEX
 8
CYLINDER
 10
0
 20
0
 30
0
 70
128
 71
24
 72
630
 73
272
 74
272
 0
VERTEX
 8
CYLINDER
 10
0
 20
0
 30
0
 70
128
 71
333
 72
262
 73
26
 74
26
 0
VERTEX
 8
CYLINDER
 10
0
 20
0
 30
0
 70
128
 71
24
 72
272
 73
280
 74
280
 0
VERTEX
 8
CYLINDER
 10
0
 20
0
 30
0
 70
128
 71
333
 72
26
 73
291
 74
291
 0
VERTEX
 8
CYLINDER
 10
0
 20
0
 30
0
 70
128
 71
24
 72
280
 73
360
 74
360
 0
VERTEX
 8
CYLINDER
 10
0
 20
0
 30
0
 70
128
 71
291
 72
26
 73
24
 74
24
 0
VERTEX
 8
CYLINDER
 10
0
 20
0
 30
0
 70
128
 71
24
 72
360
 73
268
 74
268
 0
VERTEX
 8
CYLINDER
 10
0
 20
0
 30
0
 70
128
 71
267
 72
291
 73
24
 74
24
 0
VERTEX
 8
CYLINDER
 10
0
 20
0
 30
0
 70
128
 71
24
 72
268
 73
267
 74
267
 0
VERTEX
 8
CYLINDER
 10
0
 20
0
 30
0
 70
128
 71
25
 72
27
 73
73
 74
348
 0
VERTEX
 8
CYLINDER
 10
0
 20
0
 30
0
 70
128
 71
77
 72
113
 73
285
 74
285
 0
VERTEX
 8
CYLINDER
 10
0
 20
0
 30
0
 70
128
 71
285
 72
353
 73
77
 74
77
 0
VERTEX
 8
CYLINDER
 10
0
 20
0
 30
0
 70
128
 71
77
 72
353
 73
354
 74
284
 0
VERTEX
 8
CYLINDER
 10
0
 20
0
 30
0
 70
128
 71
354
 72
171
 73
25
 74
348
 0
VERTEX
 8
CYLINDER
 10
0
 20
0
 30
0
 70
128
 71
354
 72
348
 73
284
 74
284
 0
VERTEX
 8
CYLINDER
 10
0
 20
0
 30
0
 70
128
 71
25
 72
26
 73
28
 74
27
 0
VERTEX
 8
CYLINDER
 10
0
 20
0
 30
0
 70
128
 71
87
 72
28
 73
26
 74
312
 0
VERTEX
 8
CYLINDER
 10
0
 20
0
 30
0
 70
128
 71
316
 72
127
 73
175
 74
175
 0
VERTEX
 8
CYLINDER
 10
0
 20
0
 30
0
 70
128
 71
26
 72
99
 73
478
 74
312
 0
VERTEX
 8
CYLINDER
 10
0
 20
0
 30
0
 70
128
 71
478
 72
477
 73
175
 74
474
 0
VERTEX
 8
CYLINDER
 10
0
 20
0
 30
0
 70
128
 71
477
 72
316
 73
175
 74
175
 0
VERTEX
 8
CYLINDER
 10
0
 20
0
 30
0
 70
128
 71
474
 72
312
 73
478
 74
478
 0
VERTEX
 8
CYLINDER
 10
0
 20
0
 30
0
 70
128
 71
131
 72
109
 73
305
 74
368
 0
VERTEX
 8
CYLINDER
 10
0
 20
0
 30
0
 70
128
 71
307
 72
113
 73
300
 74
482
 0
VERTEX
 8
CYLINDER
 10
0
 20
0
 30
0
 70
128
 71
113
 72
77
 73
300
 74
300
 0
VERTEX
 8
CYLINDER
 10
0
 20
0
 30
0
 70
128
 71
368
 72
305
 73
323
 74
323
 0
VERTEX
 8
CYLINDER
 10
0
 20
0
 30
0
 70
128
 71
323
 72
305
 73
307
 74
482
 0
VERTEX
 8
CYLINDER
 10
0
 20
0
 30
0
 70
128
 71
365
 72
73
 73
27
 74
27
 0
VERTEX
 8
CYLINDER
 10
0
 20
0
 30
0
 70
128
 71
365
 72
27
 73
29
 74
100
 0
VERTEX
 8
CYLINDER
 10
0
 20
0
 30
0
 70
128
 71
27
 72
28
 73
30
 74
29
 0
VERTEX
 8
CYLINDER
 10
0
 20
0
 30
0
 70
128
 71
494
 72
154
 73
144
 74
315
 0
VERTEX
 8
CYLINDER
 10
0
 20
0
 30
0
 70
128
 71
175
 72
127
 73
318
 74
311
 0
VERTEX
 8
CYLINDER
 10
0
 20
0
 30
0
 70
128
 71
318
 72
494
 73
315
 74
314
 0
VERTEX
 8
CYLINDER
 10
0
 20
0
 30
0
 70
128
 71
490
 72
311
 73
318
 74
318
 0
VERTEX
 8
CYLINDER
 10
0
 20
0
 30
0
 70
128
 71
314
 72
490
 73
318
 74
318
 0
VERTEX
 8
CYLINDER
 10
0
 20
0
 30
0
 70
128
 71
28
 72
87
 73
487
 74
487
 0
VERTEX
 8
CYLINDER
 10
0
 20
0
 30
0
 70
128
 71
114
 72
30
 73
28
 74
487
 0
VERTEX
 8
CYLINDER
 10
0
 20
0
 30
0
 70
128
 71
345
 72
133
 73
83
 74
83
 0
VERTEX
 8
CYLINDER
 10
0
 20
0
 30
0
 70
128
 71
327
 72
109
 73
131
 74
322
 0
VERTEX
 8
CYLINDER
 10
0
 20
0
 30
0
 70
128
 71
83
 72
326
 73
322
 74
345
 0
VERTEX
 8
CYLINDER
 10
0
 20
0
 30
0
 70
128
 71
326
 72
327
 73
322
 74
322
 0
VERTEX
 8
CYLINDER
 10
0
 20
0
 30
0
 70
128
 71
100
 72
29
 73
498
 74
498
 0
VERTEX
 8
CYLINDER
 10
0
 20
0
 30
0
 70
128
 71
31
 72
128
 73
320
 74
29
 0
VERTEX
 8
CYLINDER
 10
0
 20
0
 30
0
 70
128
 71
498
 72
29
 73
320
 74
320
 0
VERTEX
 8
CYLINDER
 10
0
 20
0
 30
0
 70
128
 71
29
 72
30
 73
32
 74
31
 0
VERTEX
 8
CYLINDER
 10
0
 20
0
 30
0
 70
128
 71
144
 72
154
 73
336
 74
332
 0
VERTEX
 8
CYLINDER
 10
0
 20
0
 30
0
 70
128
 71
149
 72
148
 73
509
 74
335
 0
VERTEX
 8
CYLINDER
 10
0
 20
0
 30
0
 70
128
 71
509
 72
332
 73
336
 74
335
 0
VERTEX
 8
CYLINDER
 10
0
 20
0
 30
0
 70
128
 71
390
 72
141
 73
32
 74
30
 0
VERTEX
 8
CYLINDER
 10
0
 20
0
 30
0
 70
128
 71
506
 72
390
 73
30
 74
30
 0
VERTEX
 8
CYLINDER
 10
0
 20
0
 30
0
 70
128
 71
30
 72
114
 73
506
 74
506
 0
VERTEX
 8
CYLINDER
 10
0
 20
0
 30
0
 70
128
 71
83
 72
133
 73
516
 74
516
 0
VERTEX
 8
CYLINDER
 10
0
 20
0
 30
0
 70
128
 71
517
 72
343
 73
83
 74
83
 0
VERTEX
 8
CYLINDER
 10
0
 20
0
 30
0
 70
128
 71
163
 72
411
 73
520
 74
189
 0
VERTEX
 8
CYLINDER
 10
0
 20
0
 30
0
 70
128
 71
351
 72
352
 73
346
 74
346
 0
VERTEX
 8
CYLINDER
 10
0
 20
0
 30
0
 70
128
 71
83
 72
516
 73
517
 74
517
 0
VERTEX
 8
CYLINDER
 10
0
 20
0
 30
0
 70
128
 71
350
 72
351
 73
346
 74
520
 0
VERTEX
 8
CYLINDER
 10
0
 20
0
 30
0
 70
128
 71
83
 72
343
 73
346
 74
352
 0
VERTEX
 8
CYLINDER
 10
0
 20
0
 30
0
 70
128
 71
520
 72
411
 73
350
 74
350
 0
VERTEX
 8
CYLINDER
 10
0
 20
0
 30
0
 70
128
 71
128
 72
31
 73
340
 74
340
 0
VERTEX
 8
CYLINDER
 10
0
 20
0
 30
0
 70
128
 71
33
 72
155
 73
339
 74
31
 0
VERTEX
 8
CYLINDER
 10
0
 20
0
 30
0
 70
128
 71
340
 72
31
 73
339
 74
339
 0
VERTEX
 8
CYLINDER
 10
0
 20
0
 30
0
 70
128
 71
31
 72
32
 73
34
 74
33
 0
VERTEX
 8
CYLINDER
 10
0
 20
0
 30
0
 70
128
 71
358
 72
148
 73
149
 74
149
 0
VERTEX
 8
CYLINDER
 10
0
 20
0
 30
0
 70
128
 71
172
 72
178
 73
363
 74
536
 0
VERTEX
 8
CYLINDER
 10
0
 20
0
 30
0
 70
128
 71
362
 72
532
 73
149
 74
539
 0
VERTEX
 8
CYLINDER
 10
0
 20
0
 30
0
 70
128
 71
366
 72
536
 73
363
 74
363
 0
VERTEX
 8
CYLINDER
 10
0
 20
0
 30
0
 70
128
 71
359
 72
358
 73
149
 74
149
 0
VERTEX
 8
CYLINDER
 10
0
 20
0
 30
0
 70
128
 71
539
 72
367
 73
362
 74
362
 0
VERTEX
 8
CYLINDER
 10
0
 20
0
 30
0
 70
128
 71
532
 72
359
 73
149
 74
149
 0
VERTEX
 8
CYLINDER
 10
0
 20
0
 30
0
 70
128
 71
366
 72
363
 73
362
 74
367
 0
VERTEX
 8
CYLINDER
 10
0
 20
0
 30
0
 70
128
 71
32
 72
141
 73
375
 74
375
 0
VERTEX
 8
CYLINDER
 10
0
 20
0
 30
0
 70
128
 71
32
 72
375
 73
355
 74
355
 0
VERTEX
 8
CYLINDER
 10
0
 20
0
 30
0
 70
128
 71
170
 72
34
 73
32
 74
355
 0
VERTEX
 8
CYLINDER
 10
0
 20
0
 30
0
 70
128
 71
163
 72
189
 73
372
 74
372
 0
VERTEX
 8
CYLINDER
 10
0
 20
0
 30
0
 70
128
 71
377
 72
552
 73
389
 74
563
 0
VERTEX
 8
CYLINDER
 10
0
 20
0
 30
0
 70
128
 71
379
 72
380
 73
381
 74
552
 0
VERTEX
 8
CYLINDER
 10
0
 20
0
 30
0
 70
128
 71
394
 72
376
 73
377
 74
548
 0
VERTEX
 8
CYLINDER
 10
0
 20
0
 30
0
 70
128
 71
383
 72
558
 73
384
 74
382
 0
VERTEX
 8
CYLINDER
 10
0
 20
0
 30
0
 70
128
 71
372
 72
373
 73
163
 74
163
 0
VERTEX
 8
CYLINDER
 10
0
 20
0
 30
0
 70
128
 71
386
 72
388
 73
389
 74
560
 0
VERTEX
 8
CYLINDER
 10
0
 20
0
 30
0
 70
128
 71
381
 72
382
 73
384
 74
552
 0
VERTEX
 8
CYLINDER
 10
0
 20
0
 30
0
 70
128
 71
374
 72
548
 73
163
 74
163
 0
VERTEX
 8
CYLINDER
 10
0
 20
0
 30
0
 70
128
 71
384
 72
560
 73
389
 74
552
 0
VERTEX
 8
CYLINDER
 10
0
 20
0
 30
0
 70
128
 71
163
 72
373
 73
374
 74
374
 0
VERTEX
 8
CYLINDER
 10
0
 20
0
 30
0
 70
128
 71
163
 72
548
 73
377
 74
563
 0
VERTEX
 8
CYLINDER
 10
0
 20
0
 30
0
 70
128
 71
155
 72
33
 73
371
 74
371
 0
VERTEX
 8
CYLINDER
 10
0
 20
0
 30
0
 70
128
 71
35
 72
203
 73
369
 74
33
 0
VERTEX
 8
CYLINDER
 10
0
 20
0
 30
0
 70
128
 71
371
 72
33
 73
370
 74
370
 0
VERTEX
 8
CYLINDER
 10
0
 20
0
 30
0
 70
128
 71
370
 72
33
 73
369
 74
369
 0
VERTEX
 8
CYLINDER
 10
0
 20
0
 30
0
 70
128
 71
33
 72
34
 73
36
 74
35
 0
VERTEX
 8
CYLINDER
 10
0
 20
0
 30
0
 70
128
 71
569
 72
178
 73
172
 74
172
 0
VERTEX
 8
CYLINDER
 10
0
 20
0
 30
0
 70
128
 71
405
 72
404
 73
578
 74
406
 0
VERTEX
 8
CYLINDER
 10
0
 20
0
 30
0
 70
128
 71
403
 72
401
 73
400
 74
399
 0
VERTEX
 8
CYLINDER
 10
0
 20
0
 30
0
 70
128
 71
398
 72
397
 73
172
 74
172
 0
VERTEX
 8
CYLINDER
 10
0
 20
0
 30
0
 70
128
 71
416
 72
470
 73
415
 74
414
 0
VERTEX
 8
CYLINDER
 10
0
 20
0
 30
0
 70
128
 71
410
 72
408
 73
413
 74
412
 0
VERTEX
 8
CYLINDER
 10
0
 20
0
 30
0
 70
128
 71
397
 72
569
 73
172
 74
172
 0
VERTEX
 8
CYLINDER
 10
0
 20
0
 30
0
 70
128
 71
403
 72
399
 73
172
 74
417
 0
VERTEX
 8
CYLINDER
 10
0
 20
0
 30
0
 70
128
 71
413
 72
408
 73
578
 74
404
 0
VERTEX
 8
CYLINDER
 10
0
 20
0
 30
0
 70
128
 71
399
 72
398
 73
172
 74
172
 0
VERTEX
 8
CYLINDER
 10
0
 20
0
 30
0
 70
128
 71
413
 72
404
 73
416
 74
414
 0
VERTEX
 8
CYLINDER
 10
0
 20
0
 30
0
 70
128
 71
403
 72
417
 73
416
 74
404
 0
VERTEX
 8
CYLINDER
 10
0
 20
0
 30
0
 70
128
 71
36
 72
34
 73
565
 74
179
 0
VERTEX
 8
CYLINDER
 10
0
 20
0
 30
0
 70
128
 71
456
 72
565
 73
34
 74
34
 0
VERTEX
 8
CYLINDER
 10
0
 20
0
 30
0
 70
128
 71
34
 72
170
 73
393
 74
393
 0
VERTEX
 8
CYLINDER
 10
0
 20
0
 30
0
 70
128
 71
34
 72
393
 73
456
 74
456
 0
VERTEX
 8
CYLINDER
 10
0
 20
0
 30
0
 70
128
 71
203
 72
35
 73
37
 74
420
 0
VERTEX
 8
CYLINDER
 10
0
 20
0
 30
0
 70
128
 71
37
 72
184
 73
419
 74
419
 0
VERTEX
 8
CYLINDER
 10
0
 20
0
 30
0
 70
128
 71
37
 72
419
 73
420
 74
420
 0
VERTEX
 8
CYLINDER
 10
0
 20
0
 30
0
 70
128
 71
35
 72
36
 73
38
 74
37
 0
VERTEX
 8
CYLINDER
 10
0
 20
0
 30
0
 70
128
 71
190
 72
38
 73
36
 74
422
 0
VERTEX
 8
CYLINDER
 10
0
 20
0
 30
0
 70
128
 71
36
 72
179
 73
423
 74
423
 0
VERTEX
 8
CYLINDER
 10
0
 20
0
 30
0
 70
128
 71
36
 72
423
 73
422
 74
422
 0
VERTEX
 8
CYLINDER
 10
0
 20
0
 30
0
 70
128
 71
39
 72
180
 73
425
 74
425
 0
VERTEX
 8
CYLINDER
 10
0
 20
0
 30
0
 70
128
 71
184
 72
37
 73
428
 74
428
 0
VERTEX
 8
CYLINDER
 10
0
 20
0
 30
0
 70
128
 71
39
 72
425
 73
426
 74
426
 0
VERTEX
 8
CYLINDER
 10
0
 20
0
 30
0
 70
128
 71
428
 72
37
 73
39
 74
427
 0
VERTEX
 8
CYLINDER
 10
0
 20
0
 30
0
 70
128
 71
39
 72
426
 73
427
 74
427
 0
VERTEX
 8
CYLINDER
 10
0
 20
0
 30
0
 70
128
 71
37
 72
38
 73
40
 74
39
 0
VERTEX
 8
CYLINDER
 10
0
 20
0
 30
0
 70
128
 71
430
 72
185
 73
40
 74
40
 0
VERTEX
 8
CYLINDER
 10
0
 20
0
 30
0
 70
128
 71
431
 72
430
 73
40
 74
38
 0
VERTEX
 8
CYLINDER
 10
0
 20
0
 30
0
 70
128
 71
38
 72
190
 73
433
 74
433
 0
VERTEX
 8
CYLINDER
 10
0
 20
0
 30
0
 70
128
 71
432
 72
431
 73
38
 74
38
 0
VERTEX
 8
CYLINDER
 10
0
 20
0
 30
0
 70
128
 71
38
 72
433
 73
432
 74
432
 0
VERTEX
 8
CYLINDER
 10
0
 20
0
 30
0
 70
128
 71
436
 72
180
 73
39
 74
41
 0
VERTEX
 8
CYLINDER
 10
0
 20
0
 30
0
 70
128
 71
41
 72
125
 73
435
 74
435
 0
VERTEX
 8
CYLINDER
 10
0
 20
0
 30
0
 70
128
 71
41
 72
435
 73
436
 74
436
 0
VERTEX
 8
CYLINDER
 10
0
 20
0
 30
0
 70
128
 71
39
 72
40
 73
42
 74
41
 0
VERTEX
 8
CYLINDER
 10
0
 20
0
 30
0
 70
128
 71
40
 72
185
 73
606
 74
42
 0
VERTEX
 8
CYLINDER
 10
0
 20
0
 30
0
 70
128
 71
439
 72
194
 73
42
 74
42
 0
VERTEX
 8
CYLINDER
 10
0
 20
0
 30
0
 70
128
 71
606
 72
439
 73
42
 74
42
 0
VERTEX
 8
CYLINDER
 10
0
 20
0
 30
0
 70
128
 71
442
 72
125
 73
41
 74
41
 0
VERTEX
 8
CYLINDER
 10
0
 20
0
 30
0
 70
128
 71
43
 72
198
 73
442
 74
41
 0
VERTEX
 8
CYLINDER
 10
0
 20
0
 30
0
 70
128
 71
41
 72
42
 73
44
 74
43
 0
VERTEX
 8
CYLINDER
 10
0
 20
0
 30
0
 70
128
 71
42
 72
194
 73
444
 74
444
 0
VERTEX
 8
CYLINDER
 10
0
 20
0
 30
0
 70
128
 71
444
 72
177
 73
44
 74
42
 0
VERTEX
 8
CYLINDER
 10
0
 20
0
 30
0
 70
128
 71
447
 72
198
 73
43
 74
43
 0
VERTEX
 8
CYLINDER
 10
0
 20
0
 30
0
 70
128
 71
45
 72
129
 73
446
 74
43
 0
VERTEX
 8
CYLINDER
 10
0
 20
0
 30
0
 70
128
 71
446
 72
447
 73
43
 74
43
 0
VERTEX
 8
CYLINDER
 10
0
 20
0
 30
0
 70
128
 71
43
 72
44
 73
46
 74
45
 0
VERTEX
 8
CYLINDER
 10
0
 20
0
 30
0
 70
128
 71
44
 72
177
 73
450
 74
450
 0
VERTEX
 8
CYLINDER
 10
0
 20
0
 30
0
 70
128
 71
449
 72
132
 73
46
 74
44
 0
VERTEX
 8
CYLINDER
 10
0
 20
0
 30
0
 70
128
 71
44
 72
450
 73
449
 74
449
 0
VERTEX
 8
CYLINDER
 10
0
 20
0
 30
0
 70
128
 71
47
 72
169
 73
454
 74
45
 0
VERTEX
 8
CYLINDER
 10
0
 20
0
 30
0
 70
128
 71
457
 72
129
 73
45
 74
45
 0
VERTEX
 8
CYLINDER
 10
0
 20
0
 30
0
 70
128
 71
455
 72
457
 73
45
 74
45
 0
VERTEX
 8
CYLINDER
 10
0
 20
0
 30
0
 70
128
 71
454
 72
455
 73
45
 74
45
 0
VERTEX
 8
CYLINDER
 10
0
 20
0
 30
0
 70
128
 71
137
 72
452
 73
453
 74
207
 0
VERTEX
 8
CYLINDER
 10
0
 20
0
 30
0
 70
128
 71
45
 72
46
 73
48
 74
47
 0
VERTEX
 8
CYLINDER
 10
0
 20
0
 30
0
 70
128
 71
460
 72
195
 73
48
 74
46
 0
VERTEX
 8
CYLINDER
 10
0
 20
0
 30
0
 70
128
 71
46
 72
132
 73
462
 74
462
 0
VERTEX
 8
CYLINDER
 10
0
 20
0
 30
0
 70
128
 71
46
 72
462
 73
461
 74
461
 0
VERTEX
 8
CYLINDER
 10
0
 20
0
 30
0
 70
128
 71
46
 72
461
 73
460
 74
460
 0
VERTEX
 8
CYLINDER
 10
0
 20
0
 30
0
 70
128
 71
458
 72
90
 73
152
 74
459
 0
VERTEX
 8
CYLINDER
 10
0
 20
0
 30
0
 70
128
 71
469
 72
169
 73
47
 74
49
 0
VERTEX
 8
CYLINDER
 10
0
 20
0
 30
0
 70
128
 71
49
 72
78
 73
468
 74
468
 0
VERTEX
 8
CYLINDER
 10
0
 20
0
 30
0
 70
128
 71
49
 72
468
 73
469
 74
469
 0
VERTEX
 8
CYLINDER
 10
0
 20
0
 30
0
 70
128
 71
112
 72
111
 73
463
 74
463
 0
VERTEX
 8
CYLINDER
 10
0
 20
0
 30
0
 70
128
 71
465
 72
137
 73
635
 74
635
 0
VERTEX
 8
CYLINDER
 10
0
 20
0
 30
0
 70
128
 71
207
 72
466
 73
635
 74
137
 0
VERTEX
 8
CYLINDER
 10
0
 20
0
 30
0
 70
128
 71
112
 72
463
 73
464
 74
467
 0
VERTEX
 8
CYLINDER
 10
0
 20
0
 30
0
 70
128
 71
464
 72
465
 73
635
 74
467
 0
VERTEX
 8
CYLINDER
 10
0
 20
0
 30
0
 70
128
 71
47
 72
48
 73
50
 74
49
 0
VERTEX
 8
CYLINDER
 10
0
 20
0
 30
0
 70
128
 71
48
 72
195
 73
480
 74
50
 0
VERTEX
 8
CYLINDER
 10
0
 20
0
 30
0
 70
128
 71
479
 72
98
 73
50
 74
50
 0
VERTEX
 8
CYLINDER
 10
0
 20
0
 30
0
 70
128
 71
480
 72
479
 73
50
 74
50
 0
VERTEX
 8
CYLINDER
 10
0
 20
0
 30
0
 70
128
 71
471
 72
85
 73
136
 74
136
 0
VERTEX
 8
CYLINDER
 10
0
 20
0
 30
0
 70
128
 71
152
 72
90
 73
476
 74
475
 0
VERTEX
 8
CYLINDER
 10
0
 20
0
 30
0
 70
128
 71
476
 72
90
 73
473
 74
473
 0
VERTEX
 8
CYLINDER
 10
0
 20
0
 30
0
 70
128
 71
472
 72
471
 73
136
 74
645
 0
VERTEX
 8
CYLINDER
 10
0
 20
0
 30
0
 70
128
 71
476
 72
473
 73
472
 74
645
 0
VERTEX
 8
CYLINDER
 10
0
 20
0
 30
0
 70
128
 71
495
 72
78
 73
49
 74
49
 0
VERTEX
 8
CYLINDER
 10
0
 20
0
 30
0
 70
128
 71
493
 72
495
 73
49
 74
49
 0
VERTEX
 8
CYLINDER
 10
0
 20
0
 30
0
 70
128
 71
51
 72
80
 73
491
 74
491
 0
VERTEX
 8
CYLINDER
 10
0
 20
0
 30
0
 70
128
 71
492
 72
493
 73
49
 74
49
 0
VERTEX
 8
CYLINDER
 10
0
 20
0
 30
0
 70
128
 71
491
 72
492
 73
49
 74
51
 0
VERTEX
 8
CYLINDER
 10
0
 20
0
 30
0
 70
128
 71
485
 72
111
 73
112
 74
112
 0
VERTEX
 8
CYLINDER
 10
0
 20
0
 30
0
 70
128
 71
160
 72
103
 73
481
 74
481
 0
VERTEX
 8
CYLINDER
 10
0
 20
0
 30
0
 70
128
 71
486
 72
657
 73
488
 74
540
 0
VERTEX
 8
CYLINDER
 10
0
 20
0
 30
0
 70
128
 71
488
 72
489
 73
540
 74
540
 0
VERTEX
 8
CYLINDER
 10
0
 20
0
 30
0
 70
128
 71
484
 72
485
 73
112
 74
112
 0
VERTEX
 8
CYLINDER
 10
0
 20
0
 30
0
 70
128
 71
160
 72
481
 73
651
 74
651
 0
VERTEX
 8
CYLINDER
 10
0
 20
0
 30
0
 70
128
 71
160
 72
651
 73
483
 74
483
 0
VERTEX
 8
CYLINDER
 10
0
 20
0
 30
0
 70
128
 71
540
 72
484
 73
112
 74
486
 0
VERTEX
 8
CYLINDER
 10
0
 20
0
 30
0
 70
128
 71
160
 72
483
 73
540
 74
489
 0
VERTEX
 8
CYLINDER
 10
0
 20
0
 30
0
 70
128
 71
49
 72
50
 73
52
 74
51
 0
VERTEX
 8
CYLINDER
 10
0
 20
0
 30
0
 70
128
 71
50
 72
98
 73
510
 74
510
 0
VERTEX
 8
CYLINDER
 10
0
 20
0
 30
0
 70
128
 71
201
 72
52
 73
507
 74
507
 0
VERTEX
 8
CYLINDER
 10
0
 20
0
 30
0
 70
128
 71
50
 72
510
 73
676
 74
676
 0
VERTEX
 8
CYLINDER
 10
0
 20
0
 30
0
 70
128
 71
507
 72
52
 73
50
 74
508
 0
VERTEX
 8
CYLINDER
 10
0
 20
0
 30
0
 70
128
 71
50
 72
676
 73
508
 74
508
 0
VERTEX
 8
CYLINDER
 10
0
 20
0
 30
0
 70
128
 71
136
 72
85
 73
501
 74
501
 0
VERTEX
 8
CYLINDER
 10
0
 20
0
 30
0
 70
128
 71
496
 72
94
 73
176
 74
176
 0
VERTEX
 8
CYLINDER
 10
0
 20
0
 30
0
 70
128
 71
504
 72
503
 73
502
 74
499
 0
VERTEX
 8
CYLINDER
 10
0
 20
0
 30
0
 70
128
 71
176
 72
505
 73
666
 74
497
 0
VERTEX
 8
CYLINDER
 10
0
 20
0
 30
0
 70
128
 71
136
 72
501
 73
500
 74
500
 0
VERTEX
 8
CYLINDER
 10
0
 20
0
 30
0
 70
128
 71
497
 72
496
 73
176
 74
176
 0
VERTEX
 8
CYLINDER
 10
0
 20
0
 30
0
 70
128
 71
505
 72
504
 73
499
 74
666
 0
VERTEX
 8
CYLINDER
 10
0
 20
0
 30
0
 70
128
 71
136
 72
500
 73
499
 74
502
 0
VERTEX
 8
CYLINDER
 10
0
 20
0
 30
0
 70
128
 71
80
 72
51
 73
53
 74
524
 0
VERTEX
 8
CYLINDER
 10
0
 20
0
 30
0
 70
128
 71
53
 72
174
 73
522
 74
522
 0
VERTEX
 8
CYLINDER
 10
0
 20
0
 30
0
 70
128
 71
53
 72
522
 73
523
 74
523
 0
VERTEX
 8
CYLINDER
 10
0
 20
0
 30
0
 70
128
 71
523
 72
524
 73
53
 74
53
 0
VERTEX
 8
CYLINDER
 10
0
 20
0
 30
0
 70
128
 71
521
 72
119
 73
151
 74
511
 0
VERTEX
 8
CYLINDER
 10
0
 20
0
 30
0
 70
128
 71
683
 72
103
 73
518
 74
519
 0
VERTEX
 8
CYLINDER
 10
0
 20
0
 30
0
 70
128
 71
160
 72
518
 73
103
 74
103
 0
VERTEX
 8
CYLINDER
 10
0
 20
0
 30
0
 70
128
 71
515
 72
683
 73
519
 74
519
 0
VERTEX
 8
CYLINDER
 10
0
 20
0
 30
0
 70
128
 71
514
 72
515
 73
519
 74
519
 0
VERTEX
 8
CYLINDER
 10
0
 20
0
 30
0
 70
128
 71
521
 72
511
 73
512
 74
512
 0
VERTEX
 8
CYLINDER
 10
0
 20
0
 30
0
 70
128
 71
513
 72
514
 73
519
 74
521
 0
VERTEX
 8
CYLINDER
 10
0
 20
0
 30
0
 70
128
 71
512
 72
513
 73
521
 74
521
 0
VERTEX
 8
CYLINDER
 10
0
 20
0
 30
0
 70
128
 71
51
 72
52
 73
54
 74
53
 0
VERTEX
 8
CYLINDER
 10
0
 20
0
 30
0
 70
128
 71
173
 72
54
 73
537
 74
537
 0
VERTEX
 8
CYLINDER
 10
0
 20
0
 30
0
 70
128
 71
52
 72
201
 73
702
 74
702
 0
VERTEX
 8
CYLINDER
 10
0
 20
0
 30
0
 70
128
 71
537
 72
54
 73
538
 74
538
 0
VERTEX
 8
CYLINDER
 10
0
 20
0
 30
0
 70
128
 71
538
 72
54
 73
52
 74
702
 0
VERTEX
 8
CYLINDER
 10
0
 20
0
 30
0
 70
128
 71
176
 72
94
 73
533
 74
533
 0
VERTEX
 8
CYLINDER
 10
0
 20
0
 30
0
 70
128
 71
534
 72
533
 73
94
 74
531
 0
VERTEX
 8
CYLINDER
 10
0
 20
0
 30
0
 70
128
 71
199
 72
102
 73
535
 74
525
 0
VERTEX
 8
CYLINDER
 10
0
 20
0
 30
0
 70
128
 71
534
 72
531
 73
530
 74
530
 0
VERTEX
 8
CYLINDER
 10
0
 20
0
 30
0
 70
128
 71
525
 72
535
 73
527
 74
527
 0
VERTEX
 8
CYLINDER
 10
0
 20
0
 30
0
 70
128
 71
527
 72
535
 73
528
 74
528
 0
VERTEX
 8
CYLINDER
 10
0
 20
0
 30
0
 70
128
 71
534
 72
530
 73
529
 74
535
 0
VERTEX
 8
CYLINDER
 10
0
 20
0
 30
0
 70
128
 71
529
 72
528
 73
535
 74
535
 0
VERTEX
 8
CYLINDER
 10
0
 20
0
 30
0
 70
128
 71
151
 72
119
 73
550
 74
549
 0
VERTEX
 8
CYLINDER
 10
0
 20
0
 30
0
 70
128
 71
55
 72
150
 73
541
 74
541
 0
VERTEX
 8
CYLINDER
 10
0
 20
0
 30
0
 70
128
 71
550
 72
174
 73
53
 74
55
 0
VERTEX
 8
CYLINDER
 10
0
 20
0
 30
0
 70
128
 71
55
 72
541
 73
542
 74
542
 0
VERTEX
 8
CYLINDER
 10
0
 20
0
 30
0
 70
128
 71
547
 72
549
 73
550
 74
550
 0
VERTEX
 8
CYLINDER
 10
0
 20
0
 30
0
 70
128
 71
55
 72
542
 73
543
 74
543
 0
VERTEX
 8
CYLINDER
 10
0
 20
0
 30
0
 70
128
 71
546
 72
547
 73
550
 74
55
 0
VERTEX
 8
CYLINDER
 10
0
 20
0
 30
0
 70
128
 71
55
 72
543
 73
544
 74
544
 0
VERTEX
 8
CYLINDER
 10
0
 20
0
 30
0
 70
128
 71
55
 72
544
 73
545
 74
545
 0
VERTEX
 8
CYLINDER
 10
0
 20
0
 30
0
 70
128
 71
545
 72
546
 73
55
 74
55
 0
VERTEX
 8
CYLINDER
 10
0
 20
0
 30
0
 70
128
 71
53
 72
54
 73
56
 74
55
 0
VERTEX
 8
CYLINDER
 10
0
 20
0
 30
0
 70
128
 71
561
 72
102
 73
199
 74
559
 0
VERTEX
 8
CYLINDER
 10
0
 20
0
 30
0
 70
128
 71
551
 72
204
 73
56
 74
56
 0
VERTEX
 8
CYLINDER
 10
0
 20
0
 30
0
 70
128
 71
56
 72
54
 73
173
 74
561
 0
VERTEX
 8
CYLINDER
 10
0
 20
0
 30
0
 70
128
 71
553
 72
551
 73
56
 74
56
 0
VERTEX
 8
CYLINDER
 10
0
 20
0
 30
0
 70
128
 71
561
 72
559
 73
719
 74
719
 0
VERTEX
 8
CYLINDER
 10
0
 20
0
 30
0
 70
128
 71
554
 72
553
 73
56
 74
56
 0
VERTEX
 8
CYLINDER
 10
0
 20
0
 30
0
 70
128
 71
561
 72
719
 73
557
 74
56
 0
VERTEX
 8
CYLINDER
 10
0
 20
0
 30
0
 70
128
 71
555
 72
554
 73
56
 74
56
 0
VERTEX
 8
CYLINDER
 10
0
 20
0
 30
0
 70
128
 71
556
 72
555
 73
56
 74
56
 0
VERTEX
 8
CYLINDER
 10
0
 20
0
 30
0
 70
128
 71
557
 72
556
 73
56
 74
56
 0
VERTEX
 8
CYLINDER
 10
0
 20
0
 30
0
 70
128
 71
55
 72
57
 73
138
 74
562
 0
VERTEX
 8
CYLINDER
 10
0
 20
0
 30
0
 70
128
 71
726
 72
566
 73
567
 74
564
 0
VERTEX
 8
CYLINDER
 10
0
 20
0
 30
0
 70
128
 71
562
 72
140
 73
117
 74
564
 0
VERTEX
 8
CYLINDER
 10
0
 20
0
 30
0
 70
128
 71
570
 72
150
 73
55
 74
55
 0
VERTEX
 8
CYLINDER
 10
0
 20
0
 30
0
 70
128
 71
568
 72
570
 73
55
 74
562
 0
VERTEX
 8
CYLINDER
 10
0
 20
0
 30
0
 70
128
 71
562
 72
564
 73
567
 74
568
 0
VERTEX
 8
CYLINDER
 10
0
 20
0
 30
0
 70
128
 71
55
 72
56
 73
58
 74
57
 0
VERTEX
 8
CYLINDER
 10
0
 20
0
 30
0
 70
128
 71
192
 72
58
 73
56
 74
571
 0
VERTEX
 8
CYLINDER
 10
0
 20
0
 30
0
 70
128
 71
575
 72
574
 73
573
 74
572
 0
VERTEX
 8
CYLINDER
 10
0
 20
0
 30
0
 70
128
 71
156
 72
122
 73
571
 74
572
 0
VERTEX
 8
CYLINDER
 10
0
 20
0
 30
0
 70
128
 71
56
 72
204
 73
577
 74
577
 0
VERTEX
 8
CYLINDER
 10
0
 20
0
 30
0
 70
128
 71
575
 72
572
 73
571
 74
576
 0
VERTEX
 8
CYLINDER
 10
0
 20
0
 30
0
 70
128
 71
571
 72
56
 73
577
 74
576
 0
VERTEX
 8
CYLINDER
 10
0
 20
0
 30
0
 70
128
 71
138
 72
57
 73
580
 74
580
 0
VERTEX
 8
CYLINDER
 10
0
 20
0
 30
0
 70
128
 71
59
 72
197
 73
579
 74
57
 0
VERTEX
 8
CYLINDER
 10
0
 20
0
 30
0
 70
128
 71
57
 72
579
 73
580
 74
580
 0
VERTEX
 8
CYLINDER
 10
0
 20
0
 30
0
 70
128
 71
581
 72
167
 73
168
 74
582
 0
VERTEX
 8
CYLINDER
 10
0
 20
0
 30
0
 70
128
 71
602
 72
603
 73
593
 74
593
 0
VERTEX
 8
CYLINDER
 10
0
 20
0
 30
0
 70
128
 71
596
 72
597
 73
598
 74
593
 0
VERTEX
 8
CYLINDER
 10
0
 20
0
 30
0
 70
128
 71
598
 72
599
 73
600
 74
593
 0
VERTEX
 8
CYLINDER
 10
0
 20
0
 30
0
 70
128
 71
593
 72
594
 73
595
 74
596
 0
VERTEX
 8
CYLINDER
 10
0
 20
0
 30
0
 70
128
 71
601
 72
602
 73
593
 74
593
 0
VERTEX
 8
CYLINDER
 10
0
 20
0
 30
0
 70
128
 71
581
 72
582
 73
583
 74
583
 0
VERTEX
 8
CYLINDER
 10
0
 20
0
 30
0
 70
128
 71
600
 72
601
 73
593
 74
593
 0
VERTEX
 8
CYLINDER
 10
0
 20
0
 30
0
 70
128
 71
581
 72
583
 73
584
 74
584
 0
VERTEX
 8
CYLINDER
 10
0
 20
0
 30
0
 70
128
 71
581
 72
584
 73
585
 74
585
 0
VERTEX
 8
CYLINDER
 10
0
 20
0
 30
0
 70
128
 71
592
 72
593
 73
603
 74
117
 0
VERTEX
 8
CYLINDER
 10
0
 20
0
 30
0
 70
128
 71
581
 72
585
 73
586
 74
586
 0
VERTEX
 8
CYLINDER
 10
0
 20
0
 30
0
 70
128
 71
591
 72
592
 73
117
 74
140
 0
VERTEX
 8
CYLINDER
 10
0
 20
0
 30
0
 70
128
 71
581
 72
586
 73
587
 74
587
 0
VERTEX
 8
CYLINDER
 10
0
 20
0
 30
0
 70
128
 71
590
 72
591
 73
140
 74
140
 0
VERTEX
 8
CYLINDER
 10
0
 20
0
 30
0
 70
128
 71
581
 72
587
 73
588
 74
588
 0
VERTEX
 8
CYLINDER
 10
0
 20
0
 30
0
 70
128
 71
590
 72
140
 73
589
 74
589
 0
VERTEX
 8
CYLINDER
 10
0
 20
0
 30
0
 70
128
 71
581
 72
588
 73
589
 74
140
 0
VERTEX
 8
CYLINDER
 10
0
 20
0
 30
0
 70
128
 71
57
 72
58
 73
60
 74
59
 0
VERTEX
 8
CYLINDER
 10
0
 20
0
 30
0
 70
128
 71
60
 72
58
 73
604
 74
202
 0
VERTEX
 8
CYLINDER
 10
0
 20
0
 30
0
 70
128
 71
605
 72
604
 73
58
 74
58
 0
VERTEX
 8
CYLINDER
 10
0
 20
0
 30
0
 70
128
 71
605
 72
58
 73
192
 74
192
 0
VERTEX
 8
CYLINDER
 10
0
 20
0
 30
0
 70
128
 71
104
 72
91
 73
607
 74
608
 0
VERTEX
 8
CYLINDER
 10
0
 20
0
 30
0
 70
128
 71
607
 72
122
 73
615
 74
614
 0
VERTEX
 8
CYLINDER
 10
0
 20
0
 30
0
 70
128
 71
627
 72
626
 73
619
 74
619
 0
VERTEX
 8
CYLINDER
 10
0
 20
0
 30
0
 70
128
 71
626
 72
625
 73
624
 74
619
 0
VERTEX
 8
CYLINDER
 10
0
 20
0
 30
0
 70
128
 71
622
 72
621
 73
620
 74
619
 0
VERTEX
 8
CYLINDER
 10
0
 20
0
 30
0
 70
128
 71
629
 72
628
 73
619
 74
619
 0
VERTEX
 8
CYLINDER
 10
0
 20
0
 30
0
 70
128
 71
609
 72
608
 73
607
 74
607
 0
VERTEX
 8
CYLINDER
 10
0
 20
0
 30
0
 70
128
 71
628
 72
627
 73
619
 74
619
 0
VERTEX
 8
CYLINDER
 10
0
 20
0
 30
0
 70
128
 71
623
 72
622
 73
619
 74
624
 0
VERTEX
 8
CYLINDER
 10
0
 20
0
 30
0
 70
128
 71
610
 72
609
 73
607
 74
607
 0
VERTEX
 8
CYLINDER
 10
0
 20
0
 30
0
 70
128
 71
611
 72
610
 73
607
 74
607
 0
VERTEX
 8
CYLINDER
 10
0
 20
0
 30
0
 70
128
 71
156
 72
629
 73
619
 74
618
 0
VERTEX
 8
CYLINDER
 10
0
 20
0
 30
0
 70
128
 71
612
 72
611
 73
607
 74
607
 0
VERTEX
 8
CYLINDER
 10
0
 20
0
 30
0
 70
128
 71
613
 72
612
 73
607
 74
607
 0
VERTEX
 8
CYLINDER
 10
0
 20
0
 30
0
 70
128
 71
618
 72
617
 73
122
 74
156
 0
VERTEX
 8
CYLINDER
 10
0
 20
0
 30
0
 70
128
 71
614
 72
613
 73
607
 74
607
 0
VERTEX
 8
CYLINDER
 10
0
 20
0
 30
0
 70
128
 71
122
 72
617
 73
616
 74
616
 0
VERTEX
 8
CYLINDER
 10
0
 20
0
 30
0
 70
128
 71
616
 72
615
 73
122
 74
122
 0
VERTEX
 8
CYLINDER
 10
0
 20
0
 30
0
 70
128
 71
59
 72
61
 73
107
 74
631
 0
VERTEX
 8
CYLINDER
 10
0
 20
0
 30
0
 70
128
 71
632
 72
197
 73
59
 74
59
 0
VERTEX
 8
CYLINDER
 10
0
 20
0
 30
0
 70
128
 71
631
 72
632
 73
59
 74
59
 0
VERTEX
 8
CYLINDER
 10
0
 20
0
 30
0
 70
128
 71
187
 72
120
 73
634
 74
634
 0
VERTEX
 8
CYLINDER
 10
0
 20
0
 30
0
 70
128
 71
168
 72
167
 73
640
 74
640
 0
VERTEX
 8
CYLINDER
 10
0
 20
0
 30
0
 70
128
 71
633
 72
634
 73
120
 74
636
 0
VERTEX
 8
CYLINDER
 10
0
 20
0
 30
0
 70
128
 71
633
 72
636
 73
637
 74
637
 0
VERTEX
 8
CYLINDER
 10
0
 20
0
 30
0
 70
128
 71
639
 72
640
 73
167
 74
633
 0
VERTEX
 8
CYLINDER
 10
0
 20
0
 30
0
 70
128
 71
633
 72
637
 73
638
 74
638
 0
VERTEX
 8
CYLINDER
 10
0
 20
0
 30
0
 70
128
 71
633
 72
638
 73
639
 74
639
 0
VERTEX
 8
CYLINDER
 10
0
 20
0
 30
0
 70
128
 71
59
 72
60
 73
62
 74
61
 0
VERTEX
 8
CYLINDER
 10
0
 20
0
 30
0
 70
128
 71
60
 72
202
 73
642
 74
642
 0
VERTEX
 8
CYLINDER
 10
0
 20
0
 30
0
 70
128
 71
60
 72
642
 73
641
 74
641
 0
VERTEX
 8
CYLINDER
 10
0
 20
0
 30
0
 70
128
 71
641
 72
88
 73
62
 74
60
 0
VERTEX
 8
CYLINDER
 10
0
 20
0
 30
0
 70
128
 71
646
 72
96
 73
193
 74
644
 0
VERTEX
 8
CYLINDER
 10
0
 20
0
 30
0
 70
128
 71
643
 72
91
 73
650
 74
649
 0
VERTEX
 8
CYLINDER
 10
0
 20
0
 30
0
 70
128
 71
91
 72
104
 73
650
 74
650
 0
VERTEX
 8
CYLINDER
 10
0
 20
0
 30
0
 70
128
 71
647
 72
646
 73
644
 74
643
 0
VERTEX
 8
CYLINDER
 10
0
 20
0
 30
0
 70
128
 71
648
 72
647
 73
643
 74
643
 0
VERTEX
 8
CYLINDER
 10
0
 20
0
 30
0
 70
128
 71
649
 72
648
 73
643
 74
643
 0
VERTEX
 8
CYLINDER
 10
0
 20
0
 30
0
 70
128
 71
107
 72
61
 73
653
 74
653
 0
VERTEX
 8
CYLINDER
 10
0
 20
0
 30
0
 70
128
 71
63
 72
142
 73
652
 74
61
 0
VERTEX
 8
CYLINDER
 10
0
 20
0
 30
0
 70
128
 71
61
 72
652
 73
653
 74
653
 0
VERTEX
 8
CYLINDER
 10
0
 20
0
 30
0
 70
128
 71
660
 72
120
 73
187
 74
187
 0
VERTEX
 8
CYLINDER
 10
0
 20
0
 30
0
 70
128
 71
659
 72
660
 73
187
 74
187
 0
VERTEX
 8
CYLINDER
 10
0
 20
0
 30
0
 70
128
 71
656
 72
115
 73
116
 74
658
 0
VERTEX
 8
CYLINDER
 10
0
 20
0
 30
0
 70
128
 71
655
 72
656
 73
658
 74
654
 0
VERTEX
 8
CYLINDER
 10
0
 20
0
 30
0
 70
128
 71
658
 72
659
 73
187
 74
654
 0
VERTEX
 8
CYLINDER
 10
0
 20
0
 30
0
 70
128
 71
61
 72
62
 73
64
 74
63
 0
VERTEX
 8
CYLINDER
 10
0
 20
0
 30
0
 70
128
 71
661
 72
121
 73
64
 74
64
 0
VERTEX
 8
CYLINDER
 10
0
 20
0
 30
0
 70
128
 71
662
 72
661
 73
64
 74
64
 0
VERTEX
 8
CYLINDER
 10
0
 20
0
 30
0
 70
128
 71
662
 72
64
 73
62
 74
88
 0
VERTEX
 8
CYLINDER
 10
0
 20
0
 30
0
 70
128
 71
193
 72
96
 73
669
 74
669
 0
VERTEX
 8
CYLINDER
 10
0
 20
0
 30
0
 70
128
 71
193
 72
669
 73
668
 74
668
 0
VERTEX
 8
CYLINDER
 10
0
 20
0
 30
0
 70
128
 71
667
 72
164
 73
159
 74
665
 0
VERTEX
 8
CYLINDER
 10
0
 20
0
 30
0
 70
128
 71
664
 72
663
 73
667
 74
665
 0
VERTEX
 8
CYLINDER
 10
0
 20
0
 30
0
 70
128
 71
667
 72
663
 73
193
 74
668
 0
VERTEX
 8
CYLINDER
 10
0
 20
0
 30
0
 70
128
 71
65
 72
200
 73
670
 74
670
 0
VERTEX
 8
CYLINDER
 10
0
 20
0
 30
0
 70
128
 71
142
 72
63
 73
673
 74
673
 0
VERTEX
 8
CYLINDER
 10
0
 20
0
 30
0
 70
128
 71
65
 72
670
 73
671
 74
63
 0
VERTEX
 8
CYLINDER
 10
0
 20
0
 30
0
 70
128
 71
673
 72
63
 73
672
 74
672
 0
VERTEX
 8
CYLINDER
 10
0
 20
0
 30
0
 70
128
 71
671
 72
672
 73
63
 74
63
 0
VERTEX
 8
CYLINDER
 10
0
 20
0
 30
0
 70
128
 71
674
 72
675
 73
677
 74
678
 0
VERTEX
 8
CYLINDER
 10
0
 20
0
 30
0
 70
128
 71
675
 72
146
 73
147
 74
677
 0
VERTEX
 8
CYLINDER
 10
0
 20
0
 30
0
 70
128
 71
674
 72
678
 73
116
 74
115
 0
VERTEX
 8
CYLINDER
 10
0
 20
0
 30
0
 70
128
 71
63
 72
64
 73
66
 74
65
 0
VERTEX
 8
CYLINDER
 10
0
 20
0
 30
0
 70
128
 71
679
 72
208
 73
66
 74
66
 0
VERTEX
 8
CYLINDER
 10
0
 20
0
 30
0
 70
128
 71
66
 72
64
 73
680
 74
679
 0
VERTEX
 8
CYLINDER
 10
0
 20
0
 30
0
 70
128
 71
64
 72
121
 73
682
 74
682
 0
VERTEX
 8
CYLINDER
 10
0
 20
0
 30
0
 70
128
 71
681
 72
680
 73
64
 74
64
 0
VERTEX
 8
CYLINDER
 10
0
 20
0
 30
0
 70
128
 71
682
 72
681
 73
64
 74
64
 0
VERTEX
 8
CYLINDER
 10
0
 20
0
 30
0
 70
128
 71
183
 72
685
 73
686
 74
205
 0
VERTEX
 8
CYLINDER
 10
0
 20
0
 30
0
 70
128
 71
159
 72
164
 73
687
 74
684
 0
VERTEX
 8
CYLINDER
 10
0
 20
0
 30
0
 70
128
 71
687
 72
686
 73
685
 74
684
 0
VERTEX
 8
CYLINDER
 10
0
 20
0
 30
0
 70
128
 71
690
 72
200
 73
65
 74
65
 0
VERTEX
 8
CYLINDER
 10
0
 20
0
 30
0
 70
128
 71
689
 72
690
 73
65
 74
65
 0
VERTEX
 8
CYLINDER
 10
0
 20
0
 30
0
 70
128
 71
67
 72
76
 73
688
 74
688
 0
VERTEX
 8
CYLINDER
 10
0
 20
0
 30
0
 70
128
 71
67
 72
688
 73
689
 74
65
 0
VERTEX
 8
CYLINDER
 10
0
 20
0
 30
0
 70
128
 71
698
 72
147
 73
146
 74
697
 0
VERTEX
 8
CYLINDER
 10
0
 20
0
 30
0
 70
128
 71
692
 72
693
 73
694
 74
691
 0
VERTEX
 8
CYLINDER
 10
0
 20
0
 30
0
 70
128
 71
696
 72
697
 73
146
 74
146
 0
VERTEX
 8
CYLINDER
 10
0
 20
0
 30
0
 70
128
 71
694
 72
695
 73
691
 74
691
 0
VERTEX
 8
CYLINDER
 10
0
 20
0
 30
0
 70
128
 71
695
 72
696
 73
146
 74
691
 0
VERTEX
 8
CYLINDER
 10
0
 20
0
 30
0
 70
128
 71
65
 72
66
 73
68
 74
67
 0
VERTEX
 8
CYLINDER
 10
0
 20
0
 30
0
 70
128
 71
66
 72
208
 73
701
 74
701
 0
VERTEX
 8
CYLINDER
 10
0
 20
0
 30
0
 70
128
 71
66
 72
701
 73
700
 74
700
 0
VERTEX
 8
CYLINDER
 10
0
 20
0
 30
0
 70
128
 71
699
 72
196
 73
68
 74
66
 0
VERTEX
 8
CYLINDER
 10
0
 20
0
 30
0
 70
128
 71
700
 72
699
 73
66
 74
66
 0
VERTEX
 8
CYLINDER
 10
0
 20
0
 30
0
 70
128
 71
183
 72
205
 73
710
 74
710
 0
VERTEX
 8
CYLINDER
 10
0
 20
0
 30
0
 70
128
 71
706
 72
705
 73
704
 74
704
 0
VERTEX
 8
CYLINDER
 10
0
 20
0
 30
0
 70
128
 71
708
 72
707
 73
706
 74
704
 0
VERTEX
 8
CYLINDER
 10
0
 20
0
 30
0
 70
128
 71
183
 72
710
 73
709
 74
703
 0
VERTEX
 8
CYLINDER
 10
0
 20
0
 30
0
 70
128
 71
709
 72
708
 73
704
 74
703
 0
VERTEX
 8
CYLINDER
 10
0
 20
0
 30
0
 70
128
 71
76
 72
67
 73
69
 74
714
 0
VERTEX
 8
CYLINDER
 10
0
 20
0
 30
0
 70
128
 71
69
 72
206
 73
711
 74
711
 0
VERTEX
 8
CYLINDER
 10
0
 20
0
 30
0
 70
128
 71
69
 72
711
 73
712
 74
712
 0
VERTEX
 8
CYLINDER
 10
0
 20
0
 30
0
 70
128
 71
69
 72
712
 73
713
 74
713
 0
VERTEX
 8
CYLINDER
 10
0
 20
0
 30
0
 70
128
 71
69
 72
713
 73
714
 74
714
 0
VERTEX
 8
CYLINDER
 10
0
 20
0
 30
0
 70
128
 71
67
 72
68
 73
70
 74
69
 0
VERTEX
 8
CYLINDER
 10
0
 20
0
 30
0
 70
128
 71
126
 72
70
 73
715
 74
715
 0
VERTEX
 8
CYLINDER
 10
0
 20
0
 30
0
 70
128
 71
68
 72
196
 73
718
 74
718
 0
VERTEX
 8
CYLINDER
 10
0
 20
0
 30
0
 70
128
 71
68
 72
718
 73
717
 74
717
 0
VERTEX
 8
CYLINDER
 10
0
 20
0
 30
0
 70
128
 71
715
 72
70
 73
68
 74
716
 0
VERTEX
 8
CYLINDER
 10
0
 20
0
 30
0
 70
128
 71
68
 72
717
 73
716
 74
716
 0
VERTEX
 8
CYLINDER
 10
0
 20
0
 30
0
 70
128
 71
206
 72
69
 73
71
 74
722
 0
VERTEX
 8
CYLINDER
 10
0
 20
0
 30
0
 70
128
 71
71
 72
182
 73
720
 74
720
 0
VERTEX
 8
CYLINDER
 10
0
 20
0
 30
0
 70
128
 71
71
 72
720
 73
721
 74
721
 0
VERTEX
 8
CYLINDER
 10
0
 20
0
 30
0
 70
128
 71
71
 72
721
 73
722
 74
722
 0
VERTEX
 8
CYLINDER
 10
0
 20
0
 30
0
 70
128
 71
69
 72
70
 73
72
 74
71
 0
VERTEX
 8
CYLINDER
 10
0
 20
0
 30
0
 70
128
 71
139
 72
72
 73
723
 74
723
 0
VERTEX
 8
CYLINDER
 10
0
 20
0
 30
0
 70
128
 71
70
 72
126
 73
725
 74
725
 0
VERTEX
 8
CYLINDER
 10
0
 20
0
 30
0
 70
128
 71
70
 72
725
 73
724
 74
72
 0
VERTEX
 8
CYLINDER
 10
0
 20
0
 30
0
 70
128
 71
723
 72
72
 73
724
 74
724
 0
VERTEX
 8
CYLINDER
 10
0
 20
0
 30
0
 70
128
 71
182
 72
71
 73
1
 74
727
 0
VERTEX
 8
CYLINDER
 10
0
 20
0
 30
0
 70
128
 71
1
 72
79
 73
727
 74
727
 0
VERTEX
 8
CYLINDER
 10
0
 20
0
 30
0
 70
128
 71
71
 72
72
 73
2
 74
1
 0
VERTEX
 8
CYLINDER
 10
0
 20
0
 30
0
 70
128
 71
89
 72
2
 73
72
 74
728
 0
VERTEX
 8
CYLINDER
 10
0
 20
0
 30
0
 70
128
 71
72
 72
139
 73
728
 74
728
 0
VERTEX
 8
CYLINDER
 10
0
 20
0
 30
0
 70
128
 71
1257
 72
754
 73
743
 74
1299
 0
VERTEX
 8
CYLINDER
 10
0
 20
0
 30
0
 70
128
 71
1299
 72
729
 73
735
 74
1257
 0
VERTEX
 8
CYLINDER
 10
0
 20
0
 30
0
 70
128
 71
754
 72
1324
 73
1254
 74
743
 0
VERTEX
 8
CYLINDER
 10
0
 20
0
 30
0
 70
128
 71
765
 72
1254
 73
1324
 74
775
 0
VERTEX
 8
CYLINDER
 10
0
 20
0
 30
0
 70
128
 71
765
 72
775
 73
776
 74
766
 0
VERTEX
 8
CYLINDER
 10
0
 20
0
 30
0
 70
128
 71
766
 72
776
 73
1296
 74
1296
 0
VERTEX
 8
CYLINDER
 10
0
 20
0
 30
0
 70
128
 71
787
 72
1336
 73
802
 74
802
 0
VERTEX
 8
CYLINDER
 10
0
 20
0
 30
0
 70
128
 71
766
 72
1296
 73
802
 74
1336
 0
VERTEX
 8
CYLINDER
 10
0
 20
0
 30
0
 70
128
 71
787
 72
802
 73
803
 74
788
 0
VERTEX
 8
CYLINDER
 10
0
 20
0
 30
0
 70
128
 71
788
 72
803
 73
804
 74
789
 0
VERTEX
 8
CYLINDER
 10
0
 20
0
 30
0
 70
128
 71
789
 72
804
 73
805
 74
790
 0
VERTEX
 8
CYLINDER
 10
0
 20
0
 30
0
 70
128
 71
790
 72
805
 73
806
 74
791
 0
VERTEX
 8
CYLINDER
 10
0
 20
0
 30
0
 70
128
 71
791
 72
806
 73
807
 74
792
 0
VERTEX
 8
CYLINDER
 10
0
 20
0
 30
0
 70
128
 71
792
 72
807
 73
808
 74
793
 0
VERTEX
 8
CYLINDER
 10
0
 20
0
 30
0
 70
128
 71
793
 72
808
 73
809
 74
794
 0
VERTEX
 8
CYLINDER
 10
0
 20
0
 30
0
 70
128
 71
794
 72
809
 73
810
 74
795
 0
VERTEX
 8
CYLINDER
 10
0
 20
0
 30
0
 70
128
 71
795
 72
810
 73
811
 74
796
 0
VERTEX
 8
CYLINDER
 10
0
 20
0
 30
0
 70
128
 71
796
 72
811
 73
812
 74
797
 0
VERTEX
 8
CYLINDER
 10
0
 20
0
 30
0
 70
128
 71
797
 72
812
 73
813
 74
798
 0
VERTEX
 8
CYLINDER
 10
0
 20
0
 30
0
 70
128
 71
813
 72
1263
 73
1272
 74
798
 0
VERTEX
 8
CYLINDER
 10
0
 20
0
 30
0
 70
128
 71
768
 72
1272
 73
1263
 74
779
 0
VERTEX
 8
CYLINDER
 10
0
 20
0
 30
0
 70
128
 71
780
 72
769
 73
768
 74
779
 0
VERTEX
 8
CYLINDER
 10
0
 20
0
 30
0
 70
128
 71
781
 72
770
 73
769
 74
780
 0
VERTEX
 8
CYLINDER
 10
0
 20
0
 30
0
 70
128
 71
1282
 72
770
 73
781
 74
1349
 0
VERTEX
 8
CYLINDER
 10
0
 20
0
 30
0
 70
128
 71
1349
 72
756
 73
745
 74
1282
 0
VERTEX
 8
CYLINDER
 10
0
 20
0
 30
0
 70
128
 71
758
 72
747
 73
745
 74
756
 0
VERTEX
 8
CYLINDER
 10
0
 20
0
 30
0
 70
128
 71
759
 72
748
 73
747
 74
758
 0
VERTEX
 8
CYLINDER
 10
0
 20
0
 30
0
 70
128
 71
760
 72
749
 73
748
 74
759
 0
VERTEX
 8
CYLINDER
 10
0
 20
0
 30
0
 70
128
 71
761
 72
750
 73
749
 74
760
 0
VERTEX
 8
CYLINDER
 10
0
 20
0
 30
0
 70
128
 71
1252
 72
750
 73
761
 74
1305
 0
VERTEX
 8
CYLINDER
 10
0
 20
0
 30
0
 70
128
 71
1305
 72
737
 73
731
 74
1252
 0
VERTEX
 8
CYLINDER
 10
0
 20
0
 30
0
 70
128
 71
739
 72
732
 73
731
 74
737
 0
VERTEX
 8
CYLINDER
 10
0
 20
0
 30
0
 70
128
 71
1207
 72
1206
 73
1333
 74
1333
 0
VERTEX
 8
CYLINDER
 10
0
 20
0
 30
0
 70
128
 71
739
 72
1333
 73
1206
 74
1372
 0
VERTEX
 8
CYLINDER
 10
0
 20
0
 30
0
 70
128
 71
732
 72
739
 73
1372
 74
1372
 0
VERTEX
 8
CYLINDER
 10
0
 20
0
 30
0
 70
128
 71
1219
 72
1217
 73
1383
 74
1384
 0
VERTEX
 8
CYLINDER
 10
0
 20
0
 30
0
 70
128
 71
1383
 72
1206
 73
1207
 74
1384
 0
VERTEX
 8
CYLINDER
 10
0
 20
0
 30
0
 70
128
 71
1042
 72
1163
 73
1217
 74
1219
 0
VERTEX
 8
CYLINDER
 10
0
 20
0
 30
0
 70
128
 71
1168
 72
1165
 73
1163
 74
1042
 0
VERTEX
 8
CYLINDER
 10
0
 20
0
 30
0
 70
128
 71
1247
 72
1153
 73
1382
 74
1382
 0
VERTEX
 8
CYLINDER
 10
0
 20
0
 30
0
 70
128
 71
1381
 72
1165
 73
1153
 74
1153
 0
VERTEX
 8
CYLINDER
 10
0
 20
0
 30
0
 70
128
 71
1382
 72
1153
 73
1165
 74
1168
 0
VERTEX
 8
CYLINDER
 10
0
 20
0
 30
0
 70
128
 71
1241
 72
1209
 73
1153
 74
1247
 0
VERTEX
 8
CYLINDER
 10
0
 20
0
 30
0
 70
128
 71
1213
 72
1156
 73
1209
 74
1241
 0
VERTEX
 8
CYLINDER
 10
0
 20
0
 30
0
 70
128
 71
1214
 72
1029
 73
1156
 74
1213
 0
VERTEX
 8
CYLINDER
 10
0
 20
0
 30
0
 70
128
 71
1371
 72
1029
 73
1214
 74
1378
 0
VERTEX
 8
CYLINDER
 10
0
 20
0
 30
0
 70
128
 71
1378
 72
1013
 73
1235
 74
1371
 0
VERTEX
 8
CYLINDER
 10
0
 20
0
 30
0
 70
128
 71
1196
 72
1185
 73
1235
 74
1013
 0
VERTEX
 8
CYLINDER
 10
0
 20
0
 30
0
 70
128
 71
1197
 72
1186
 73
1185
 74
1196
 0
VERTEX
 8
CYLINDER
 10
0
 20
0
 30
0
 70
128
 71
974
 72
1346
 73
1358
 74
1174
 0
VERTEX
 8
CYLINDER
 10
0
 20
0
 30
0
 70
128
 71
1197
 72
1358
 73
1346
 74
1186
 0
VERTEX
 8
CYLINDER
 10
0
 20
0
 30
0
 70
128
 71
974
 72
1174
 73
1242
 74
1244
 0
VERTEX
 8
CYLINDER
 10
0
 20
0
 30
0
 70
128
 71
1244
 72
1242
 73
1177
 74
1167
 0
VERTEX
 8
CYLINDER
 10
0
 20
0
 30
0
 70
128
 71
1167
 72
1177
 73
1116
 74
979
 0
VERTEX
 8
CYLINDER
 10
0
 20
0
 30
0
 70
128
 71
1116
 72
1335
 73
1344
 74
979
 0
VERTEX
 8
CYLINDER
 10
0
 20
0
 30
0
 70
128
 71
1077
 72
1344
 73
1335
 74
1210
 0
VERTEX
 8
CYLINDER
 10
0
 20
0
 30
0
 70
128
 71
1077
 72
1210
 73
963
 74
952
 0
VERTEX
 8
CYLINDER
 10
0
 20
0
 30
0
 70
128
 71
963
 72
1337
 73
952
 74
952
 0
VERTEX
 8
CYLINDER
 10
0
 20
0
 30
0
 70
128
 71
1248
 72
1286
 73
1107
 74
1107
 0
VERTEX
 8
CYLINDER
 10
0
 20
0
 30
0
 70
128
 71
952
 72
1337
 73
1107
 74
1286
 0
VERTEX
 8
CYLINDER
 10
0
 20
0
 30
0
 70
128
 71
1248
 72
1107
 73
1131
 74
1180
 0
VERTEX
 8
CYLINDER
 10
0
 20
0
 30
0
 70
128
 71
1123
 72
1319
 73
1131
 74
1284
 0
VERTEX
 8
CYLINDER
 10
0
 20
0
 30
0
 70
128
 71
1319
 72
1180
 73
1131
 74
1131
 0
VERTEX
 8
CYLINDER
 10
0
 20
0
 30
0
 70
128
 71
1123
 72
1284
 73
1026
 74
1026
 0
VERTEX
 8
CYLINDER
 10
0
 20
0
 30
0
 70
128
 71
1123
 72
1026
 73
1239
 74
1183
 0
VERTEX
 8
CYLINDER
 10
0
 20
0
 30
0
 70
128
 71
1239
 72
1357
 73
1183
 74
1183
 0
VERTEX
 8
CYLINDER
 10
0
 20
0
 30
0
 70
128
 71
1220
 72
1264
 73
1051
 74
1051
 0
VERTEX
 8
CYLINDER
 10
0
 20
0
 30
0
 70
128
 71
1051
 72
1264
 73
1183
 74
1357
 0
VERTEX
 8
CYLINDER
 10
0
 20
0
 30
0
 70
128
 71
1051
 72
1281
 73
1126
 74
1370
 0
VERTEX
 8
CYLINDER
 10
0
 20
0
 30
0
 70
128
 71
1281
 72
1088
 73
1126
 74
1126
 0
VERTEX
 8
CYLINDER
 10
0
 20
0
 30
0
 70
128
 71
1370
 72
1220
 73
1051
 74
1051
 0
VERTEX
 8
CYLINDER
 10
0
 20
0
 30
0
 70
128
 71
1088
 72
1283
 73
1302
 74
1126
 0
VERTEX
 8
CYLINDER
 10
0
 20
0
 30
0
 70
128
 71
1121
 72
1302
 73
1283
 74
741
 0
VERTEX
 8
CYLINDER
 10
0
 20
0
 30
0
 70
128
 71
1121
 72
741
 73
1191
 74
1182
 0
VERTEX
 8
CYLINDER
 10
0
 20
0
 30
0
 70
128
 71
1182
 72
1191
 73
1312
 74
1307
 0
VERTEX
 8
CYLINDER
 10
0
 20
0
 30
0
 70
128
 71
1312
 72
1237
 73
1146
 74
1307
 0
VERTEX
 8
CYLINDER
 10
0
 20
0
 30
0
 70
128
 71
1146
 72
1237
 73
966
 74
1147
 0
VERTEX
 8
CYLINDER
 10
0
 20
0
 30
0
 70
128
 71
1147
 72
966
 73
1159
 74
1148
 0
VERTEX
 8
CYLINDER
 10
0
 20
0
 30
0
 70
128
 71
1148
 72
1159
 73
1364
 74
1351
 0
VERTEX
 8
CYLINDER
 10
0
 20
0
 30
0
 70
128
 71
1364
 72
1179
 73
785
 74
1351
 0
VERTEX
 8
CYLINDER
 10
0
 20
0
 30
0
 70
128
 71
785
 72
1179
 73
1240
 74
1170
 0
VERTEX
 8
CYLINDER
 10
0
 20
0
 30
0
 70
128
 71
1170
 72
1240
 73
1354
 74
1354
 0
VERTEX
 8
CYLINDER
 10
0
 20
0
 30
0
 70
128
 71
1238
 72
1354
 73
1240
 74
1380
 0
VERTEX
 8
CYLINDER
 10
0
 20
0
 30
0
 70
128
 71
825
 72
1238
 73
1380
 74
1380
 0
VERTEX
 8
CYLINDER
 10
0
 20
0
 30
0
 70
128
 71
1238
 72
825
 73
1218
 74
1246
 0
VERTEX
 8
CYLINDER
 10
0
 20
0
 30
0
 70
128
 71
1246
 72
1218
 73
1145
 74
1189
 0
VERTEX
 8
CYLINDER
 10
0
 20
0
 30
0
 70
128
 71
1189
 72
1145
 73
1245
 74
1132
 0
VERTEX
 8
CYLINDER
 10
0
 20
0
 30
0
 70
128
 71
1132
 72
1245
 73
1022
 74
1226
 0
VERTEX
 8
CYLINDER
 10
0
 20
0
 30
0
 70
128
 71
1226
 72
1022
 73
1236
 74
1135
 0
VERTEX
 8
CYLINDER
 10
0
 20
0
 30
0
 70
128
 71
1135
 72
1236
 73
1223
 74
1136
 0
VERTEX
 8
CYLINDER
 10
0
 20
0
 30
0
 70
128
 71
1136
 72
1223
 73
1188
 74
1137
 0
VERTEX
 8
CYLINDER
 10
0
 20
0
 30
0
 70
128
 71
1188
 72
1366
 73
1137
 74
1137
 0
VERTEX
 8
CYLINDER
 10
0
 20
0
 30
0
 70
128
 71
985
 72
1375
 73
996
 74
996
 0
VERTEX
 8
CYLINDER
 10
0
 20
0
 30
0
 70
128
 71
1137
 72
1366
 73
996
 74
1375
 0
VERTEX
 8
CYLINDER
 10
0
 20
0
 30
0
 70
128
 71
985
 72
996
 73
1061
 74
1227
 0
VERTEX
 8
CYLINDER
 10
0
 20
0
 30
0
 70
128
 71
1061
 72
1369
 73
1150
 74
1356
 0
VERTEX
 8
CYLINDER
 10
0
 20
0
 30
0
 70
128
 71
1369
 72
1161
 73
1150
 74
1150
 0
VERTEX
 8
CYLINDER
 10
0
 20
0
 30
0
 70
128
 71
1356
 72
1227
 73
1061
 74
1061
 0
VERTEX
 8
CYLINDER
 10
0
 20
0
 30
0
 70
128
 71
1150
 72
1161
 73
1162
 74
958
 0
VERTEX
 8
CYLINDER
 10
0
 20
0
 30
0
 70
128
 71
958
 72
1162
 73
973
 74
959
 0
VERTEX
 8
CYLINDER
 10
0
 20
0
 30
0
 70
128
 71
973
 72
1313
 73
959
 74
959
 0
VERTEX
 8
CYLINDER
 10
0
 20
0
 30
0
 70
128
 71
931
 72
1298
 73
944
 74
944
 0
VERTEX
 8
CYLINDER
 10
0
 20
0
 30
0
 70
128
 71
1298
 72
959
 73
1313
 74
944
 0
VERTEX
 8
CYLINDER
 10
0
 20
0
 30
0
 70
128
 71
931
 72
944
 73
1138
 74
933
 0
VERTEX
 8
CYLINDER
 10
0
 20
0
 30
0
 70
128
 71
933
 72
1138
 73
1194
 74
934
 0
VERTEX
 8
CYLINDER
 10
0
 20
0
 30
0
 70
128
 71
934
 72
1194
 73
947
 74
1128
 0
VERTEX
 8
CYLINDER
 10
0
 20
0
 30
0
 70
128
 71
1128
 72
947
 73
1140
 74
936
 0
VERTEX
 8
CYLINDER
 10
0
 20
0
 30
0
 70
128
 71
1140
 72
1338
 73
936
 74
936
 0
VERTEX
 8
CYLINDER
 10
0
 20
0
 30
0
 70
128
 71
1065
 72
1306
 73
1091
 74
1091
 0
VERTEX
 8
CYLINDER
 10
0
 20
0
 30
0
 70
128
 71
936
 72
1338
 73
1091
 74
1306
 0
VERTEX
 8
CYLINDER
 10
0
 20
0
 30
0
 70
128
 71
1065
 72
1091
 73
1211
 74
1129
 0
VERTEX
 8
CYLINDER
 10
0
 20
0
 30
0
 70
128
 71
1129
 72
1211
 73
1093
 74
1171
 0
VERTEX
 8
CYLINDER
 10
0
 20
0
 30
0
 70
128
 71
1171
 72
1093
 73
1094
 74
1224
 0
VERTEX
 8
CYLINDER
 10
0
 20
0
 30
0
 70
128
 71
1224
 72
1094
 73
1232
 74
1068
 0
VERTEX
 8
CYLINDER
 10
0
 20
0
 30
0
 70
128
 71
1068
 72
1232
 73
1096
 74
1190
 0
VERTEX
 8
CYLINDER
 10
0
 20
0
 30
0
 70
128
 71
1190
 72
1096
 73
1198
 74
1069
 0
VERTEX
 8
CYLINDER
 10
0
 20
0
 30
0
 70
128
 71
1069
 72
1198
 73
1199
 74
1070
 0
VERTEX
 8
CYLINDER
 10
0
 20
0
 30
0
 70
128
 71
1070
 72
1199
 73
1099
 74
1192
 0
VERTEX
 8
CYLINDER
 10
0
 20
0
 30
0
 70
128
 71
1192
 72
1099
 73
1243
 74
1193
 0
VERTEX
 8
CYLINDER
 10
0
 20
0
 30
0
 70
128
 71
1193
 72
1243
 73
1102
 74
1072
 0
VERTEX
 8
CYLINDER
 10
0
 20
0
 30
0
 70
128
 71
1072
 72
1102
 73
1221
 74
1195
 0
VERTEX
 8
CYLINDER
 10
0
 20
0
 30
0
 70
128
 71
1195
 72
1221
 73
1104
 74
1215
 0
VERTEX
 8
CYLINDER
 10
0
 20
0
 30
0
 70
128
 71
1215
 72
1104
 73
1222
 74
1141
 0
VERTEX
 8
CYLINDER
 10
0
 20
0
 30
0
 70
128
 71
1141
 72
1222
 73
1233
 74
1142
 0
VERTEX
 8
CYLINDER
 10
0
 20
0
 30
0
 70
128
 71
1142
 72
1233
 73
1106
 74
1018
 0
VERTEX
 8
CYLINDER
 10
0
 20
0
 30
0
 70
128
 71
1018
 72
1106
 73
1108
 74
1184
 0
VERTEX
 8
CYLINDER
 10
0
 20
0
 30
0
 70
128
 71
1184
 72
1108
 73
1225
 74
1234
 0
VERTEX
 8
CYLINDER
 10
0
 20
0
 30
0
 70
128
 71
1234
 72
1225
 73
1110
 74
1201
 0
VERTEX
 8
CYLINDER
 10
0
 20
0
 30
0
 70
128
 71
1201
 72
1110
 73
1112
 74
1202
 0
VERTEX
 8
CYLINDER
 10
0
 20
0
 30
0
 70
128
 71
1202
 72
1112
 73
1229
 74
1082
 0
VERTEX
 8
CYLINDER
 10
0
 20
0
 30
0
 70
128
 71
1082
 72
1229
 73
1176
 74
1187
 0
VERTEX
 8
CYLINDER
 10
0
 20
0
 30
0
 70
128
 71
1176
 72
1360
 73
1187
 74
1187
 0
VERTEX
 8
CYLINDER
 10
0
 20
0
 30
0
 70
128
 71
1043
 72
1330
 73
1228
 74
1228
 0
VERTEX
 8
CYLINDER
 10
0
 20
0
 30
0
 70
128
 71
1187
 72
1360
 73
1228
 74
1330
 0
VERTEX
 8
CYLINDER
 10
0
 20
0
 30
0
 70
128
 71
1043
 72
1228
 73
1054
 74
1169
 0
VERTEX
 8
CYLINDER
 10
0
 20
0
 30
0
 70
128
 71
1169
 72
1054
 73
1230
 74
1205
 0
VERTEX
 8
CYLINDER
 10
0
 20
0
 30
0
 70
128
 71
1231
 72
1046
 73
1205
 74
1230
 0
VERTEX
 8
CYLINDER
 10
0
 20
0
 30
0
 70
128
 71
1057
 72
1047
 73
1046
 74
1231
 0
VERTEX
 8
CYLINDER
 10
0
 20
0
 30
0
 70
128
 71
1181
 72
1173
 73
1047
 74
1057
 0
VERTEX
 8
CYLINDER
 10
0
 20
0
 30
0
 70
128
 71
1030
 72
1144
 73
1317
 74
1317
 0
VERTEX
 8
CYLINDER
 10
0
 20
0
 30
0
 70
128
 71
1181
 72
1293
 73
1173
 74
1173
 0
VERTEX
 8
CYLINDER
 10
0
 20
0
 30
0
 70
128
 71
1173
 72
1293
 73
1030
 74
1317
 0
VERTEX
 8
CYLINDER
 10
0
 20
0
 30
0
 70
128
 71
1090
 72
1020
 73
1144
 74
1030
 0
VERTEX
 8
CYLINDER
 10
0
 20
0
 30
0
 70
128
 71
1158
 72
1200
 73
1020
 74
1090
 0
VERTEX
 8
CYLINDER
 10
0
 20
0
 30
0
 70
128
 71
1212
 72
829
 73
1200
 74
1158
 0
VERTEX
 8
CYLINDER
 10
0
 20
0
 30
0
 70
128
 71
1160
 72
1203
 73
829
 74
1212
 0
VERTEX
 8
CYLINDER
 10
0
 20
0
 30
0
 70
128
 71
1035
 72
1204
 73
1203
 74
1160
 0
VERTEX
 8
CYLINDER
 10
0
 20
0
 30
0
 70
128
 71
1036
 72
1151
 73
1204
 74
1035
 0
VERTEX
 8
CYLINDER
 10
0
 20
0
 30
0
 70
128
 71
1151
 72
1036
 73
1216
 74
960
 0
VERTEX
 8
CYLINDER
 10
0
 20
0
 30
0
 70
128
 71
1111
 72
1331
 73
1216
 74
1304
 0
VERTEX
 8
CYLINDER
 10
0
 20
0
 30
0
 70
128
 71
1331
 72
960
 73
1216
 74
1216
 0
VERTEX
 8
CYLINDER
 10
0
 20
0
 30
0
 70
128
 71
1111
 72
1304
 73
937
 74
937
 0
VERTEX
 8
CYLINDER
 10
0
 20
0
 30
0
 70
128
 71
1111
 72
937
 73
1130
 74
988
 0
VERTEX
 8
CYLINDER
 10
0
 20
0
 30
0
 70
128
 71
988
 72
1130
 73
1172
 74
1175
 0
VERTEX
 8
CYLINDER
 10
0
 20
0
 30
0
 70
128
 71
1175
 72
1172
 73
1006
 74
1115
 0
VERTEX
 8
CYLINDER
 10
0
 20
0
 30
0
 70
128
 71
1115
 72
1006
 73
1007
 74
991
 0
VERTEX
 8
CYLINDER
 10
0
 20
0
 30
0
 70
128
 71
991
 72
1007
 73
1133
 74
1178
 0
VERTEX
 8
CYLINDER
 10
0
 20
0
 30
0
 70
128
 71
948
 72
1365
 73
1133
 74
1376
 0
VERTEX
 8
CYLINDER
 10
0
 20
0
 30
0
 70
128
 71
1365
 72
1178
 73
1133
 74
1133
 0
VERTEX
 8
CYLINDER
 10
0
 20
0
 30
0
 70
128
 71
948
 72
1376
 73
967
 74
967
 0
VERTEX
 8
CYLINDER
 10
0
 20
0
 30
0
 70
128
 71
948
 72
967
 73
968
 74
949
 0
VERTEX
 8
CYLINDER
 10
0
 20
0
 30
0
 70
128
 71
949
 72
968
 73
969
 74
950
 0
VERTEX
 8
CYLINDER
 10
0
 20
0
 30
0
 70
128
 71
950
 72
969
 73
970
 74
1143
 0
VERTEX
 8
CYLINDER
 10
0
 20
0
 30
0
 70
128
 71
1143
 72
970
 73
971
 74
755
 0
VERTEX
 8
CYLINDER
 10
0
 20
0
 30
0
 70
128
 71
755
 72
971
 73
972
 74
953
 0
VERTEX
 8
CYLINDER
 10
0
 20
0
 30
0
 70
128
 71
972
 72
1250
 73
953
 74
953
 0
VERTEX
 8
CYLINDER
 10
0
 20
0
 30
0
 70
128
 71
1117
 72
1297
 73
1066
 74
1066
 0
VERTEX
 8
CYLINDER
 10
0
 20
0
 30
0
 70
128
 71
1297
 72
953
 73
1250
 74
1066
 0
VERTEX
 8
CYLINDER
 10
0
 20
0
 30
0
 70
128
 71
1117
 72
1066
 73
738
 74
1118
 0
VERTEX
 8
CYLINDER
 10
0
 20
0
 30
0
 70
128
 71
1118
 72
738
 73
939
 74
1119
 0
VERTEX
 8
CYLINDER
 10
0
 20
0
 30
0
 70
128
 71
939
 72
1273
 73
1119
 74
1119
 0
VERTEX
 8
CYLINDER
 10
0
 20
0
 30
0
 70
128
 71
1100
 72
1280
 73
1085
 74
1085
 0
VERTEX
 8
CYLINDER
 10
0
 20
0
 30
0
 70
128
 71
1119
 72
1273
 73
1085
 74
1280
 0
VERTEX
 8
CYLINDER
 10
0
 20
0
 30
0
 70
128
 71
1109
 72
1101
 73
1100
 74
1085
 0
VERTEX
 8
CYLINDER
 10
0
 20
0
 30
0
 70
128
 71
742
 72
1122
 73
1301
 74
1301
 0
VERTEX
 8
CYLINDER
 10
0
 20
0
 30
0
 70
128
 71
1122
 72
1322
 73
1109
 74
1301
 0
VERTEX
 8
CYLINDER
 10
0
 20
0
 30
0
 70
128
 71
1101
 72
1109
 73
1322
 74
1322
 0
VERTEX
 8
CYLINDER
 10
0
 20
0
 30
0
 70
128
 71
1134
 72
929
 73
1122
 74
742
 0
VERTEX
 8
CYLINDER
 10
0
 20
0
 30
0
 70
128
 71
943
 72
930
 73
929
 74
1134
 0
VERTEX
 8
CYLINDER
 10
0
 20
0
 30
0
 70
128
 71
1327
 72
930
 73
943
 74
1251
 0
VERTEX
 8
CYLINDER
 10
0
 20
0
 30
0
 70
128
 71
1251
 72
778
 73
955
 74
1327
 0
VERTEX
 8
CYLINDER
 10
0
 20
0
 30
0
 70
128
 71
1166
 72
1149
 73
955
 74
778
 0
VERTEX
 8
CYLINDER
 10
0
 20
0
 30
0
 70
128
 71
977
 72
957
 73
1149
 74
1166
 0
VERTEX
 8
CYLINDER
 10
0
 20
0
 30
0
 70
128
 71
978
 72
762
 73
957
 74
977
 0
VERTEX
 8
CYLINDER
 10
0
 20
0
 30
0
 70
128
 71
978
 72
1350
 73
762
 74
762
 0
VERTEX
 8
CYLINDER
 10
0
 20
0
 30
0
 70
128
 71
1120
 72
1332
 73
1011
 74
1011
 0
VERTEX
 8
CYLINDER
 10
0
 20
0
 30
0
 70
128
 71
762
 72
1350
 73
1011
 74
1332
 0
VERTEX
 8
CYLINDER
 10
0
 20
0
 30
0
 70
128
 71
1120
 72
1011
 73
816
 74
995
 0
VERTEX
 8
CYLINDER
 10
0
 20
0
 30
0
 70
128
 71
995
 72
816
 73
818
 74
801
 0
VERTEX
 8
CYLINDER
 10
0
 20
0
 30
0
 70
128
 71
818
 72
1270
 73
1368
 74
801
 0
VERTEX
 8
CYLINDER
 10
0
 20
0
 30
0
 70
128
 71
1208
 72
1368
 73
1270
 74
1164
 0
VERTEX
 8
CYLINDER
 10
0
 20
0
 30
0
 70
128
 71
1164
 72
1287
 73
1208
 74
1208
 0
VERTEX
 8
CYLINDER
 10
0
 20
0
 30
0
 70
128
 71
1124
 72
1258
 73
1015
 74
1015
 0
VERTEX
 8
CYLINDER
 10
0
 20
0
 30
0
 70
128
 71
1258
 72
1208
 73
1287
 74
1015
 0
VERTEX
 8
CYLINDER
 10
0
 20
0
 30
0
 70
128
 71
1124
 72
1015
 73
1016
 74
1125
 0
VERTEX
 8
CYLINDER
 10
0
 20
0
 30
0
 70
128
 71
1125
 72
1016
 73
1017
 74
1064
 0
VERTEX
 8
CYLINDER
 10
0
 20
0
 30
0
 70
128
 71
1017
 72
1352
 73
1275
 74
1064
 0
VERTEX
 8
CYLINDER
 10
0
 20
0
 30
0
 70
128
 71
1154
 72
1275
 73
1352
 74
981
 0
VERTEX
 8
CYLINDER
 10
0
 20
0
 30
0
 70
128
 71
1154
 72
981
 73
982
 74
1155
 0
VERTEX
 8
CYLINDER
 10
0
 20
0
 30
0
 70
128
 71
1155
 72
982
 73
1152
 74
767
 0
VERTEX
 8
CYLINDER
 10
0
 20
0
 30
0
 70
128
 71
767
 72
1152
 73
984
 74
1157
 0
VERTEX
 8
CYLINDER
 10
0
 20
0
 30
0
 70
128
 71
984
 72
1339
 73
1157
 74
1157
 0
VERTEX
 8
CYLINDER
 10
0
 20
0
 30
0
 70
128
 71
733
 72
1255
 73
945
 74
945
 0
VERTEX
 8
CYLINDER
 10
0
 20
0
 30
0
 70
128
 71
1157
 72
1339
 73
945
 74
1255
 0
VERTEX
 8
CYLINDER
 10
0
 20
0
 30
0
 70
128
 71
733
 72
945
 73
1139
 74
1127
 0
VERTEX
 8
CYLINDER
 10
0
 20
0
 30
0
 70
128
 71
1139
 72
1334
 73
1127
 74
1127
 0
VERTEX
 8
CYLINDER
 10
0
 20
0
 30
0
 70
128
 71
1103
 72
1268
 73
1050
 74
1050
 0
VERTEX
 8
CYLINDER
 10
0
 20
0
 30
0
 70
128
 71
1127
 72
1334
 73
1050
 74
1268
 0
VERTEX
 8
CYLINDER
 10
0
 20
0
 30
0
 70
128
 71
1103
 72
1050
 73
1113
 74
1044
 0
VERTEX
 8
CYLINDER
 10
0
 20
0
 30
0
 70
128
 71
1044
 72
1113
 73
1114
 74
1105
 0
VERTEX
 8
CYLINDER
 10
0
 20
0
 30
0
 70
128
 71
1105
 72
1114
 73
1292
 74
1292
 0
VERTEX
 8
CYLINDER
 10
0
 20
0
 30
0
 70
128
 71
904
 72
1341
 73
1097
 74
1097
 0
VERTEX
 8
CYLINDER
 10
0
 20
0
 30
0
 70
128
 71
1341
 72
1105
 73
1292
 74
1097
 0
VERTEX
 8
CYLINDER
 10
0
 20
0
 30
0
 70
128
 71
904
 72
1097
 73
1098
 74
1095
 0
VERTEX
 8
CYLINDER
 10
0
 20
0
 30
0
 70
128
 71
1095
 72
1098
 73
1345
 74
1291
 0
VERTEX
 8
CYLINDER
 10
0
 20
0
 30
0
 70
128
 71
1345
 72
1092
 73
1089
 74
1291
 0
VERTEX
 8
CYLINDER
 10
0
 20
0
 30
0
 70
128
 71
1089
 72
1092
 73
1262
 74
1262
 0
VERTEX
 8
CYLINDER
 10
0
 20
0
 30
0
 70
128
 71
1083
 72
1262
 73
1092
 74
1309
 0
VERTEX
 8
CYLINDER
 10
0
 20
0
 30
0
 70
128
 71
1086
 72
1083
 73
1309
 74
1309
 0
VERTEX
 8
CYLINDER
 10
0
 20
0
 30
0
 70
128
 71
1083
 72
1086
 73
1087
 74
1084
 0
VERTEX
 8
CYLINDER
 10
0
 20
0
 30
0
 70
128
 71
1084
 72
1087
 73
1323
 74
1316
 0
VERTEX
 8
CYLINDER
 10
0
 20
0
 30
0
 70
128
 71
1078
 72
1073
 73
1316
 74
1323
 0
VERTEX
 8
CYLINDER
 10
0
 20
0
 30
0
 70
128
 71
1073
 72
1078
 73
1079
 74
1074
 0
VERTEX
 8
CYLINDER
 10
0
 20
0
 30
0
 70
128
 71
1074
 72
1079
 73
1080
 74
1075
 0
VERTEX
 8
CYLINDER
 10
0
 20
0
 30
0
 70
128
 71
1075
 72
1080
 73
1081
 74
1076
 0
VERTEX
 8
CYLINDER
 10
0
 20
0
 30
0
 70
128
 71
1076
 72
1081
 73
1249
 74
1249
 0
VERTEX
 8
CYLINDER
 10
0
 20
0
 30
0
 70
128
 71
1008
 72
1295
 73
1071
 74
1071
 0
VERTEX
 8
CYLINDER
 10
0
 20
0
 30
0
 70
128
 71
1076
 72
1249
 73
1071
 74
1295
 0
VERTEX
 8
CYLINDER
 10
0
 20
0
 30
0
 70
128
 71
1008
 72
1071
 73
1012
 74
879
 0
VERTEX
 8
CYLINDER
 10
0
 20
0
 30
0
 70
128
 71
879
 72
1012
 73
1315
 74
1253
 0
VERTEX
 8
CYLINDER
 10
0
 20
0
 30
0
 70
128
 71
1019
 72
1253
 73
1315
 74
980
 0
VERTEX
 8
CYLINDER
 10
0
 20
0
 30
0
 70
128
 71
1019
 72
980
 73
1045
 74
827
 0
VERTEX
 8
CYLINDER
 10
0
 20
0
 30
0
 70
128
 71
827
 72
1045
 73
855
 74
1021
 0
VERTEX
 8
CYLINDER
 10
0
 20
0
 30
0
 70
128
 71
1021
 72
855
 73
1359
 74
1359
 0
VERTEX
 8
CYLINDER
 10
0
 20
0
 30
0
 70
128
 71
855
 72
1329
 73
989
 74
1359
 0
VERTEX
 8
CYLINDER
 10
0
 20
0
 30
0
 70
128
 71
938
 72
989
 73
1329
 74
1329
 0
VERTEX
 8
CYLINDER
 10
0
 20
0
 30
0
 70
128
 71
989
 72
938
 73
1005
 74
990
 0
VERTEX
 8
CYLINDER
 10
0
 20
0
 30
0
 70
128
 71
990
 72
1005
 73
1348
 74
1348
 0
VERTEX
 8
CYLINDER
 10
0
 20
0
 30
0
 70
128
 71
771
 72
1362
 73
782
 74
782
 0
VERTEX
 8
CYLINDER
 10
0
 20
0
 30
0
 70
128
 71
1362
 72
990
 73
1348
 74
782
 0
VERTEX
 8
CYLINDER
 10
0
 20
0
 30
0
 70
128
 71
771
 72
782
 73
784
 74
773
 0
VERTEX
 8
CYLINDER
 10
0
 20
0
 30
0
 70
128
 71
784
 72
1276
 73
1342
 74
773
 0
VERTEX
 8
CYLINDER
 10
0
 20
0
 30
0
 70
128
 71
946
 72
1342
 73
1276
 74
956
 0
VERTEX
 8
CYLINDER
 10
0
 20
0
 30
0
 70
128
 71
730
 72
1261
 73
956
 74
1374
 0
VERTEX
 8
CYLINDER
 10
0
 20
0
 30
0
 70
128
 71
1261
 72
946
 73
956
 74
956
 0
VERTEX
 8
CYLINDER
 10
0
 20
0
 30
0
 70
128
 71
730
 72
1374
 73
740
 74
740
 0
VERTEX
 8
CYLINDER
 10
0
 20
0
 30
0
 70
128
 71
940
 72
932
 73
730
 74
740
 0
VERTEX
 8
CYLINDER
 10
0
 20
0
 30
0
 70
128
 71
1326
 72
932
 73
940
 74
1288
 0
VERTEX
 8
CYLINDER
 10
0
 20
0
 30
0
 70
128
 71
1288
 72
763
 73
751
 74
1326
 0
VERTEX
 8
CYLINDER
 10
0
 20
0
 30
0
 70
128
 71
764
 72
752
 73
751
 74
763
 0
VERTEX
 8
CYLINDER
 10
0
 20
0
 30
0
 70
128
 71
961
 72
753
 73
752
 74
764
 0
VERTEX
 8
CYLINDER
 10
0
 20
0
 30
0
 70
128
 71
962
 72
951
 73
753
 74
961
 0
VERTEX
 8
CYLINDER
 10
0
 20
0
 30
0
 70
128
 71
1343
 72
951
 73
962
 74
1353
 0
VERTEX
 8
CYLINDER
 10
0
 20
0
 30
0
 70
128
 71
1353
 72
786
 73
774
 74
1343
 0
VERTEX
 8
CYLINDER
 10
0
 20
0
 30
0
 70
128
 71
983
 72
777
 73
774
 74
786
 0
VERTEX
 8
CYLINDER
 10
0
 20
0
 30
0
 70
128
 71
941
 72
992
 73
1363
 74
1355
 0
VERTEX
 8
CYLINDER
 10
0
 20
0
 30
0
 70
128
 71
1363
 72
777
 73
983
 74
1355
 0
VERTEX
 8
CYLINDER
 10
0
 20
0
 30
0
 70
128
 71
1009
 72
993
 73
992
 74
941
 0
VERTEX
 8
CYLINDER
 10
0
 20
0
 30
0
 70
128
 71
1010
 72
994
 73
993
 74
1009
 0
VERTEX
 8
CYLINDER
 10
0
 20
0
 30
0
 70
128
 71
814
 72
799
 73
994
 74
1010
 0
VERTEX
 8
CYLINDER
 10
0
 20
0
 30
0
 70
128
 71
815
 72
800
 73
799
 74
814
 0
VERTEX
 8
CYLINDER
 10
0
 20
0
 30
0
 70
128
 71
1048
 72
1023
 73
1314
 74
1314
 0
VERTEX
 8
CYLINDER
 10
0
 20
0
 30
0
 70
128
 71
1367
 72
800
 73
815
 74
815
 0
VERTEX
 8
CYLINDER
 10
0
 20
0
 30
0
 70
128
 71
1314
 72
1023
 73
1367
 74
815
 0
VERTEX
 8
CYLINDER
 10
0
 20
0
 30
0
 70
128
 71
1049
 72
1024
 73
1023
 74
1048
 0
VERTEX
 8
CYLINDER
 10
0
 20
0
 30
0
 70
128
 71
859
 72
1025
 73
1024
 74
1049
 0
VERTEX
 8
CYLINDER
 10
0
 20
0
 30
0
 70
128
 71
1052
 72
833
 73
1025
 74
859
 0
VERTEX
 8
CYLINDER
 10
0
 20
0
 30
0
 70
128
 71
1053
 72
835
 73
833
 74
1052
 0
VERTEX
 8
CYLINDER
 10
0
 20
0
 30
0
 70
128
 71
862
 72
1027
 73
835
 74
1053
 0
VERTEX
 8
CYLINDER
 10
0
 20
0
 30
0
 70
128
 71
1055
 72
1028
 73
1027
 74
862
 0
VERTEX
 8
CYLINDER
 10
0
 20
0
 30
0
 70
128
 71
1056
 72
838
 73
1028
 74
1055
 0
VERTEX
 8
CYLINDER
 10
0
 20
0
 30
0
 70
128
 71
838
 72
1056
 73
865
 74
1031
 0
VERTEX
 8
CYLINDER
 10
0
 20
0
 30
0
 70
128
 71
1031
 72
865
 73
1058
 74
1032
 0
VERTEX
 8
CYLINDER
 10
0
 20
0
 30
0
 70
128
 71
1032
 72
1058
 73
1059
 74
1033
 0
VERTEX
 8
CYLINDER
 10
0
 20
0
 30
0
 70
128
 71
1033
 72
1059
 73
1060
 74
1034
 0
VERTEX
 8
CYLINDER
 10
0
 20
0
 30
0
 70
128
 71
1034
 72
1060
 73
997
 74
844
 0
VERTEX
 8
CYLINDER
 10
0
 20
0
 30
0
 70
128
 71
844
 72
997
 73
1062
 74
845
 0
VERTEX
 8
CYLINDER
 10
0
 20
0
 30
0
 70
128
 71
845
 72
1062
 73
1063
 74
1037
 0
VERTEX
 8
CYLINDER
 10
0
 20
0
 30
0
 70
128
 71
1037
 72
1063
 73
872
 74
1038
 0
VERTEX
 8
CYLINDER
 10
0
 20
0
 30
0
 70
128
 71
1038
 72
872
 73
1002
 74
1039
 0
VERTEX
 8
CYLINDER
 10
0
 20
0
 30
0
 70
128
 71
1039
 72
1002
 73
1003
 74
1040
 0
VERTEX
 8
CYLINDER
 10
0
 20
0
 30
0
 70
128
 71
1040
 72
1003
 73
1004
 74
1041
 0
VERTEX
 8
CYLINDER
 10
0
 20
0
 30
0
 70
128
 71
1041
 72
1004
 73
1067
 74
851
 0
VERTEX
 8
CYLINDER
 10
0
 20
0
 30
0
 70
128
 71
1067
 72
1274
 73
851
 74
851
 0
VERTEX
 8
CYLINDER
 10
0
 20
0
 30
0
 70
128
 71
998
 72
1256
 73
1014
 74
1014
 0
VERTEX
 8
CYLINDER
 10
0
 20
0
 30
0
 70
128
 71
1014
 72
1256
 73
851
 74
1274
 0
VERTEX
 8
CYLINDER
 10
0
 20
0
 30
0
 70
128
 71
998
 72
1014
 73
820
 74
999
 0
VERTEX
 8
CYLINDER
 10
0
 20
0
 30
0
 70
128
 71
999
 72
820
 73
821
 74
1000
 0
VERTEX
 8
CYLINDER
 10
0
 20
0
 30
0
 70
128
 71
1000
 72
821
 73
823
 74
1001
 0
VERTEX
 8
CYLINDER
 10
0
 20
0
 30
0
 70
128
 71
1294
 72
986
 73
975
 74
1267
 0
VERTEX
 8
CYLINDER
 10
0
 20
0
 30
0
 70
128
 71
1267
 72
1001
 73
823
 74
1294
 0
VERTEX
 8
CYLINDER
 10
0
 20
0
 30
0
 70
128
 71
975
 72
986
 73
987
 74
976
 0
VERTEX
 8
CYLINDER
 10
0
 20
0
 30
0
 70
128
 71
976
 72
987
 73
1278
 74
1278
 0
VERTEX
 8
CYLINDER
 10
0
 20
0
 30
0
 70
128
 71
757
 72
1325
 73
964
 74
964
 0
VERTEX
 8
CYLINDER
 10
0
 20
0
 30
0
 70
128
 71
1325
 72
976
 73
1278
 74
964
 0
VERTEX
 8
CYLINDER
 10
0
 20
0
 30
0
 70
128
 71
757
 72
964
 73
965
 74
954
 0
VERTEX
 8
CYLINDER
 10
0
 20
0
 30
0
 70
128
 71
954
 72
965
 73
1361
 74
1328
 0
VERTEX
 8
CYLINDER
 10
0
 20
0
 30
0
 70
128
 71
1361
 72
942
 73
935
 74
1328
 0
VERTEX
 8
CYLINDER
 10
0
 20
0
 30
0
 70
128
 71
935
 72
942
 73
744
 74
734
 0
VERTEX
 8
CYLINDER
 10
0
 20
0
 30
0
 70
128
 71
734
 72
744
 73
746
 74
736
 0
VERTEX
 8
CYLINDER
 10
0
 20
0
 30
0
 70
128
 71
736
 72
746
 73
1373
 74
1373
 0
VERTEX
 8
CYLINDER
 10
0
 20
0
 30
0
 70
128
 71
1340
 72
905
 73
746
 74
746
 0
VERTEX
 8
CYLINDER
 10
0
 20
0
 30
0
 70
128
 71
1373
 72
746
 73
905
 74
880
 0
VERTEX
 8
CYLINDER
 10
0
 20
0
 30
0
 70
128
 71
880
 72
905
 73
906
 74
881
 0
VERTEX
 8
CYLINDER
 10
0
 20
0
 30
0
 70
128
 71
881
 72
906
 73
907
 74
882
 0
VERTEX
 8
CYLINDER
 10
0
 20
0
 30
0
 70
128
 71
882
 72
907
 73
908
 74
883
 0
VERTEX
 8
CYLINDER
 10
0
 20
0
 30
0
 70
128
 71
883
 72
908
 73
909
 74
884
 0
VERTEX
 8
CYLINDER
 10
0
 20
0
 30
0
 70
128
 71
884
 72
909
 73
910
 74
885
 0
VERTEX
 8
CYLINDER
 10
0
 20
0
 30
0
 70
128
 71
885
 72
910
 73
911
 74
886
 0
VERTEX
 8
CYLINDER
 10
0
 20
0
 30
0
 70
128
 71
886
 72
911
 73
912
 74
887
 0
VERTEX
 8
CYLINDER
 10
0
 20
0
 30
0
 70
128
 71
887
 72
912
 73
913
 74
888
 0
VERTEX
 8
CYLINDER
 10
0
 20
0
 30
0
 70
128
 71
888
 72
913
 73
914
 74
889
 0
VERTEX
 8
CYLINDER
 10
0
 20
0
 30
0
 70
128
 71
889
 72
914
 73
915
 74
890
 0
VERTEX
 8
CYLINDER
 10
0
 20
0
 30
0
 70
128
 71
890
 72
915
 73
916
 74
891
 0
VERTEX
 8
CYLINDER
 10
0
 20
0
 30
0
 70
128
 71
891
 72
916
 73
917
 74
892
 0
VERTEX
 8
CYLINDER
 10
0
 20
0
 30
0
 70
128
 71
892
 72
917
 73
918
 74
893
 0
VERTEX
 8
CYLINDER
 10
0
 20
0
 30
0
 70
128
 71
893
 72
918
 73
919
 74
894
 0
VERTEX
 8
CYLINDER
 10
0
 20
0
 30
0
 70
128
 71
894
 72
919
 73
920
 74
895
 0
VERTEX
 8
CYLINDER
 10
0
 20
0
 30
0
 70
128
 71
895
 72
920
 73
921
 74
896
 0
VERTEX
 8
CYLINDER
 10
0
 20
0
 30
0
 70
128
 71
896
 72
921
 73
922
 74
897
 0
VERTEX
 8
CYLINDER
 10
0
 20
0
 30
0
 70
128
 71
897
 72
922
 73
923
 74
898
 0
VERTEX
 8
CYLINDER
 10
0
 20
0
 30
0
 70
128
 71
898
 72
923
 73
924
 74
899
 0
VERTEX
 8
CYLINDER
 10
0
 20
0
 30
0
 70
128
 71
899
 72
924
 73
925
 74
900
 0
VERTEX
 8
CYLINDER
 10
0
 20
0
 30
0
 70
128
 71
900
 72
925
 73
926
 74
901
 0
VERTEX
 8
CYLINDER
 10
0
 20
0
 30
0
 70
128
 71
901
 72
926
 73
927
 74
902
 0
VERTEX
 8
CYLINDER
 10
0
 20
0
 30
0
 70
128
 71
902
 72
927
 73
928
 74
903
 0
VERTEX
 8
CYLINDER
 10
0
 20
0
 30
0
 70
128
 71
928
 72
1266
 73
903
 74
903
 0
VERTEX
 8
CYLINDER
 10
0
 20
0
 30
0
 70
128
 71
866
 72
1320
 73
873
 74
873
 0
VERTEX
 8
CYLINDER
 10
0
 20
0
 30
0
 70
128
 71
903
 72
1266
 73
873
 74
1320
 0
VERTEX
 8
CYLINDER
 10
0
 20
0
 30
0
 70
128
 71
866
 72
873
 73
874
 74
867
 0
VERTEX
 8
CYLINDER
 10
0
 20
0
 30
0
 70
128
 71
867
 72
874
 73
875
 74
868
 0
VERTEX
 8
CYLINDER
 10
0
 20
0
 30
0
 70
128
 71
868
 72
875
 73
876
 74
869
 0
VERTEX
 8
CYLINDER
 10
0
 20
0
 30
0
 70
128
 71
869
 72
876
 73
877
 74
870
 0
VERTEX
 8
CYLINDER
 10
0
 20
0
 30
0
 70
128
 71
870
 72
877
 73
878
 74
871
 0
VERTEX
 8
CYLINDER
 10
0
 20
0
 30
0
 70
128
 71
878
 72
1310
 73
871
 74
871
 0
VERTEX
 8
CYLINDER
 10
0
 20
0
 30
0
 70
128
 71
860
 72
1311
 73
863
 74
863
 0
VERTEX
 8
CYLINDER
 10
0
 20
0
 30
0
 70
128
 71
871
 72
1310
 73
863
 74
1311
 0
VERTEX
 8
CYLINDER
 10
0
 20
0
 30
0
 70
128
 71
860
 72
863
 73
864
 74
861
 0
VERTEX
 8
CYLINDER
 10
0
 20
0
 30
0
 70
128
 71
864
 72
1308
 73
861
 74
861
 0
VERTEX
 8
CYLINDER
 10
0
 20
0
 30
0
 70
128
 71
852
 72
1318
 73
856
 74
856
 0
VERTEX
 8
CYLINDER
 10
0
 20
0
 30
0
 70
128
 71
861
 72
1308
 73
856
 74
1318
 0
VERTEX
 8
CYLINDER
 10
0
 20
0
 30
0
 70
128
 71
852
 72
856
 73
857
 74
853
 0
VERTEX
 8
CYLINDER
 10
0
 20
0
 30
0
 70
128
 71
853
 72
857
 73
858
 74
854
 0
VERTEX
 8
CYLINDER
 10
0
 20
0
 30
0
 70
128
 71
858
 72
1277
 73
854
 74
854
 0
VERTEX
 8
CYLINDER
 10
0
 20
0
 30
0
 70
128
 71
839
 72
1265
 73
846
 74
846
 0
VERTEX
 8
CYLINDER
 10
0
 20
0
 30
0
 70
128
 71
846
 72
1265
 73
854
 74
1277
 0
VERTEX
 8
CYLINDER
 10
0
 20
0
 30
0
 70
128
 71
839
 72
846
 73
847
 74
840
 0
VERTEX
 8
CYLINDER
 10
0
 20
0
 30
0
 70
128
 71
840
 72
847
 73
848
 74
841
 0
VERTEX
 8
CYLINDER
 10
0
 20
0
 30
0
 70
128
 71
841
 72
848
 73
849
 74
842
 0
VERTEX
 8
CYLINDER
 10
0
 20
0
 30
0
 70
128
 71
850
 72
843
 73
842
 74
849
 0
VERTEX
 8
CYLINDER
 10
0
 20
0
 30
0
 70
128
 71
1289
 72
843
 73
850
 74
1347
 0
VERTEX
 8
CYLINDER
 10
0
 20
0
 30
0
 70
128
 71
1347
 72
834
 73
830
 74
1289
 0
VERTEX
 8
CYLINDER
 10
0
 20
0
 30
0
 70
128
 71
836
 72
831
 73
830
 74
834
 0
VERTEX
 8
CYLINDER
 10
0
 20
0
 30
0
 70
128
 71
837
 72
832
 73
831
 74
836
 0
VERTEX
 8
CYLINDER
 10
0
 20
0
 30
0
 70
128
 71
826
 72
822
 73
1321
 74
1321
 0
VERTEX
 8
CYLINDER
 10
0
 20
0
 30
0
 70
128
 71
837
 72
1279
 73
832
 74
832
 0
VERTEX
 8
CYLINDER
 10
0
 20
0
 30
0
 70
128
 71
826
 72
1321
 73
832
 74
1279
 0
VERTEX
 8
CYLINDER
 10
0
 20
0
 30
0
 70
128
 71
828
 72
824
 73
822
 74
826
 0
VERTEX
 8
CYLINDER
 10
0
 20
0
 30
0
 70
128
 71
819
 72
817
 73
1260
 74
1379
 0
VERTEX
 8
CYLINDER
 10
0
 20
0
 30
0
 70
128
 71
828
 72
1379
 73
1260
 74
824
 0
VERTEX
 8
CYLINDER
 10
0
 20
0
 30
0
 70
128
 71
783
 72
772
 73
1290
 74
1290
 0
VERTEX
 8
CYLINDER
 10
0
 20
0
 30
0
 70
128
 71
819
 72
1377
 73
1285
 74
817
 0
VERTEX
 8
CYLINDER
 10
0
 20
0
 30
0
 70
128
 71
1269
 72
1285
 73
1377
 74
1377
 0
VERTEX
 8
CYLINDER
 10
0
 20
0
 30
0
 70
128
 71
1290
 72
772
 73
1269
 74
1377
 0
VERTEX
 8
CYLINDER
 10
0
 20
0
 30
0
 70
128
 71
735
 72
729
 73
1300
 74
1300
 0
VERTEX
 8
CYLINDER
 10
0
 20
0
 30
0
 70
128
 71
783
 72
1271
 73
729
 74
1303
 0
VERTEX
 8
CYLINDER
 10
0
 20
0
 30
0
 70
128
 71
1303
 72
1259
 73
783
 74
783
 0
VERTEX
 8
CYLINDER
 10
0
 20
0
 30
0
 70
128
 71
1300
 72
729
 73
1271
 74
1271
 0
VERTEX
 8
CYLINDER
 10
0
 20
0
 30
0
 70
128
 71
772
 72
783
 73
1259
 74
1259
 0
SEQEND
 0
ENDSEC
 0
EOF
